fira-code_regular.sfdir
StartChar: exclam
Encoding: 338 33 338
GlifName: exclam
Width: 600
VWidth: 0
Flags: W
LayerCount: 2
Back
Fore
SplineSet
336 227 m 257
 344 688 l 257
 251 688 l 257
 261 227 l 257
 336 227 l 257
299 122 m 256
 261 122 233 92 233 56 c 256
 233 18 261 -11 299 -11 c 256
 337 -11 366 18 366 56 c 256
 366 92 337 122 299 122 c 256
EndSplineSet
PickledDataWithLists: "(dp1
S'com.typemytype.robofont.layerData'
p2
(dp3
s."
EndChar
StartChar: quotedbl
Encoding: 573 34 573
GlifName: quotedbl
Width: 600
VWidth: 0
Flags: W
LayerCount: 2
Back
Fore
SplineSet
331 739 m 257
 347 479 l 257
 420 479 l 257
 436 739 l 257
 331 739 l 257
164 739 m 257
 180 479 l 257
 253 479 l 257
 269 739 l 257
 164 739 l 257
EndSplineSet
PickledDataWithLists: "(dp1
S'com.typemytype.robofont.layerData'
p2
(dp3
s."
EndChar
StartChar: numbersign
Encoding: 497 35 497
GlifName: numbersign
Width: 600
VWidth: 0
Flags: W
LayerCount: 2
Back
Fore
SplineSet
358 234 m 257
 212 234 l 257
 241 456 l 257
 388 456 l 257
 358 234 l 257
428 234 m 257
 458 456 l 257
 547 456 l 257
 547 521 l 257
 466 521 l 257
 490 688 l 257
 419 688 l 257
 397 521 l 257
 249 521 l 257
 273 688 l 257
 202 688 l 257
 180 521 l 257
 90 521 l 257
 90 456 l 257
 171 456 l 257
 141 234 l 257
 53 234 l 257
 53 170 l 257
 133 170 l 257
 110 0 l 257
 181 0 l 257
 203 170 l 257
 349 170 l 257
 327 0 l 257
 398 0 l 257
 419 170 l 257
 510 170 l 257
 510 234 l 257
 428 234 l 257
EndSplineSet
PickledDataWithLists: "(dp1
S'com.typemytype.robofont.layerData'
p2
(dp3
s."
EndChar
StartChar: dollar
Encoding: 291 36 291
GlifName: dollar
Width: 600
VWidth: 0
Flags: W
LayerCount: 2
Back
Fore
SplineSet
278 627 m 257
 278 422 l 257
 205 452 184 482 184 529 c 256
 184 586 223 617 278 627 c 257
346 64 m 257
 346 315 l 257
 422 283 447 245 447 188 c 256
 447 118 413 78 346 64 c 257
346 698 m 257
 346 848 l 257
 278 848 l 257
 278 698 l 257
 155 686 95 608 95 528 c 256
 95 435 162 377 278 338 c 257
 278 60 l 257
 212 65 161 96 119 139 c 257
 69 84 l 257
 114 40 184 -4 278 -10 c 257
 278 -153 l 257
 346 -153 l 257
 346 -7 l 257
 473 10 537 94 537 189 c 256
 537 312 445 368 346 400 c 257
 346 629 l 257
 396 622 440 601 478 565 c 257
 529 618 l 257
 488 655 425 690 346 698 c 257
EndSplineSet
PickledDataWithLists: "(dp1
S'com.typemytype.robofont.layerData'
p2
(dp3
s."
EndChar
StartChar: ampersand
Encoding: 187 38 187
GlifName: ampersand
Width: 600
VWidth: 0
Flags: W
LayerCount: 2
Back
Fore
SplineSet
279 699 m 256
 162 699 90 622 90 534 c 256
 90 472 120 411 211 390 c 257
 211 387 l 257
 110 366 54 298 54 195 c 256
 54 92 121 -11 276 -11 c 256
 392 -11 454 43 484 81 c 257
 484 354 l 257
 573 354 l 257
 573 419 l 257
 295 419 l 258
 226 419 172 473 172 534 c 256
 172 594 207 636 278 636 c 256
 328 636 361 617 396 579 c 257
 446 624 l 257
 391 684 338 699 279 699 c 256
283 354 m 258
 408 354 l 257
 408 109 l 257
 381 75 334 56 279 56 c 256
 177 56 135 125 135 198 c 256
 135 269 179 354 283 354 c 258
EndSplineSet
PickledDataWithLists: "(dp1
S'com.typemytype.robofont.layerData'
p2
(dp3
s."
EndChar
StartChar: quotesingle
Encoding: 580 39 580
GlifName: quotesingle
Width: 600
VWidth: 0
Flags: W
LayerCount: 2
Back
Fore
SplineSet
248 739 m 257
 263 479 l 257
 337 479 l 257
 352 739 l 257
 248 739 l 257
EndSplineSet
PickledDataWithLists: "(dp1
S'com.typemytype.robofont.layerData'
p2
(dp3
s."
EndChar
StartChar: parenleft
Encoding: 536 40 536
GlifName: parenleft
Width: 600
VWidth: 0
Flags: W
LayerCount: 2
Back
Fore
SplineSet
212 350 m 256
 212 560 282 667 426 794 c 257
 383 840 l 257
 220 707 125 578 125 350 c 256
 125 122 220 -7 383 -140 c 257
 426 -94 l 257
 283 32 212 141 212 350 c 256
EndSplineSet
PickledDataWithLists: "(dp1
S'com.typemytype.robofont.layerData'
p2
(dp3
s."
EndChar
StartChar: parenright
Encoding: 541 41 541
GlifName: parenright
Width: 600
VWidth: 0
Flags: W
LayerCount: 2
Back
Fore
SplineSet
388 350 m 256
 388 141 317 32 174 -94 c 257
 217 -140 l 257
 380 -7 475 122 475 350 c 256
 475 578 380 707 217 840 c 257
 174 794 l 257
 318 667 388 560 388 350 c 256
EndSplineSet
PickledDataWithLists: "(dp1
S'com.typemytype.robofont.layerData'
p2
(dp3
s."
EndChar
StartChar: asterisk
Encoding: 209 42 209
GlifName: asterisk
Width: 600
VWidth: 0
Flags: W
LayerCount: 2
Back
Fore
SplineSet
327 362 m 257
 342 526 l 257
 258 526 l 257
 272 362 l 257
 122 425 l 257
 96 345 l 257
 256 309 l 257
 149 182 l 257
 220 135 l 257
 301 278 l 257
 388 137 l 257
 456 189 l 257
 346 309 l 257
 504 345 l 257
 479 425 l 257
 327 362 l 257
EndSplineSet
PickledDataWithLists: "(dp1
S'com.typemytype.robofont.layerData'
p2
(dp3
s."
EndChar
StartChar: comma
Encoding: 267 44 267
GlifName: comma
Width: 600
VWidth: 0
Flags: W
LayerCount: 2
Back
Fore
SplineSet
300 164 m 256
 255 164 220 128 220 84 c 256
 220 58 233 33 253 18 c 257
 205 -179 l 257
 280 -179 l 257
 361 7 l 257
 376 37 381 60 381 84 c 256
 381 128 346 164 300 164 c 256
EndSplineSet
PickledDataWithLists: "(dp1
S'com.typemytype.robofont.layerData'
p2
(dp3
s."
EndChar
StartChar: hyphen
Encoding: 401 45 401
GlifName: hyphen
Width: 600
VWidth: 0
Flags: W
LayerCount: 2
Back
Fore
SplineSet
125 349 m 257
 125 277 l 257
 475 277 l 257
 475 349 l 257
 125 349 l 257
EndSplineSet
PickledDataWithLists: "(dp1
S'com.typemytype.robofont.layerData'
p2
(dp3
s."
EndChar
StartChar: period
Encoding: 550 46 550
GlifName: period
Width: 600
VWidth: 0
Flags: W
LayerCount: 2
Back
Fore
SplineSet
212 77 m 256
 212 27 249 -11 299 -11 c 256
 350 -11 387 27 387 77 c 256
 387 125 350 164 299 164 c 256
 249 164 212 125 212 77 c 256
EndSplineSet
PickledDataWithLists: "(dp1
S'com.typemytype.robofont.layerData'
p2
(dp3
s."
EndChar
StartChar: slash
Encoding: 620 47 620
GlifName: slash
Width: 600
VWidth: 0
Flags: W
LayerCount: 2
Back
Fore
SplineSet
53 -73 m 257
 120 -103 l 257
 547 777 l 257
 481 809 l 257
 53 -73 l 257
EndSplineSet
PickledDataWithLists: "(dp1
S'com.typemytype.robofont.layerData'
p2
(dp3
s."
EndChar
StartChar: zero
Encoding: 1174 48 1174
GlifName: zero
Width: 600
VWidth: 0
Flags: W
LayerCount: 2
Back
Fore
SplineSet
300 700 m 256
 152 700 75 573 75 345 c 256
 75 116 152 -11 300 -11 c 256
 448 -11 525 116 525 345 c 256
 525 573 448 700 300 700 c 256
300 632 m 256
 387 632 438 548 438 345 c 256
 438 140 387 56 300 56 c 256
 214 56 162 141 162 345 c 256
 162 549 215 632 300 632 c 256
300 410 m 256
 263 410 235 381 235 345 c 256
 235 308 263 279 300 279 c 256
 338 279 366 308 366 345 c 256
 366 381 338 410 300 410 c 256
EndSplineSet
PickledDataWithLists: "(dp1
S'com.typemytype.robofont.layerData'
p2
(dp3
s."
EndChar
StartChar: one
Encoding: 519 49 519
GlifName: one
Width: 600
VWidth: 0
Flags: W
LayerCount: 2
Back
Fore
SplineSet
517 68 m 257
 373 68 l 257
 373 688 l 257
 300 688 l 257
 96 562 l 257
 132 503 l 257
 290 598 l 257
 290 68 l 257
 120 68 l 257
 120 0 l 257
 517 0 l 257
 517 68 l 257
EndSplineSet
PickledDataWithLists: "(dp1
S'com.typemytype.robofont.layerData'
p2
(dp3
s."
EndChar
StartChar: two
Encoding: 662 50 662
GlifName: two
Width: 600
VWidth: 0
Flags: W
LayerCount: 2
Back
Fore
SplineSet
269 700 m 256
 176 700 114 667 59 601 c 257
 117 557 l 257
 161 608 198 630 266 630 c 256
 343 630 389 582 389 505 c 256
 389 392 333 317 73 68 c 257
 73 0 l 257
 482 0 l 257
 492 71 l 257
 168 71 l 257
 395 278 476 381 476 507 c 256
 476 617 399 700 269 700 c 256
EndSplineSet
PickledDataWithLists: "(dp1
S'com.typemytype.robofont.layerData'
p2
(dp3
s."
EndChar
StartChar: three
Encoding: 644 51 644
GlifName: three
Width: 600
VWidth: 0
Flags: W
LayerCount: 2
Back
Fore
SplineSet
269 700 m 256
 199 700 132 676 74 620 c 257
 119 569 l 257
 165 612 206 633 265 633 c 256
 338 633 396 592 396 516 c 256
 396 433 331 395 265 395 c 258
 224 395 l 257
 214 329 l 257
 272 329 l 258
 353 329 415 297 415 198 c 256
 415 112 358 57 261 57 c 256
 205 57 147 80 108 126 c 257
 52 80 l 257
 104 16 186 -11 263 -11 c 256
 405 -11 502 79 502 198 c 256
 502 305 426 361 345 367 c 257
 418 381 480 444 480 527 c 256
 480 621 398 700 269 700 c 256
EndSplineSet
PickledDataWithLists: "(dp1
S'com.typemytype.robofont.layerData'
p2
(dp3
s."
EndChar
StartChar: four
Encoding: 362 52 362
GlifName: four
Width: 600
VWidth: 0
Flags: W
LayerCount: 2
Back
Fore
SplineSet
528 168 m 257
 528 234 l 257
 439 234 l 257
 439 430 l 257
 366 430 l 257
 359 234 l 257
 160 234 l 257
 344 670 l 257
 275 700 l 257
 72 228 l 257
 72 168 l 257
 358 168 l 257
 358 0 l 257
 439 0 l 257
 439 168 l 257
 528 168 l 257
EndSplineSet
PickledDataWithLists: "(dp1
S'com.typemytype.robofont.layerData'
p2
(dp3
s."
EndChar
StartChar: five
Encoding: 353 53 353
GlifName: five
Width: 600
VWidth: 0
Flags: W
LayerCount: 2
Back
Fore
SplineSet
474 622 m 257
 487 688 l 257
 123 688 l 257
 123 345 l 257
 190 345 l 257
 230 360 257 368 298 368 c 256
 367 368 422 332 422 220 c 256
 422 113 369 57 278 57 c 256
 218 57 171 78 129 121 c 257
 78 71 l 257
 131 19 194 -11 277 -11 c 256
 418 -11 509 80 509 218 c 256
 509 356 434 434 321 434 c 256
 280 434 244 427 202 404 c 257
 202 622 l 257
 474 622 l 257
EndSplineSet
PickledDataWithLists: "(dp1
S'com.typemytype.robofont.layerData'
p2
(dp3
s."
EndChar
StartChar: seven
Encoding: 604 55 604
GlifName: seven
Width: 600
VWidth: 0
Flags: W
LayerCount: 2
Back
Fore
SplineSet
153 14 m 257
 230 -9 l 257
 505 625 l 257
 505 688 l 257
 98 688 l 257
 98 619 l 257
 421 619 l 257
 153 14 l 257
EndSplineSet
PickledDataWithLists: "(dp1
S'com.typemytype.robofont.layerData'
p2
(dp3
s."
EndChar
StartChar: eight
Encoding: 304 56 304
GlifName: eight
Width: 600
VWidth: 0
Flags: W
LayerCount: 2
Back
Fore
SplineSet
506 525 m 256
 506 647 400 700 300 700 c 256
 210 700 94 646 94 520 c 256
 94 443 131 397 204 363 c 257
 120 324 66 268 66 183 c 256
 66 74 151 -11 298 -11 c 256
 443 -11 534 72 534 185 c 256
 534 269 476 332 387 369 c 257
 463 411 506 457 506 525 c 256
176 519 m 256
 176 592 222 635 300 635 c 256
 379 635 424 591 424 521 c 256
 424 458 392 426 328 390 c 257
 234 420 176 439 176 519 c 256
447 183 m 256
 447 111 394 56 298 56 c 256
 202 56 153 104 153 183 c 256
 153 270 204 313 261 339 c 257
 370 301 447 276 447 183 c 256
EndSplineSet
PickledDataWithLists: "(dp1
S'com.typemytype.robofont.layerData'
p2
(dp3
s."
EndChar
StartChar: nine
Encoding: 486 57 486
GlifName: nine
Width: 600
VWidth: 0
Flags: W
LayerCount: 2
Back
Fore
SplineSet
289 699 m 256
 166 699 67 620 67 472 c 256
 67 335 149 251 264 253 c 256
 340 254 396 293 426 338 c 257
 424 170 312 92 128 42 c 257
 147 -21 l 257
 404 52 513 138 513 433 c 256
 513 597 442 699 289 699 c 256
279 319 m 256
 200 318 153 364 153 469 c 256
 153 575 199 631 289 631 c 256
 385 631 430 577 428 414 c 257
 391 357 345 320 279 319 c 256
EndSplineSet
PickledDataWithLists: "(dp1
S'com.typemytype.robofont.layerData'
p2
(dp3
s."
EndChar
StartChar: colon
Encoding: 264 58 264
GlifName: colon
Width: 600
VWidth: 0
Flags: W
LayerCount: 2
Back
Fore
SplineSet
219 431 m 256
 219 386 253 349 299 349 c 256
 345 349 380 386 380 431 c 256
 380 475 345 511 299 511 c 256
 253 511 219 475 219 431 c 256
219 70 m 256
 219 24 253 -11 299 -11 c 256
 345 -11 380 24 380 70 c 256
 380 113 345 150 299 150 c 256
 253 150 219 113 219 70 c 256
EndSplineSet
PickledDataWithLists: "(dp1
S'com.typemytype.robofont.layerData'
p2
(dp3
s."
EndChar
StartChar: semicolon
Encoding: 602 59 602
GlifName: semicolon
Width: 600
VWidth: 0
Flags: W
LayerCount: 2
Back
Fore
SplineSet
299 511 m 256
 253 511 219 475 219 431 c 256
 219 386 253 349 299 349 c 256
 345 349 380 386 380 431 c 256
 380 475 345 511 299 511 c 256
299 165 m 256
 254 165 219 129 219 85 c 256
 219 58 231 33 251 18 c 257
 203 -180 l 257
 279 -180 l 257
 361 7 l 258
 375 38 380 61 380 85 c 256
 380 129 345 165 299 165 c 256
EndSplineSet
PickledDataWithLists: "(dp1
S'com.typemytype.robofont.layerData'
p2
(dp3
s."
EndChar
StartChar: greater
Encoding: 379 62 379
GlifName: greater
Width: 600
VWidth: 0
Flags: W
LayerCount: 2
Back
Fore
SplineSet
513 356 m 257
 129 594 l 257
 88 531 l 257
 442 313 l 257
 88 95 l 257
 133 33 l 257
 513 271 l 257
 513 356 l 257
EndSplineSet
PickledDataWithLists: "(dp1
S'com.typemytype.robofont.layerData'
p2
(dp3
s."
EndChar
StartChar: question
Encoding: 570 63 570
GlifName: question
Width: 600
VWidth: 0
Flags: W
LayerCount: 2
Back
Fore
SplineSet
299 700 m 256
 219 700 148 669 90 601 c 257
 149 557 l 257
 191 608 244 630 291 630 c 256
 359 630 410 598 410 540 c 256
 410 427 232 428 232 266 c 258
 232 227 l 257
 316 227 l 257
 316 261 l 258
 316 408 496 386 496 545 c 256
 496 624 422 700 299 700 c 256
277 122 m 256
 239 122 211 92 211 56 c 256
 211 18 239 -11 277 -11 c 256
 315 -11 344 18 344 56 c 256
 344 92 315 122 277 122 c 256
EndSplineSet
PickledDataWithLists: "(dp1
S'com.typemytype.robofont.layerData'
p2
(dp3
s."
EndChar
StartChar: at
Encoding: 211 64 211
GlifName: at
Width: 600
VWidth: 0
Flags: W
LayerCount: 2
Back
Fore
SplineSet
284 700 m 256
 195 700 99 668 9 590 c 257
 58 535 l 257
 143 610 219 627 285 627 c 256
 469 627 500 474 500 284 c 256
 500 113 500 -23 437 -23 c 256
 398 -23 366 0 366 109 c 258
 366 404 l 257
 310 434 272 441 226 441 c 256
 102 441 30 358 30 184 c 256
 30 51 72 -46 180 -46 c 256
 260 -46 298 5 317 52 c 257
 321 52 l 257
 320 3 355 -91 439 -91 c 256
 559 -91 585 33 585 285 c 256
 585 488 542 700 284 700 c 256
230 380 m 256
 254 380 273 376 294 365 c 257
 294 105 l 257
 282 76 260 17 190 17 c 256
 129 17 110 86 110 184 c 256
 110 313 138 380 230 380 c 256
EndSplineSet
PickledDataWithLists: "(dp1
S'com.typemytype.robofont.layerData'
p2
(dp3
s."
EndChar
StartChar: A
Encoding: 1 65 1
GlifName: A_
Width: 600
VWidth: 0
Flags: W
LayerCount: 2
Back
Fore
SplineSet
412 247 m 257
 183 247 l 257
 298 616 l 257
 412 247 l 257
161 176 m 257
 434 176 l 257
 489 0 l 257
 579 0 l 257
 355 688 l 257
 245 688 l 257
 21 0 l 257
 105 0 l 257
 161 176 l 257
EndSplineSet
PickledDataWithLists: "(dp1
S'com.typemytype.robofont.layerData'
p2
(dp3
s."
EndChar
StartChar: B
Encoding: 15 66 15
GlifName: B_
Width: 600
VWidth: 0
Flags: W
LayerCount: 2
Back
Fore
SplineSet
539 196 m 256
 539 313 457 352 381 365 c 257
 447 379 509 426 509 515 c 256
 509 650 386 688 266 688 c 258
 97 688 l 257
 97 0 l 257
 281 0 l 258
 408 0 539 46 539 196 c 256
421 510 m 256
 421 430 376 395 294 395 c 258
 182 395 l 257
 182 619 l 257
 286 619 l 258
 369 619 421 589 421 510 c 256
449 193 m 256
 449 91 364 71 297 71 c 258
 182 71 l 257
 182 324 l 257
 301 324 l 258
 381 324 449 298 449 193 c 256
EndSplineSet
PickledDataWithLists: "(dp1
S'com.typemytype.robofont.layerData'
p2
(dp3
s."
EndChar
StartChar: C
Encoding: 17 67 17
GlifName: C_
Width: 600
VWidth: 0
Flags: W
LayerCount: 2
Back
Fore
SplineSet
358 700 m 256
 199 700 64 577 64 345 c 256
 64 113 194 -11 362 -11 c 256
 460 -11 526 23 567 63 c 257
 523 120 l 257
 486 90 440 62 363 62 c 256
 245 62 153 139 153 345 c 256
 153 556 251 628 364 628 c 256
 417 628 465 613 509 577 c 257
 557 633 l 257
 503 676 448 700 358 700 c 256
EndSplineSet
PickledDataWithLists: "(dp1
S'com.typemytype.robofont.layerData'
p2
(dp3
s."
EndChar
StartChar: D
Encoding: 26 68 26
GlifName: D_
Width: 600
VWidth: 0
Flags: W
LayerCount: 2
Back
Fore
SplineSet
552 348 m 256
 552 634 391 688 230 688 c 258
 84 688 l 257
 84 0 l 257
 241 0 l 258
 384 0 552 59 552 348 c 256
461 348 m 256
 461 119 351 69 252 69 c 258
 169 69 l 257
 169 618 l 257
 251 618 l 258
 346 618 461 588 461 348 c 256
EndSplineSet
PickledDataWithLists: "(dp1
S'com.typemytype.robofont.layerData'
p2
(dp3
s."
EndChar
StartChar: E
Encoding: 30 69 30
GlifName: E_
Width: 600
VWidth: 0
Flags: W
LayerCount: 2
Back
Fore
SplineSet
212 385 m 257
 212 618 l 257
 506 618 l 257
 516 688 l 257
 126 688 l 257
 126 0 l 257
 525 0 l 257
 525 69 l 257
 212 69 l 257
 212 314 l 257
 467 314 l 257
 467 385 l 257
 212 385 l 257
EndSplineSet
PickledDataWithLists: "(dp1
S'com.typemytype.robofont.layerData'
p2
(dp3
s."
EndChar
StartChar: F
Encoding: 48 70 48
GlifName: F_
Width: 600
VWidth: 0
Flags: W
LayerCount: 2
Back
Fore
SplineSet
224 376 m 257
 224 618 l 257
 533 618 l 257
 544 688 l 257
 139 688 l 257
 139 0 l 257
 224 0 l 257
 224 307 l 257
 494 307 l 257
 494 376 l 257
 224 376 l 257
EndSplineSet
PickledDataWithLists: "(dp1
S'com.typemytype.robofont.layerData'
p2
(dp3
s."
EndChar
StartChar: G
Encoding: 49 71 49
GlifName: G_
Width: 600
VWidth: 0
Flags: W
LayerCount: 2
Back
Fore
SplineSet
314 -11 m 256
 411 -11 476 15 538 48 c 257
 538 376 l 257
 307 376 l 257
 317 305 l 257
 453 305 l 257
 453 94 l 257
 413 72 369 61 321 61 c 256
 201 61 137 144 137 345 c 256
 137 557 234 627 334 627 c 256
 391 627 436 609 478 570 c 257
 530 624 l 257
 476 674 423 700 334 700 c 256
 186 700 46 582 46 345 c 256
 46 107 151 -11 314 -11 c 256
EndSplineSet
PickledDataWithLists: "(dp1
S'com.typemytype.robofont.layerData'
p2
(dp3
s."
EndChar
StartChar: H
Encoding: 55 72 55
GlifName: H_
Width: 600
VWidth: 0
Flags: W
LayerCount: 2
Back
Fore
SplineSet
431 328 m 257
 431 0 l 257
 516 0 l 257
 516 688 l 257
 431 688 l 257
 431 397 l 257
 169 397 l 257
 169 688 l 257
 84 688 l 257
 84 0 l 257
 169 0 l 257
 169 328 l 257
 431 328 l 257
EndSplineSet
PickledDataWithLists: "(dp1
S'com.typemytype.robofont.layerData'
p2
(dp3
s."
EndChar
StartChar: J
Encoding: 75 74 75
GlifName: J_
Width: 600
VWidth: 0
Flags: W
LayerCount: 2
Back
Fore
SplineSet
496 228 m 258
 496 688 l 257
 207 688 l 257
 207 618 l 257
 411 618 l 257
 411 233 l 258
 411 126 357 60 261 60 c 256
 220 60 171 70 111 108 c 257
 73 51 l 257
 127 10 194 -12 262 -12 c 256
 443 -12 496 114 496 228 c 258
EndSplineSet
PickledDataWithLists: "(dp1
S'com.typemytype.robofont.layerData'
p2
(dp3
s."
EndChar
StartChar: L
Encoding: 80 76 80
GlifName: L_
Width: 600
VWidth: 0
Flags: W
LayerCount: 2
Back
Fore
SplineSet
136 688 m 257
 136 0 l 257
 526 0 l 257
 536 77 l 257
 222 77 l 257
 222 688 l 257
 136 688 l 257
EndSplineSet
PickledDataWithLists: "(dp1
S'com.typemytype.robofont.layerData'
p2
(dp3
s."
EndChar
StartChar: M
Encoding: 87 77 87
GlifName: M_
Width: 600
VWidth: 0
Flags: W
LayerCount: 2
Back
Fore
SplineSet
569 0 m 257
 530 688 l 257
 409 688 l 257
 302 217 l 257
 190 688 l 257
 70 688 l 257
 31 0 l 257
 111 0 l 257
 130 361 l 258
 134 447 134 573 134 590 c 257
 138 590 l 257
 256 124 l 257
 343 124 l 257
 457 590 l 257
 459 590 l 257
 459 576 460 456 465 361 c 258
 487 0 l 257
 569 0 l 257
EndSplineSet
PickledDataWithLists: "(dp1
S'com.typemytype.robofont.layerData'
p2
(dp3
s."
EndChar
StartChar: P
Encoding: 113 80 113
GlifName: P_
Width: 600
VWidth: 0
Flags: W
LayerCount: 2
Back
Fore
SplineSet
557 477 m 256
 557 621 455 688 291 688 c 258
 117 688 l 257
 117 0 l 257
 202 0 l 257
 202 256 l 257
 291 256 l 258
 446 256 557 316 557 477 c 256
465 476 m 256
 465 358 395 325 299 325 c 258
 202 325 l 257
 202 620 l 257
 302 620 l 258
 396 620 465 583 465 476 c 256
EndSplineSet
PickledDataWithLists: "(dp1
S'com.typemytype.robofont.layerData'
p2
(dp3
s."
EndChar
StartChar: Q
Encoding: 117 81 117
GlifName: Q_
Width: 600
VWidth: 0
Flags: W
LayerCount: 2
Back
Fore
SplineSet
553 344 m 256
 553 556 467 700 300 700 c 256
 132 700 46 551 46 342 c 256
 46 130 132 -9 290 -9 c 256
 409 -9 459 -67 501 -173 c 257
 592 -137 l 257
 558 -37 507 7 416 26 c 257
 516 85 553 197 553 344 c 256
464 344 m 256
 464 160 416 61 300 61 c 256
 186 61 135 159 135 342 c 256
 135 526 183 628 300 628 c 256
 416 628 464 527 464 344 c 256
EndSplineSet
PickledDataWithLists: "(dp1
S'com.typemytype.robofont.layerData'
p2
(dp3
s."
EndChar
StartChar: T
Encoding: 131 84 131
GlifName: T_
Width: 600
VWidth: 0
Flags: W
LayerCount: 2
Back
Fore
SplineSet
341 0 m 257
 341 615 l 257
 550 615 l 257
 559 688 l 257
 40 688 l 257
 40 615 l 257
 256 615 l 257
 256 0 l 257
 341 0 l 257
EndSplineSet
PickledDataWithLists: "(dp1
S'com.typemytype.robofont.layerData'
p2
(dp3
s."
EndChar
StartChar: U
Encoding: 138 85 138
GlifName: U_
Width: 600
VWidth: 0
Flags: W
LayerCount: 2
Back
Fore
SplineSet
527 223 m 258
 527 688 l 257
 441 688 l 257
 441 219 l 258
 441 114 389 63 299 63 c 256
 210 63 158 114 158 219 c 258
 158 688 l 257
 73 688 l 257
 73 223 l 258
 73 84 158 -11 299 -11 c 256
 438 -11 527 83 527 223 c 258
EndSplineSet
PickledDataWithLists: "(dp1
S'com.typemytype.robofont.layerData'
p2
(dp3
s."
EndChar
StartChar: V
Encoding: 152 86 152
GlifName: V_
Width: 600
VWidth: 0
Flags: W
LayerCount: 2
Back
Fore
SplineSet
489 688 m 257
 302 98 l 257
 117 688 l 257
 25 688 l 257
 256 0 l 257
 344 0 l 257
 575 688 l 257
 489 688 l 257
EndSplineSet
PickledDataWithLists: "(dp1
S'com.typemytype.robofont.layerData'
p2
(dp3
s."
EndChar
StartChar: W
Encoding: 153 87 153
GlifName: W_
Width: 600
VWidth: 0
Flags: W
LayerCount: 2
Back
Fore
SplineSet
490 0 m 257
 595 688 l 257
 516 688 l 257
 434 107 l 257
 430 107 l 257
 354 608 l 257
 248 608 l 257
 166 103 l 257
 162 103 l 257
 91 688 l 257
 5 688 l 257
 102 0 l 257
 218 0 l 257
 296 505 l 257
 300 505 l 257
 377 0 l 257
 490 0 l 257
EndSplineSet
PickledDataWithLists: "(dp1
S'com.typemytype.robofont.layerData'
p2
(dp3
s."
EndChar
StartChar: X
Encoding: 158 88 158
GlifName: X_
Width: 600
VWidth: 0
Flags: W
LayerCount: 2
Back
Fore
SplineSet
148 688 m 257
 50 688 l 257
 248 367 l 257
 31 0 l 257
 123 0 l 257
 298 312 l 257
 470 0 l 257
 569 0 l 257
 349 372 l 257
 545 688 l 257
 452 688 l 257
 300 423 l 257
 148 688 l 257
EndSplineSet
PickledDataWithLists: "(dp1
S'com.typemytype.robofont.layerData'
p2
(dp3
s."
EndChar
StartChar: Y
Encoding: 160 89 160
GlifName: Y_
Width: 600
VWidth: 0
Flags: W
LayerCount: 2
Back
Fore
SplineSet
343 0 m 257
 343 266 l 257
 576 688 l 257
 487 688 l 257
 302 343 l 257
 119 688 l 257
 24 688 l 257
 257 265 l 257
 257 0 l 257
 343 0 l 257
EndSplineSet
PickledDataWithLists: "(dp1
S'com.typemytype.robofont.layerData'
p2
(dp3
s."
EndChar
StartChar: bracketleft
Encoding: 229 91 229
GlifName: bracketleft
Width: 600
VWidth: 0
Flags: W
LayerCount: 2
Back
Fore
SplineSet
184 815 m 257
 184 -115 l 257
 434 -115 l 257
 434 -45 l 257
 263 -45 l 257
 263 744 l 257
 434 744 l 257
 434 815 l 257
 184 815 l 257
EndSplineSet
PickledDataWithLists: "(dp1
S'com.typemytype.robofont.layerData'
p2
(dp3
s."
EndChar
StartChar: backslash
Encoding: 214 92 214
GlifName: backslash
Width: 600
VWidth: 0
Flags: W
LayerCount: 2
Back
Fore
SplineSet
119 809 m 257
 53 777 l 257
 480 -103 l 257
 547 -73 l 257
 119 809 l 257
EndSplineSet
PickledDataWithLists: "(dp1
S'com.typemytype.robofont.layerData'
p2
(dp3
s."
EndChar
StartChar: bracketright
Encoding: 231 93 231
GlifName: bracketright
Width: 600
VWidth: 0
Flags: W
LayerCount: 2
Back
Fore
SplineSet
416 -115 m 257
 416 815 l 257
 166 815 l 257
 166 744 l 257
 337 744 l 257
 337 -45 l 257
 166 -45 l 257
 166 -115 l 257
 416 -115 l 257
EndSplineSet
PickledDataWithLists: "(dp1
S'com.typemytype.robofont.layerData'
p2
(dp3
s."
EndChar
StartChar: asciicircum
Encoding: 202 94 202
GlifName: asciicircum
Width: 600
VWidth: 0
Flags: W
LayerCount: 2
Back
Fore
SplineSet
526 527 m 257
 337 839 l 257
 263 839 l 257
 74 527 l 257
 163 527 l 257
 299 765 l 257
 435 527 l 257
 526 527 l 257
EndSplineSet
PickledDataWithLists: "(dp1
S'com.typemytype.robofont.layerData'
p2
(dp3
s."
EndChar
StartChar: underscore
Encoding: 677 95 677
GlifName: underscore
Width: 600
VWidth: 0
Flags: W
LayerCount: 2
Back
Fore
SplineSet
-7 -109 m 257
 -7 -181 l 257
 607 -181 l 257
 607 -109 l 257
 -7 -109 l 257
EndSplineSet
PickledDataWithLists: "(dp1
S'com.typemytype.robofont.layerData'
p2
(dp3
s."
EndChar
StartChar: grave
Encoding: 376 96 376
GlifName: grave
Width: 600
VWidth: 0
Flags: W
LayerCount: 2
Back
Fore
SplineSet
185 715 m 257
 387 624 l 257
 414 670 l 257
 229 787 l 257
 185 715 l 257
EndSplineSet
PickledDataWithLists: "(dp1
S'com.typemytype.robofont.layerData'
p2
(dp3
s."
EndChar
StartChar: b
Encoding: 213 98 213
GlifName: b
Width: 600
VWidth: 0
Flags: W
LayerCount: 2
Back
Fore
SplineSet
184 458 m 257
 184 749 l 257
 101 739 l 257
 101 0 l 257
 174 0 l 257
 180 55 l 257
 215 9 262 -11 323 -11 c 256
 459 -11 532 104 532 264 c 256
 532 429 475 538 334 538 c 256
 274 538 222 509 184 458 c 257
304 56 m 256
 255 56 212 82 184 124 c 257
 184 386 l 257
 212 428 257 471 316 471 c 256
 398 471 441 402 441 264 c 256
 441 123 392 56 304 56 c 256
EndSplineSet
PickledDataWithLists: "(dp1
S'com.typemytype.robofont.layerData'
p2
(dp3
s."
EndChar
StartChar: d
Encoding: 271 100 271
GlifName: d
Width: 600
VWidth: 0
Flags: W
LayerCount: 2
Back
Fore
SplineSet
296 471 m 256
 345 471 388 445 416 403 c 257
 416 139 l 257
 388 96 346 56 286 56 c 256
 203 56 159 126 159 263 c 256
 159 402 208 471 296 471 c 256
499 739 m 257
 416 749 l 257
 416 475 l 257
 381 516 335 538 275 538 c 256
 145 538 68 421 68 262 c 256
 68 99 131 -11 269 -11 c 256
 327 -11 379 14 418 69 c 257
 426 0 l 257
 499 0 l 257
 499 739 l 257
EndSplineSet
PickledDataWithLists: "(dp1
S'com.typemytype.robofont.layerData'
p2
(dp3
s."
EndChar
StartChar: f
Encoding: 344 102 344
GlifName: f
Width: 600
VWidth: 0
Flags: W
LayerCount: 2
Back
Fore
SplineSet
411 749 m 256
 303 749 220 688 220 591 c 258
 220 486 l 257
 94 486 l 257
 94 420 l 257
 220 420 l 257
 220 0 l 257
 303 0 l 257
 303 420 l 257
 473 420 l 257
 482 486 l 257
 303 486 l 257
 303 593 l 258
 303 652 340 681 414 681 c 256
 454 681 493 674 527 658 c 257
 554 720 l 257
 512 738 468 749 411 749 c 256
EndSplineSet
PickledDataWithLists: "(dp1
S'com.typemytype.robofont.layerData'
p2
(dp3
s."
EndChar
StartChar: h
Encoding: 394 104 394
GlifName: h
Width: 600
VWidth: 0
Flags: W
LayerCount: 2
Back
Fore
SplineSet
184 454 m 257
 184 747 l 257
 101 737 l 257
 101 0 l 257
 184 0 l 257
 184 384 l 257
 211 425 265 472 326 472 c 256
 388 472 417 444 417 381 c 258
 417 0 l 257
 500 0 l 257
 500 382 l 258
 500 480 455 538 352 538 c 256
 290 538 225 509 184 454 c 257
EndSplineSet
PickledDataWithLists: "(dp1
S'com.typemytype.robofont.layerData'
p2
(dp3
s."
EndChar
StartChar: j
Encoding: 432 106 432
GlifName: j
Width: 600
VWidth: 0
Flags: W
LayerCount: 2
Back
Fore
SplineSet
367 773 m 256
 331 773 307 747 307 714 c 256
 307 680 331 655 367 655 c 256
 403 655 428 680 428 714 c 256
 428 747 403 773 367 773 c 256
445 83 m 258
 445 526 l 257
 142 526 l 257
 142 461 l 257
 362 461 l 257
 362 78 l 258
 362 -63 252 -122 96 -148 c 257
 110 -212 l 257
 321 -176 445 -92 445 83 c 258
EndSplineSet
PickledDataWithLists: "(dp1
S'com.typemytype.robofont.layerData'
p2
(dp3
s."
EndChar
StartChar: k
Encoding: 435 107 435
GlifName: k
Width: 600
VWidth: 0
Flags: W
LayerCount: 2
Back
Fore
SplineSet
189 0 m 257
 189 749 l 257
 106 739 l 257
 106 0 l 257
 189 0 l 257
303 289 m 257
 541 526 l 257
 433 526 l 257
 199 288 l 257
 459 0 l 257
 569 0 l 257
 303 289 l 257
EndSplineSet
PickledDataWithLists: "(dp1
S'com.typemytype.robofont.layerData'
p2
(dp3
s."
EndChar
StartChar: m
Encoding: 467 109 467
GlifName: m
Width: 600
VWidth: 0
Flags: W
LayerCount: 2
Back
Fore
SplineSet
447 538 m 256
 393 538 360 509 331 468 c 257
 315 522 276 538 236 538 c 256
 183 538 150 506 121 465 c 257
 116 526 l 257
 51 526 l 257
 51 0 l 257
 128 0 l 257
 128 409 l 257
 157 454 187 473 220 473 c 256
 258 473 261 445 261 378 c 258
 261 0 l 257
 339 0 l 257
 339 409 l 257
 368 454 400 473 431 473 c 256
 469 473 472 445 472 378 c 258
 472 0 l 257
 549 0 l 257
 549 392 l 258
 549 513 497 538 447 538 c 256
EndSplineSet
PickledDataWithLists: "(dp1
S'com.typemytype.robofont.layerData'
p2
(dp3
s."
EndChar
StartChar: q
Encoding: 569 113 569
GlifName: q
Width: 600
VWidth: 0
Flags: W
LayerCount: 2
Back
Fore
SplineSet
274 538 m 256
 144 538 74 421 74 262 c 256
 74 97 126 -11 268 -11 c 256
 325 -11 377 13 416 67 c 257
 416 -202 l 257
 499 -212 l 257
 499 526 l 257
 428 526 l 257
 421 469 l 257
 386 513 338 538 274 538 c 256
295 471 m 256
 345 471 389 445 416 403 c 257
 416 139 l 257
 388 96 344 58 285 58 c 256
 203 58 163 126 163 263 c 256
 163 402 207 471 295 471 c 256
EndSplineSet
PickledDataWithLists: "(dp1
S'com.typemytype.robofont.layerData'
p2
(dp3
s."
EndChar
StartChar: r
Encoding: 581 114 581
GlifName: r
Width: 600
VWidth: 0
Flags: W
LayerCount: 2
Back
Fore
SplineSet
94 0 m 257
 448 0 l 257
 448 66 l 257
 300 66 l 257
 300 315 l 257
 318 388 373 457 444 457 c 256
 466 457 482 454 505 448 c 257
 520 530 l 257
 495 536 477 538 451 538 c 256
 388 538 330 500 299 425 c 257
 289 526 l 257
 94 526 l 257
 94 461 l 257
 217 461 l 257
 217 66 l 257
 94 66 l 257
 94 0 l 257
EndSplineSet
PickledDataWithLists: "(dp1
S'com.typemytype.robofont.layerData'
p2
(dp3
s."
EndChar
StartChar: u
Encoding: 668 117 668
GlifName: u
Width: 600
VWidth: 0
Flags: W
LayerCount: 2
Back
Fore
SplineSet
184 153 m 258
 184 526 l 257
 101 526 l 257
 101 143 l 258
 101 46 151 -11 253 -11 c 256
 314 -11 380 18 421 71 c 257
 428 0 l 257
 499 0 l 257
 499 526 l 257
 416 526 l 257
 416 139 l 257
 388 94 331 55 273 55 c 256
 212 55 184 84 184 153 c 258
EndSplineSet
PickledDataWithLists: "(dp1
S'com.typemytype.robofont.layerData'
p2
(dp3
s."
EndChar
StartChar: v
Encoding: 1153 118 1153
GlifName: v
Width: 600
VWidth: 0
Flags: W
LayerCount: 2
Back
Fore
SplineSet
347 0 m 257
 539 526 l 257
 453 526 l 257
 302 76 l 257
 149 526 l 257
 61 526 l 257
 251 0 l 257
 347 0 l 257
EndSplineSet
PickledDataWithLists: "(dp1
S'com.typemytype.robofont.layerData'
p2
(dp3
s."
EndChar
StartChar: x
Encoding: 1160 120 1160
GlifName: x
Width: 600
VWidth: 0
Flags: W
LayerCount: 2
Back
Fore
SplineSet
56 0 m 257
 151 0 l 257
 297 226 l 257
 442 0 l 257
 544 0 l 257
 350 282 l 257
 520 526 l 257
 425 526 l 257
 301 330 l 257
 178 526 l 257
 80 526 l 257
 251 278 l 257
 56 0 l 257
EndSplineSet
PickledDataWithLists: "(dp1
S'com.typemytype.robofont.layerData'
p2
(dp3
s."
EndChar
StartChar: y
Encoding: 1162 121 1162
GlifName: y
Width: 600
VWidth: 0
Flags: W
LayerCount: 2
Back
Fore
SplineSet
353 -3 m 258
 538 526 l 257
 452 526 l 257
 303 63 l 257
 151 526 l 257
 62 526 l 257
 246 0 l 257
 274 0 l 257
 246 -82 215 -126 106 -145 c 257
 119 -212 l 257
 258 -197 316 -110 353 -3 c 258
EndSplineSet
PickledDataWithLists: "(dp1
S'com.typemytype.robofont.layerData'
p2
(dp3
s."
EndChar
StartChar: z
Encoding: 1169 122 1169
GlifName: z
Width: 600
VWidth: 0
Flags: W
LayerCount: 2
Back
Fore
SplineSet
498 71 m 257
 204 71 l 257
 495 462 l 257
 495 526 l 257
 126 526 l 257
 126 454 l 257
 395 454 l 257
 103 63 l 257
 103 0 l 257
 487 0 l 257
 498 71 l 257
EndSplineSet
PickledDataWithLists: "(dp1
S'com.typemytype.robofont.layerData'
p2
(dp3
s."
EndChar
StartChar: braceleft
Encoding: 225 123 225
GlifName: braceleft
Width: 600
VWidth: 0
Flags: W
LayerCount: 2
Back
Fore
SplineSet
451 770 m 257
 451 835 l 257
 340 835 236 802 249 680 c 258
 269 488 l 258
 276 420 253 383 117 383 c 257
 117 317 l 257
 252 317 276 279 269 211 c 258
 249 20 l 258
 236 -102 340 -135 451 -135 c 257
 451 -70 l 257
 378 -70 319 -52 325 10 c 258
 346 216 l 258
 354 304 323 337 253 350 c 257
 321 363 354 400 346 484 c 258
 325 690 l 258
 319 751 378 770 451 770 c 257
EndSplineSet
PickledDataWithLists: "(dp1
S'com.typemytype.robofont.layerData'
p2
(dp3
s."
EndChar
StartChar: bar
Encoding: 215 124 215
GlifName: bar
Width: 600
VWidth: 0
Flags: W
LayerCount: 2
Back
Fore
SplineSet
337 -102 m 257
 337 807 l 257
 262 807 l 257
 262 -102 l 257
 337 -102 l 257
EndSplineSet
PickledDataWithLists: "(dp1
S'com.typemytype.robofont.layerData'
p2
(dp3
s."
EndChar
StartChar: braceright
Encoding: 227 125 227
GlifName: braceright
Width: 600
VWidth: 0
Flags: W
LayerCount: 2
Back
Fore
SplineSet
149 835 m 257
 149 770 l 257
 222 770 281 751 275 690 c 258
 254 484 l 258
 246 400 279 363 358 349 c 257
 276 337 246 304 254 216 c 258
 275 10 l 258
 281 -52 222 -70 149 -70 c 257
 149 -135 l 257
 260 -135 364 -102 351 20 c 258
 331 211 l 258
 324 279 359 317 483 317 c 257
 483 383 l 257
 359 383 324 420 331 488 c 258
 351 680 l 258
 364 802 260 835 149 835 c 257
EndSplineSet
PickledDataWithLists: "(dp1
S'com.typemytype.robofont.layerData'
p2
(dp3
s."
EndChar
StartChar: exclamdown
Encoding: 342 161 342
GlifName: exclamdown
Width: 600
VWidth: 0
Flags: W
LayerCount: 2
Back
Fore
SplineSet
299 498 m 256
 261 498 233 469 233 431 c 256
 233 395 261 365 299 365 c 256
 336 365 366 395 366 431 c 256
 366 469 336 498 299 498 c 256
347 -197 m 257
 335 261 l 257
 263 261 l 257
 251 -197 l 257
 347 -197 l 257
EndSplineSet
PickledDataWithLists: "(dp1
S'com.typemytype.robofont.layerData'
p2
(dp3
s."
EndChar
StartChar: cent
Encoding: 254 162 254
GlifName: cent
Width: 600
VWidth: 0
Flags: W
LayerCount: 2
Back
Fore
SplineSet
373 533 m 257
 373 683 l 257
 299 683 l 257
 299 532 l 257
 171 514 106 405 106 261 c 256
 106 110 172 10 298 -6 c 257
 298 -153 l 257
 373 -153 l 257
 373 -6 l 257
 415 -1 456 14 494 46 c 257
 453 105 l 257
 410 71 376 60 336 60 c 256
 250 60 196 120 196 261 c 256
 196 400 249 468 336 468 c 256
 375 468 408 459 452 427 c 257
 494 482 l 257
 456 513 415 528 373 533 c 257
EndSplineSet
PickledDataWithLists: "(dp1
S'com.typemytype.robofont.layerData'
p2
(dp3
s."
EndChar
StartChar: currency
Encoding: 269 164 269
GlifName: currency
Width: 600
VWidth: 0
Flags: W
LayerCount: 2
Back
Fore
SplineSet
301 486 m 256
 385 486 429 431 429 342 c 256
 429 252 385 198 301 198 c 256
 217 198 172 252 172 342 c 256
 172 431 217 486 301 486 c 256
177 520 m 257
 88 610 l 257
 34 556 l 257
 122 466 l 257
 101 433 88 390 88 342 c 256
 88 293 101 250 123 216 c 257
 34 127 l 257
 88 73 l 257
 177 162 l 257
 211 141 254 130 301 130 c 256
 347 130 388 141 421 162 c 257
 512 74 l 257
 566 128 l 257
 478 215 l 257
 500 249 515 292 515 342 c 256
 515 390 501 434 479 467 c 257
 566 555 l 257
 512 609 l 257
 423 520 l 257
 390 542 347 553 301 553 c 256
 254 553 211 541 177 520 c 257
EndSplineSet
PickledDataWithLists: "(dp1
S'com.typemytype.robofont.layerData'
p2
(dp3
s."
EndChar
StartChar: yen
Encoding: 1166 165 1166
GlifName: yen
Width: 600
VWidth: 0
Flags: W
LayerCount: 2
Back
Fore
SplineSet
366 345 m 257
 560 688 l 257
 472 688 l 257
 305 372 l 257
 301 372 l 257
 134 688 l 257
 40 688 l 257
 233 345 l 257
 116 345 l 257
 116 287 l 257
 256 287 l 257
 256 201 l 257
 116 201 l 257
 116 143 l 257
 256 143 l 257
 256 0 l 257
 344 0 l 257
 344 143 l 257
 486 143 l 257
 486 201 l 257
 344 201 l 257
 344 287 l 257
 486 287 l 257
 486 345 l 257
 366 345 l 257
EndSplineSet
PickledDataWithLists: "(dp1
S'com.typemytype.robofont.layerData'
p2
(dp3
s."
EndChar
StartChar: brokenbar
Encoding: 237 166 237
GlifName: brokenbar
Width: 600
VWidth: 0
Flags: W
LayerCount: 2
Back
Fore
SplineSet
337 452 m 257
 337 807 l 257
 262 807 l 257
 262 452 l 257
 337 452 l 257
337 -102 m 257
 337 253 l 257
 262 253 l 257
 262 -102 l 257
 337 -102 l 257
EndSplineSet
PickledDataWithLists: "(dp1
S'com.typemytype.robofont.layerData'
p2
(dp3
s."
EndChar
StartChar: section
Encoding: 600 167 600
GlifName: section
Width: 600
VWidth: 0
Flags: W
LayerCount: 2
Back
Fore
SplineSet
239 417 m 257
 377 365 410 355 410 299 c 256
 410 270 392 238 362 212 c 257
 223 263 190 272 190 331 c 256
 190 359 207 391 239 417 c 257
317 700 m 256
 213 700 128 644 128 554 c 256
 128 509 150 473 187 445 c 257
 143 418 106 374 106 321 c 256
 106 241 152 204 261 167 c 256
 361 134 384 115 384 70 c 256
 384 26 341 -1 284 -1 c 256
 228 -1 188 14 148 42 c 257
 108 -14 l 257
 151 -47 206 -69 279 -69 c 256
 391 -69 472 -15 472 76 c 256
 472 122 448 157 412 184 c 257
 456 211 492 255 492 310 c 256
 492 388 448 426 339 462 c 256
 238 497 215 515 215 561 c 256
 215 604 254 632 311 632 c 256
 368 632 404 616 444 589 c 257
 484 646 l 257
 440 678 390 700 317 700 c 256
EndSplineSet
PickledDataWithLists: "(dp1
S'com.typemytype.robofont.layerData'
p2
(dp3
s."
EndChar
StartChar: dieresis
Encoding: 283 168 283
GlifName: dieresis
Width: 600
VWidth: 0
Flags: W
LayerCount: 2
Back
Fore
SplineSet
402 648 m 256
 434 648 457 671 457 701 c 256
 457 732 434 755 402 755 c 256
 372 755 349 732 349 701 c 256
 349 671 372 648 402 648 c 256
196 648 m 256
 226 648 250 671 250 701 c 256
 250 732 226 755 196 755 c 256
 165 755 142 732 142 701 c 256
 142 671 165 648 196 648 c 256
EndSplineSet
PickledDataWithLists: "(dp1
S'com.typemytype.robofont.layerData'
p2
(dp3
s."
EndChar
StartChar: copyright
Encoding: 268 169 268
GlifName: copyright
Width: 600
VWidth: 0
Flags: W
LayerCount: 2
Back
Fore
SplineSet
301 747 m 256
 128 747 30 608 30 435 c 256
 30 264 129 125 301 125 c 256
 472 125 570 264 570 435 c 256
 570 608 472 747 301 747 c 256
301 697 m 256
 445 697 516 580 516 435 c 256
 516 291 445 176 301 176 c 256
 156 176 85 291 85 435 c 256
 85 580 156 697 301 697 c 256
304 625 m 256
 218 625 142 560 142 436 c 256
 142 314 211 247 305 247 c 256
 361 247 399 270 426 294 c 257
 394 342 l 257
 370 320 343 307 307 307 c 256
 252 307 213 348 213 436 c 256
 213 531 255 569 307 569 c 256
 334 569 360 560 386 539 c 257
 421 586 l 257
 386 613 356 625 304 625 c 256
EndSplineSet
PickledDataWithLists: "(dp1
S'com.typemytype.robofont.layerData'
p2
(dp3
s."
EndChar
StartChar: ordfeminine
Encoding: 529 170 529
GlifName: ordfeminine
Width: 600
VWidth: 0
Flags: W
LayerCount: 2
Back
Fore
SplineSet
290 749 m 256
 245 749 193 741 135 719 c 257
 157 661 l 257
 206 678 251 685 279 685 c 256
 341 685 378 663 378 607 c 258
 378 576 l 257
 319 576 l 258
 184 576 102 528 102 440 c 256
 102 360 163 307 254 307 c 256
 305 307 355 328 388 366 c 257
 402 329 430 312 471 307 c 257
 489 361 l 257
 467 368 456 381 456 411 c 258
 456 609 l 258
 456 696 402 749 290 749 c 256
320 521 m 258
 378 521 l 257
 378 422 l 257
 352 388 313 366 273 366 c 256
 218 366 186 392 186 443 c 256
 186 493 226 521 320 521 c 258
498 0 m 257
 498 75 l 257
 106 75 l 257
 106 0 l 257
 498 0 l 257
EndSplineSet
PickledDataWithLists: "(dp1
S'com.typemytype.robofont.layerData'
p2
(dp3
s."
EndChar
StartChar: guillemotleft
Encoding: 386 171 386
GlifName: guillemotleft
Width: 600
VWidth: 0
Flags: W
LayerCount: 2
Back
Fore
SplineSet
466 56 m 257
 516 88 l 257
 381 294 l 257
 516 500 l 257
 466 532 l 257
 289 323 l 257
 289 263 l 257
 466 56 l 257
258 56 m 257
 308 88 l 257
 173 294 l 257
 308 500 l 257
 258 532 l 257
 83 323 l 257
 83 263 l 257
 258 56 l 257
EndSplineSet
PickledDataWithLists: "(dp1
S'com.typemytype.robofont.layerData'
p2
(dp3
s."
EndChar
StartChar: softhyphen
Encoding: 626 173 626
GlifName: softhyphen
Width: 600
VWidth: 0
Flags: W
LayerCount: 2
Back
Fore
SplineSet
144 349 m 257
 144 277 l 257
 456 277 l 257
 456 349 l 257
 144 349 l 257
EndSplineSet
PickledDataWithLists: "(dp1
S'com.typemytype.robofont.layerData'
p2
(dp3
s."
EndChar
StartChar: registered
Encoding: 587 174 587
GlifName: registered
Width: 600
VWidth: 0
Flags: W
LayerCount: 2
Back
Fore
SplineSet
300 747 m 256
 160 747 47 632 47 492 c 256
 47 352 160 239 300 239 c 256
 440 239 552 352 552 492 c 256
 552 632 440 747 300 747 c 256
300 700 m 256
 415 700 500 607 500 492 c 256
 500 377 415 286 300 286 c 256
 185 286 99 377 99 492 c 256
 99 607 185 700 300 700 c 256
257 592 m 257
 287 592 l 258
 331 592 350 578 350 551 c 256
 350 518 328 506 289 506 c 258
 257 506 l 257
 257 592 l 257
286 636 m 258
 201 636 l 257
 201 354 l 257
 257 354 l 257
 257 463 l 257
 286 463 l 257
 361 354 l 257
 427 354 l 257
 341 472 l 257
 380 483 408 509 408 552 c 256
 408 607 368 636 286 636 c 258
EndSplineSet
PickledDataWithLists: "(dp1
S'com.typemytype.robofont.layerData'
p2
(dp3
s."
EndChar
StartChar: macron
Encoding: 468 175 468
GlifName: macron
Width: 600
VWidth: 0
Flags: W
LayerCount: 2
Back
Fore
SplineSet
165 676 m 257
 434 676 l 257
 434 740 l 257
 165 740 l 257
 165 676 l 257
EndSplineSet
PickledDataWithLists: "(dp1
S'com.typemytype.robofont.layerData'
p2
(dp3
s."
EndChar
StartChar: degree
Encoding: 278 176 278
GlifName: degree
Width: 600
VWidth: 0
Flags: W
LayerCount: 2
Back
Fore
SplineSet
227 749 m 256
 145 749 65 692 65 593 c 256
 65 492 145 436 227 436 c 256
 311 436 389 492 389 592 c 256
 389 692 311 749 227 749 c 256
227 690 m 256
 274 690 317 659 317 592 c 256
 317 526 274 495 227 495 c 256
 182 495 138 526 138 593 c 256
 138 660 182 690 227 690 c 256
EndSplineSet
PickledDataWithLists: "(dp1
S'com.typemytype.robofont.layerData'
p2
(dp3
s."
EndChar
StartChar: twosuperior
Encoding: 667 178 667
GlifName: twosuperior
Width: 600
VWidth: 0
Flags: W
LayerCount: 2
Back
Fore
SplineSet
435 536 m 256
 435 599 387 642 302 642 c 256
 246 642 194 618 154 571 c 257
 205 533 l 257
 234 569 267 582 300 582 c 256
 337 582 359 563 359 533 c 256
 359 489 319 465 159 367 c 257
 159 315 l 257
 436 315 l 257
 445 375 l 257
 266 375 l 257
 392 438 435 472 435 536 c 256
EndSplineSet
PickledDataWithLists: "(dp1
S'com.typemytype.robofont.layerData'
p2
(dp3
s."
EndChar
StartChar: threesuperior
Encoding: 651 179 651
GlifName: threesuperior
Width: 600
VWidth: 0
Flags: W
LayerCount: 2
Back
Fore
SplineSet
308 642 m 256
 256 642 206 628 160 590 c 257
 198 549 l 257
 233 575 267 587 303 587 c 256
 344 587 365 572 365 543 c 256
 365 513 341 502 301 502 c 258
 267 502 l 257
 259 459 l 257
 305 459 l 258
 353 459 377 446 377 412 c 256
 377 384 353 365 301 365 c 256
 263 365 224 378 193 405 c 257
 147 367 l 257
 189 325 245 309 298 309 c 256
 396 309 452 350 452 410 c 256
 452 459 424 477 367 486 c 257
 420 495 438 517 438 553 c 256
 438 607 389 642 308 642 c 256
EndSplineSet
PickledDataWithLists: "(dp1
S'com.typemytype.robofont.layerData'
p2
(dp3
s."
EndChar
StartChar: acute
Encoding: 175 180 175
GlifName: acute
Width: 600
VWidth: 0
Flags: W
LayerCount: 2
Back
Fore
SplineSet
370 785 m 257
 185 670 l 257
 213 624 l 257
 414 714 l 257
 370 785 l 257
EndSplineSet
PickledDataWithLists: "(dp1
S'com.typemytype.robofont.layerData'
p2
(dp3
s."
EndChar
StartChar: uni00B5
Encoding: 680 181 680
GlifName: uni00B5_
Width: 600
VWidth: 0
Flags: W
LayerCount: 2
Back
Fore
SplineSet
483 167 m 258
 483 526 l 257
 400 526 l 257
 400 142 l 257
 370 100 324 62 261 62 c 256
 180 62 172 126 172 231 c 258
 172 526 l 257
 89 526 l 257
 89 -212 l 257
 172 -202 l 257
 172 -48 l 258
 172 -27 168 3 163 39 c 257
 189 2 213 -12 267 -12 c 256
 320 -12 377 22 408 73 c 257
 411 48 422 6 433 -12 c 257
 511 0 l 257
 498 40 483 98 483 167 c 258
EndSplineSet
PickledDataWithLists: "(dp1
S'com.typemytype.robofont.layerData'
p2
(dp3
s."
EndChar
StartChar: paragraph
Encoding: 535 182 535
GlifName: paragraph
Width: 600
VWidth: 0
Flags: W
LayerCount: 2
Back
Fore
SplineSet
556 -201 m 257
 556 688 l 257
 297 688 l 258
 130 688 43 600 43 487 c 256
 43 378 126 289 291 289 c 257
 291 -212 l 257
 367 -201 l 257
 367 619 l 257
 480 619 l 257
 480 -212 l 257
 556 -201 l 257
EndSplineSet
PickledDataWithLists: "(dp1
S'com.typemytype.robofont.layerData'
p2
(dp3
s."
EndChar
StartChar: onesuperior
Encoding: 528 185 528
GlifName: onesuperior
Width: 600
VWidth: 0
Flags: W
LayerCount: 2
Back
Fore
SplineSet
365 554 m 257
 365 315 l 257
 434 315 l 257
 434 636 l 257
 378 636 l 257
 234 551 l 257
 269 502 l 257
 365 554 l 257
EndSplineSet
PickledDataWithLists: "(dp1
S'com.typemytype.robofont.layerData'
p2
(dp3
s."
EndChar
StartChar: ordmasculine
Encoding: 530 186 530
GlifName: ordmasculine
Width: 600
VWidth: 0
Flags: W
LayerCount: 2
Back
Fore
SplineSet
300 749 m 256
 177 749 96 659 96 529 c 256
 96 395 176 307 300 307 c 256
 423 307 503 398 503 529 c 256
 503 663 424 749 300 749 c 256
300 685 m 256
 374 685 419 635 419 529 c 256
 419 421 374 371 300 371 c 256
 226 371 179 421 179 529 c 256
 179 635 226 685 300 685 c 256
497 0 m 257
 497 75 l 257
 104 75 l 257
 104 0 l 257
 497 0 l 257
EndSplineSet
PickledDataWithLists: "(dp1
S'com.typemytype.robofont.layerData'
p2
(dp3
s."
EndChar
StartChar: guillemotright
Encoding: 388 187 388
GlifName: guillemotright
Width: 600
VWidth: 0
Flags: W
LayerCount: 2
Back
Fore
SplineSet
289 500 m 257
 425 294 l 257
 289 88 l 257
 339 56 l 257
 516 263 l 257
 516 323 l 257
 339 532 l 257
 289 500 l 257
83 500 m 257
 218 294 l 257
 83 88 l 257
 133 56 l 257
 308 263 l 257
 308 323 l 257
 133 532 l 257
 83 500 l 257
EndSplineSet
PickledDataWithLists: "(dp1
S'com.typemytype.robofont.layerData'
p2
(dp3
s."
EndChar
StartChar: onequarter
Encoding: 527 188 527
GlifName: onequarter
Width: 600
VWidth: 0
Flags: W
LayerCount: 2
Back
Fore
SplineSet
130 607 m 257
 130 368 l 257
 199 368 l 257
 199 689 l 257
 143 689 l 257
 -1 604 l 257
 34 555 l 257
 130 607 l 257
14 237 m 257
 45 184 l 257
 579 440 l 257
 549 493 l 257
 14 237 l 257
546 0 m 257
 546 56 l 257
 601 56 l 257
 601 115 l 257
 546 115 l 257
 546 201 l 257
 479 201 l 257
 473 115 l 257
 376 115 l 257
 491 306 l 257
 431 331 l 257
 295 104 l 257
 295 56 l 257
 473 56 l 257
 473 0 l 257
 546 0 l 257
EndSplineSet
PickledDataWithLists: "(dp1
S'com.typemytype.robofont.layerData'
p2
(dp3
s."
EndChar
StartChar: onehalf
Encoding: 525 189 525
GlifName: onehalf
Width: 600
VWidth: 0
Flags: W
LayerCount: 2
Back
Fore
SplineSet
127 607 m 257
 127 368 l 257
 196 368 l 257
 196 689 l 257
 140 689 l 257
 -4 604 l 257
 31 555 l 257
 127 607 l 257
10 237 m 257
 41 184 l 257
 575 440 l 257
 545 493 l 257
 10 237 l 257
594 221 m 256
 594 284 547 327 461 327 c 256
 405 327 353 303 313 256 c 257
 364 218 l 257
 394 254 426 267 459 267 c 256
 497 267 519 248 519 218 c 256
 519 174 478 150 319 52 c 257
 319 0 l 257
 596 0 l 257
 604 60 l 257
 425 60 l 257
 551 123 594 157 594 221 c 256
EndSplineSet
PickledDataWithLists: "(dp1
S'com.typemytype.robofont.layerData'
p2
(dp3
s."
EndChar
StartChar: threequarters
Encoding: 650 190 650
GlifName: threequarters
Width: 600
VWidth: 0
Flags: W
LayerCount: 2
Back
Fore
SplineSet
24 237 m 257
 54 184 l 257
 588 440 l 257
 559 493 l 257
 24 237 l 257
158 695 m 256
 106 695 56 681 10 643 c 257
 48 602 l 257
 83 628 117 640 153 640 c 256
 194 640 215 625 215 596 c 256
 215 566 191 555 151 555 c 258
 117 555 l 257
 109 512 l 257
 155 512 l 258
 203 512 227 499 227 465 c 256
 227 437 203 418 151 418 c 256
 113 418 74 431 43 458 c 257
 -3 420 l 257
 39 378 95 362 148 362 c 256
 246 362 302 403 302 463 c 256
 302 512 274 530 217 539 c 257
 270 548 288 570 288 606 c 256
 288 660 239 695 158 695 c 256
547 0 m 257
 547 56 l 257
 603 56 l 257
 603 115 l 257
 547 115 l 257
 547 201 l 257
 481 201 l 257
 475 115 l 257
 378 115 l 257
 493 306 l 257
 432 331 l 257
 296 104 l 257
 296 56 l 257
 475 56 l 257
 475 0 l 257
 547 0 l 257
EndSplineSet
PickledDataWithLists: "(dp1
S'com.typemytype.robofont.layerData'
p2
(dp3
s."
EndChar
StartChar: questiondown
Encoding: 571 191 571
GlifName: questiondown
Width: 600
VWidth: 0
Flags: W
LayerCount: 2
Back
Fore
SplineSet
324 498 m 256
 286 498 258 469 258 431 c 256
 258 395 286 365 324 365 c 256
 361 365 391 395 391 431 c 256
 391 469 361 498 324 498 c 256
369 222 m 258
 369 261 l 257
 286 261 l 257
 286 226 l 258
 286 80 105 102 105 -57 c 256
 105 -136 180 -212 302 -212 c 256
 382 -212 453 -181 512 -113 c 257
 453 -69 l 257
 411 -120 358 -142 311 -142 c 256
 243 -142 192 -110 192 -52 c 256
 192 61 369 60 369 222 c 258
EndSplineSet
PickledDataWithLists: "(dp1
S'com.typemytype.robofont.layerData'
p2
(dp3
s."
EndChar
StartChar: Acircumflex
Encoding: 6 194 6
GlifName: Acircumflex_
Width: 600
VWidth: 0
Flags: W
LayerCount: 2
Back
Fore
SplineSet
463 803 m 257
 329 910 l 257
 273 910 l 257
 137 803 l 257
 175 760 l 257
 300 841 l 257
 426 760 l 257
 463 803 l 257
412 247 m 257
 183 247 l 257
 298 616 l 257
 412 247 l 257
161 176 m 257
 434 176 l 257
 489 0 l 257
 579 0 l 257
 355 688 l 257
 245 688 l 257
 21 0 l 257
 105 0 l 257
 161 176 l 257
EndSplineSet
PickledDataWithLists: "(dp1
S'com.typemytype.robofont.layerData'
p2
(dp3
s."
EndChar
StartChar: Atilde
Encoding: 14 195 14
GlifName: Atilde_
Width: 600
VWidth: 0
Flags: W
LayerCount: 2
Back
Fore
SplineSet
351 771 m 256
 408 771 442 812 462 856 c 257
 408 880 l 257
 392 852 379 836 357 836 c 256
 326 836 307 884 248 884 c 256
 191 884 157 845 137 800 c 257
 191 776 l 257
 207 804 220 820 242 820 c 256
 273 820 294 771 351 771 c 256
412 247 m 257
 183 247 l 257
 298 616 l 257
 412 247 l 257
161 176 m 257
 434 176 l 257
 489 0 l 257
 579 0 l 257
 355 688 l 257
 245 688 l 257
 21 0 l 257
 105 0 l 257
 161 176 l 257
EndSplineSet
PickledDataWithLists: "(dp1
S'com.typemytype.robofont.layerData'
p2
(dp3
s."
EndChar
StartChar: Aring
Encoding: 13 197 13
GlifName: Aring_
Width: 600
VWidth: 0
Flags: W
LayerCount: 2
Back
Fore
SplineSet
300 942 m 256
 236 942 189 897 189 839 c 256
 189 783 236 738 300 738 c 256
 364 738 411 783 411 839 c 256
 411 897 364 942 300 942 c 256
300 896 m 256
 334 896 354 875 354 839 c 256
 354 804 334 783 300 783 c 256
 267 783 246 804 246 839 c 256
 246 875 267 896 300 896 c 256
412 247 m 257
 183 247 l 257
 298 616 l 257
 412 247 l 257
161 176 m 257
 434 176 l 257
 489 0 l 257
 579 0 l 257
 355 688 l 257
 245 688 l 257
 21 0 l 257
 105 0 l 257
 161 176 l 257
EndSplineSet
PickledDataWithLists: "(dp1
S'com.typemytype.robofont.layerData'
p2
(dp3
s."
EndChar
StartChar: AE
Encoding: 2 198 2
GlifName: AE_
Width: 600
VWidth: 0
Flags: W
LayerCount: 2
Back
Fore
SplineSet
314 248 m 257
 148 248 l 257
 240 621 l 257
 314 248 l 257
125 176 m 257
 330 176 l 257
 366 0 l 257
 608 0 l 257
 608 70 l 257
 436 70 l 257
 384 314 l 257
 557 314 l 257
 557 384 l 257
 371 384 l 257
 319 618 l 257
 556 618 l 257
 566 688 l 257
 190 688 l 257
 -12 0 l 257
 76 0 l 257
 125 176 l 257
EndSplineSet
PickledDataWithLists: "(dp1
S'com.typemytype.robofont.layerData'
p2
(dp3
s."
EndChar
StartChar: Ccedilla
Encoding: 22 199 22
GlifName: Ccedilla_
Width: 600
VWidth: 0
Flags: W
LayerCount: 2
Back
Fore
SplineSet
370 -57 m 257
 370 -11 l 257
 464 -9 527 24 567 63 c 257
 523 120 l 257
 486 90 440 62 363 62 c 256
 245 62 153 139 153 345 c 256
 153 556 251 628 364 628 c 256
 417 628 465 613 509 577 c 257
 557 633 l 257
 503 676 448 700 358 700 c 256
 199 700 64 577 64 345 c 256
 64 137 168 16 311 -7 c 257
 304 -97 l 257
 357 -97 391 -104 391 -140 c 256
 391 -170 366 -182 331 -182 c 256
 309 -182 282 -176 263 -166 c 257
 236 -214 l 257
 262 -229 301 -238 341 -238 c 256
 405 -238 462 -206 462 -140 c 256
 462 -101 435 -63 370 -57 c 257
EndSplineSet
PickledDataWithLists: "(dp1
S'com.typemytype.robofont.layerData'
p2
(dp3
s."
EndChar
StartChar: Egrave
Encoding: 37 200 37
GlifName: Egrave_
Width: 600
VWidth: 0
Flags: W
LayerCount: 2
Back
Fore
SplineSet
437 800 m 257
 252 909 l 257
 206 837 l 257
 411 756 l 257
 437 800 l 257
212 385 m 257
 212 618 l 257
 506 618 l 257
 516 688 l 257
 126 688 l 257
 126 0 l 257
 525 0 l 257
 525 69 l 257
 212 69 l 257
 212 314 l 257
 467 314 l 257
 467 385 l 257
 212 385 l 257
EndSplineSet
PickledDataWithLists: "(dp1
S'com.typemytype.robofont.layerData'
p2
(dp3
s."
EndChar
StartChar: Ecircumflex
Encoding: 34 202 34
GlifName: Ecircumflex_
Width: 600
VWidth: 0
Flags: W
LayerCount: 2
Back
Fore
SplineSet
484 803 m 257
 350 910 l 257
 294 910 l 257
 158 803 l 257
 196 760 l 257
 321 841 l 257
 447 760 l 257
 484 803 l 257
212 385 m 257
 212 618 l 257
 506 618 l 257
 516 688 l 257
 126 688 l 257
 126 0 l 257
 525 0 l 257
 525 69 l 257
 212 69 l 257
 212 314 l 257
 467 314 l 257
 467 385 l 257
 212 385 l 257
EndSplineSet
PickledDataWithLists: "(dp1
S'com.typemytype.robofont.layerData'
p2
(dp3
s."
EndChar
StartChar: Edieresis
Encoding: 35 203 35
GlifName: Edieresis_
Width: 600
VWidth: 0
Flags: W
LayerCount: 2
Back
Fore
SplineSet
423 767 m 256
 455 767 478 790 478 820 c 256
 478 851 455 874 423 874 c 256
 393 874 370 851 370 820 c 256
 370 790 393 767 423 767 c 256
217 767 m 256
 247 767 271 790 271 820 c 256
 271 851 247 874 217 874 c 256
 186 874 163 851 163 820 c 256
 163 790 186 767 217 767 c 256
212 385 m 257
 212 618 l 257
 506 618 l 257
 516 688 l 257
 126 688 l 257
 126 0 l 257
 525 0 l 257
 525 69 l 257
 212 69 l 257
 212 314 l 257
 467 314 l 257
 467 385 l 257
 212 385 l 257
EndSplineSet
PickledDataWithLists: "(dp1
S'com.typemytype.robofont.layerData'
p2
(dp3
s."
EndChar
StartChar: Iacute
Encoding: 63 205 63
GlifName: Iacute_
Width: 600
VWidth: 0
Flags: W
LayerCount: 2
Back
Fore
SplineSet
420 834 m 257
 383 905 l 257
 185 800 l 257
 207 756 l 257
 420 834 l 257
497 620 m 257
 497 688 l 257
 103 688 l 257
 103 620 l 257
 257 620 l 257
 257 69 l 257
 103 69 l 257
 103 0 l 257
 497 0 l 257
 497 69 l 257
 343 69 l 257
 343 620 l 257
 497 620 l 257
EndSplineSet
PickledDataWithLists: "(dp1
S'com.typemytype.robofont.layerData'
p2
(dp3
s."
EndChar
StartChar: Icircumflex
Encoding: 65 206 65
GlifName: Icircumflex_
Width: 600
VWidth: 0
Flags: W
LayerCount: 2
Back
Fore
SplineSet
463 803 m 257
 329 910 l 257
 273 910 l 257
 137 803 l 257
 175 760 l 257
 300 841 l 257
 426 760 l 257
 463 803 l 257
497 620 m 257
 497 688 l 257
 103 688 l 257
 103 620 l 257
 257 620 l 257
 257 69 l 257
 103 69 l 257
 103 0 l 257
 497 0 l 257
 497 69 l 257
 343 69 l 257
 343 620 l 257
 497 620 l 257
EndSplineSet
PickledDataWithLists: "(dp1
S'com.typemytype.robofont.layerData'
p2
(dp3
s."
EndChar
StartChar: Eth
Encoding: 45 208 45
GlifName: Eth_
Width: 600
VWidth: 0
Flags: W
LayerCount: 2
Back
Fore
SplineSet
240 688 m 258
 93 688 l 257
 93 386 l 257
 20 386 l 257
 20 320 l 257
 93 320 l 257
 93 0 l 257
 251 0 l 258
 393 0 562 59 562 348 c 256
 562 634 401 688 240 688 c 258
262 69 m 258
 179 69 l 257
 179 320 l 257
 338 320 l 257
 338 386 l 257
 179 386 l 257
 179 618 l 257
 261 618 l 258
 356 618 470 588 470 348 c 256
 470 119 361 69 262 69 c 258
EndSplineSet
PickledDataWithLists: "(dp1
S'com.typemytype.robofont.layerData'
p2
(dp3
s."
EndChar
StartChar: Ntilde
Encoding: 94 209 94
GlifName: Ntilde_
Width: 600
VWidth: 0
Flags: W
LayerCount: 2
Back
Fore
SplineSet
349 771 m 256
 406 771 440 812 460 856 c 257
 406 880 l 257
 390 852 377 836 355 836 c 256
 324 836 305 884 246 884 c 256
 189 884 155 845 135 800 c 257
 189 776 l 257
 205 804 218 820 240 820 c 256
 271 820 292 771 349 771 c 256
156 589 m 257
 396 0 l 257
 516 0 l 257
 516 688 l 257
 436 688 l 257
 436 343 l 258
 436 219 447 108 448 96 c 257
 444 96 l 257
 200 688 l 257
 84 688 l 257
 84 0 l 257
 164 0 l 257
 164 346 l 258
 164 452 153 576 152 589 c 257
 156 589 l 257
EndSplineSet
PickledDataWithLists: "(dp1
S'com.typemytype.robofont.layerData'
p2
(dp3
s."
EndChar
StartChar: Ograve
Encoding: 103 210 103
GlifName: Ograve_
Width: 600
VWidth: 0
Flags: W
LayerCount: 2
Back
Fore
SplineSet
416 800 m 257
 231 909 l 257
 185 837 l 257
 390 756 l 257
 416 800 l 257
553 344 m 256
 553 556 467 700 300 700 c 256
 133 700 47 551 47 342 c 256
 47 130 133 -11 300 -11 c 256
 467 -11 553 135 553 344 c 256
464 344 m 256
 464 160 416 61 300 61 c 256
 187 61 136 159 136 342 c 256
 136 526 183 627 300 627 c 256
 417 627 464 527 464 344 c 256
EndSplineSet
PickledDataWithLists: "(dp1
S'com.typemytype.robofont.layerData'
p2
(dp3
s."
EndChar
StartChar: Ocircumflex
Encoding: 101 212 101
GlifName: Ocircumflex_
Width: 600
VWidth: 0
Flags: W
LayerCount: 2
Back
Fore
SplineSet
463 803 m 257
 329 910 l 257
 273 910 l 257
 137 803 l 257
 175 760 l 257
 300 841 l 257
 426 760 l 257
 463 803 l 257
553 344 m 256
 553 556 467 700 300 700 c 256
 133 700 47 551 47 342 c 256
 47 130 133 -11 300 -11 c 256
 467 -11 553 135 553 344 c 256
464 344 m 256
 464 160 416 61 300 61 c 256
 187 61 136 159 136 342 c 256
 136 526 183 627 300 627 c 256
 417 627 464 527 464 344 c 256
EndSplineSet
PickledDataWithLists: "(dp1
S'com.typemytype.robofont.layerData'
p2
(dp3
s."
EndChar
StartChar: Otilde
Encoding: 112 213 112
GlifName: Otilde_
Width: 600
VWidth: 0
Flags: W
LayerCount: 2
Back
Fore
SplineSet
351 771 m 256
 408 771 442 812 462 856 c 257
 408 880 l 257
 392 852 379 836 357 836 c 256
 326 836 307 884 248 884 c 256
 191 884 157 845 137 800 c 257
 191 776 l 257
 207 804 220 820 242 820 c 256
 273 820 294 771 351 771 c 256
553 344 m 256
 553 556 467 700 300 700 c 256
 133 700 47 551 47 342 c 256
 47 130 133 -11 300 -11 c 256
 467 -11 553 135 553 344 c 256
464 344 m 256
 464 160 416 61 300 61 c 256
 187 61 136 159 136 342 c 256
 136 526 183 627 300 627 c 256
 417 627 464 527 464 344 c 256
EndSplineSet
PickledDataWithLists: "(dp1
S'com.typemytype.robofont.layerData'
p2
(dp3
s."
EndChar
StartChar: multiply
Encoding: 476 215 476
GlifName: multiply
Width: 600
VWidth: 0
Flags: W
LayerCount: 2
Back
Fore
SplineSet
475 430 m 257
 423 483 l 257
 300 359 l 257
 177 483 l 257
 125 430 l 257
 248 307 l 257
 125 184 l 257
 177 132 l 257
 300 255 l 257
 423 132 l 257
 475 184 l 257
 352 307 l 257
 475 430 l 257
EndSplineSet
PickledDataWithLists: "(dp1
S'com.typemytype.robofont.layerData'
p2
(dp3
s."
EndChar
StartChar: Udieresis
Encoding: 142 220 142
GlifName: Udieresis_
Width: 600
VWidth: 0
Flags: W
LayerCount: 2
Back
Fore
SplineSet
402 767 m 256
 434 767 457 790 457 820 c 256
 457 851 434 874 402 874 c 256
 372 874 349 851 349 820 c 256
 349 790 372 767 402 767 c 256
196 767 m 256
 226 767 250 790 250 820 c 256
 250 851 226 874 196 874 c 256
 165 874 142 851 142 820 c 256
 142 790 165 767 196 767 c 256
527 223 m 258
 527 688 l 257
 441 688 l 257
 441 219 l 258
 441 114 389 63 299 63 c 256
 210 63 158 114 158 219 c 258
 158 688 l 257
 73 688 l 257
 73 223 l 258
 73 84 158 -11 299 -11 c 256
 438 -11 527 83 527 223 c 258
EndSplineSet
PickledDataWithLists: "(dp1
S'com.typemytype.robofont.layerData'
p2
(dp3
s."
EndChar
StartChar: Thorn
Encoding: 137 222 137
GlifName: Thorn_
Width: 600
VWidth: 0
Flags: W
LayerCount: 2
Back
Fore
SplineSet
193 572 m 257
 193 688 l 257
 108 688 l 257
 108 0 l 257
 193 0 l 257
 193 128 l 257
 292 128 l 258
 446 128 555 194 555 355 c 256
 555 504 458 572 293 572 c 258
 193 572 l 257
193 504 m 257
 303 504 l 258
 399 504 465 461 465 353 c 256
 465 232 398 197 304 197 c 258
 193 197 l 257
 193 504 l 257
EndSplineSet
PickledDataWithLists: "(dp1
S'com.typemytype.robofont.layerData'
p2
(dp3
s."
EndChar
StartChar: germandbls
Encoding: 375 223 375
GlifName: germandbls
Width: 600
VWidth: 0
Flags: W
LayerCount: 2
Back
Fore
SplineSet
297 749 m 256
 172 749 96 675 96 533 c 258
 96 0 l 257
 179 0 l 257
 179 539 l 258
 179 643 221 682 296 682 c 256
 369 682 391 634 391 597 c 256
 391 523 274 514 274 419 c 256
 274 288 473 291 473 162 c 256
 473 91 431 56 364 56 c 256
 335 56 301 66 276 80 c 257
 242 23 l 257
 277 1 318 -11 371 -11 c 256
 472 -11 558 51 558 167 c 256
 558 335 356 341 356 429 c 256
 356 491 470 507 470 605 c 256
 470 690 399 749 297 749 c 256
EndSplineSet
PickledDataWithLists: "(dp1
S'com.typemytype.robofont.layerData'
p2
(dp3
s."
EndChar
StartChar: acircumflex
Encoding: 174 226 174
GlifName: acircumflex
Width: 600
VWidth: 0
Flags: W
LayerCount: 2
Back
Fore
SplineSet
129 670 m 257
 169 629 l 257
 293 720 l 257
 417 629 l 257
 455 670 l 257
 321 789 l 257
 265 789 l 257
 129 670 l 257
477 114 m 258
 477 368 l 258
 477 472 411 538 280 538 c 256
 229 538 173 528 109 504 c 257
 131 442 l 257
 185 461 233 468 268 468 c 256
 346 468 393 440 393 364 c 258
 393 320 l 257
 316 320 l 258
 156 320 69 259 69 151 c 256
 69 53 133 -11 239 -11 c 256
 307 -11 366 14 404 63 c 257
 419 16 455 -6 500 -12 c 257
 520 47 l 257
 491 56 477 72 477 114 c 258
260 52 m 256
 191 52 158 86 158 152 c 256
 158 220 200 263 317 263 c 258
 393 263 l 257
 393 127 l 257
 362 79 312 52 260 52 c 256
EndSplineSet
PickledDataWithLists: "(dp1
S'com.typemytype.robofont.layerData'
p2
(dp3
s."
EndChar
StartChar: aring
Encoding: 192 229 192
GlifName: aring
Width: 600
VWidth: 0
Flags: W
LayerCount: 2
Back
Fore
SplineSet
292 823 m 256
 228 823 181 778 181 720 c 256
 181 664 228 619 292 619 c 256
 356 619 403 664 403 720 c 256
 403 778 356 823 292 823 c 256
292 777 m 256
 326 777 346 756 346 720 c 256
 346 685 326 664 292 664 c 256
 259 664 238 685 238 720 c 256
 238 756 259 777 292 777 c 256
477 114 m 258
 477 368 l 258
 477 472 411 538 280 538 c 256
 229 538 173 528 109 504 c 257
 131 442 l 257
 185 461 233 468 268 468 c 256
 346 468 393 440 393 364 c 258
 393 320 l 257
 316 320 l 258
 156 320 69 259 69 151 c 256
 69 53 133 -11 239 -11 c 256
 307 -11 366 14 404 63 c 257
 419 16 455 -6 500 -12 c 257
 520 47 l 257
 491 56 477 72 477 114 c 258
260 52 m 256
 191 52 158 86 158 152 c 256
 158 220 200 263 317 263 c 258
 393 263 l 257
 393 127 l 257
 362 79 312 52 260 52 c 256
EndSplineSet
PickledDataWithLists: "(dp1
S'com.typemytype.robofont.layerData'
p2
(dp3
s."
EndChar
StartChar: ae
Encoding: 181 230 181
GlifName: ae
Width: 600
VWidth: 0
Flags: W
LayerCount: 2
Back
Fore
SplineSet
435 538 m 256
 371 538 327 504 309 450 c 257
 288 503 251 538 171 538 c 256
 128 538 80 525 36 504 c 257
 58 441 l 257
 102 460 127 468 163 468 c 256
 221 468 254 437 254 364 c 258
 254 320 l 257
 208 320 l 258
 68 320 -6 260 -6 151 c 256
 -6 53 53 -11 146 -11 c 256
 213 -11 253 16 299 78 c 257
 332 21 377 -11 447 -11 c 256
 504 -11 546 9 586 41 c 257
 548 98 l 257
 514 73 487 59 448 59 c 256
 378 59 344 113 335 233 c 257
 605 233 l 257
 606 245 607 261 607 279 c 256
 607 440 554 538 435 538 c 256
432 468 m 256
 501 468 523 409 525 298 c 257
 335 298 l 257
 344 424 372 468 432 468 c 256
211 263 m 258
 254 263 l 257
 254 221 258 183 268 150 c 257
 232 86 203 53 158 53 c 256
 114 53 84 88 84 156 c 256
 84 220 115 263 211 263 c 258
EndSplineSet
PickledDataWithLists: "(dp1
S'com.typemytype.robofont.layerData'
p2
(dp3
s."
EndChar
StartChar: ccedilla
Encoding: 249 231 249
GlifName: ccedilla
Width: 600
VWidth: 0
Flags: W
LayerCount: 2
Back
Fore
SplineSet
359 -57 m 257
 359 -10 l 257
 415 -5 475 17 516 52 c 257
 476 110 l 257
 437 79 392 60 338 60 c 256
 248 60 182 120 182 261 c 256
 182 400 247 468 338 468 c 256
 385 468 429 452 473 419 c 257
 515 476 l 257
 465 517 407 538 339 538 c 256
 182 538 92 419 92 261 c 256
 92 110 167 7 300 -9 c 257
 293 -97 l 257
 346 -97 380 -104 380 -140 c 256
 380 -170 355 -182 320 -182 c 256
 298 -182 271 -176 252 -166 c 257
 225 -214 l 257
 251 -229 290 -238 330 -238 c 256
 394 -238 451 -206 451 -140 c 256
 451 -101 424 -63 359 -57 c 257
EndSplineSet
PickledDataWithLists: "(dp1
S'com.typemytype.robofont.layerData'
p2
(dp3
s."
EndChar
StartChar: eacute
Encoding: 297 233 297
GlifName: eacute
Width: 600
VWidth: 0
Flags: W
LayerCount: 2
Back
Fore
SplineSet
380 785 m 257
 195 670 l 257
 223 624 l 257
 424 714 l 257
 380 785 l 257
166 234 m 257
 520 234 l 257
 521 245 522 261 522 279 c 256
 522 439 441 538 305 538 c 256
 169 538 79 422 79 263 c 256
 79 99 166 -11 320 -11 c 256
 385 -11 451 12 500 50 c 257
 461 107 l 257
 415 70 368 58 320 58 c 256
 239 58 170 111 166 234 c 257
306 469 m 256
 389 469 440 411 442 298 c 257
 166 298 l 257
 173 414 231 469 306 469 c 256
EndSplineSet
PickledDataWithLists: "(dp1
S'com.typemytype.robofont.layerData'
p2
(dp3
s."
EndChar
StartChar: igrave
Encoding: 413 236 413
GlifName: igrave
Width: 600
VWidth: 0
Flags: W
LayerCount: 2
Back
Fore
SplineSet
186 715 m 257
 388 624 l 257
 415 670 l 257
 230 787 l 257
 186 715 l 257
367 66 m 257
 367 526 l 257
 126 526 l 257
 126 461 l 257
 284 461 l 257
 284 66 l 257
 121 66 l 257
 121 0 l 257
 515 0 l 257
 515 66 l 257
 367 66 l 257
EndSplineSet
PickledDataWithLists: "(dp1
S'com.typemytype.robofont.layerData'
p2
(dp3
s."
EndChar
StartChar: iacute
Encoding: 409 237 409
GlifName: iacute
Width: 600
VWidth: 0
Flags: W
LayerCount: 2
Back
Fore
SplineSet
371 785 m 257
 186 670 l 257
 214 624 l 257
 415 714 l 257
 371 785 l 257
367 66 m 257
 367 526 l 257
 126 526 l 257
 126 461 l 257
 284 461 l 257
 284 66 l 257
 121 66 l 257
 121 0 l 257
 515 0 l 257
 515 66 l 257
 367 66 l 257
EndSplineSet
PickledDataWithLists: "(dp1
S'com.typemytype.robofont.layerData'
p2
(dp3
s."
EndChar
StartChar: icircumflex
Encoding: 411 238 411
GlifName: icircumflex
Width: 600
VWidth: 0
Flags: W
LayerCount: 2
Back
Fore
SplineSet
138 670 m 257
 178 629 l 257
 302 720 l 257
 426 629 l 257
 464 670 l 257
 330 789 l 257
 274 789 l 257
 138 670 l 257
367 66 m 257
 367 526 l 257
 126 526 l 257
 126 461 l 257
 284 461 l 257
 284 66 l 257
 121 66 l 257
 121 0 l 257
 515 0 l 257
 515 66 l 257
 367 66 l 257
EndSplineSet
PickledDataWithLists: "(dp1
S'com.typemytype.robofont.layerData'
p2
(dp3
s."
EndChar
StartChar: eth
Encoding: 337 240 337
GlifName: eth
Width: 600
VWidth: 0
Flags: W
LayerCount: 2
Back
Fore
SplineSet
251 647 m 257
 170 562 l 257
 229 532 l 257
 308 613 l 257
 372 566 420 497 438 412 c 257
 400 456 348 481 280 481 c 256
 166 481 67 383 67 235 c 256
 67 77 169 -11 295 -11 c 256
 438 -11 532 95 532 263 c 256
 532 455 478 583 360 665 c 257
 422 729 l 257
 371 773 l 257
 302 699 l 257
 261 721 211 736 152 749 c 257
 134 683 l 257
 181 674 218 663 251 647 c 257
448 267 m 256
 448 128 388 56 294 56 c 256
 211 56 152 120 152 239 c 256
 152 361 217 414 290 414 c 256
 355 414 411 386 445 333 c 257
 447 312 448 291 448 267 c 256
EndSplineSet
PickledDataWithLists: "(dp1
S'com.typemytype.robofont.layerData'
p2
(dp3
s."
EndChar
StartChar: ntilde
Encoding: 495 241 495
GlifName: ntilde
Width: 600
VWidth: 0
Flags: W
LayerCount: 2
Back
Fore
SplineSet
351 654 m 256
 408 654 442 695 462 739 c 257
 408 763 l 257
 392 735 379 719 357 719 c 256
 326 719 307 767 248 767 c 256
 191 767 157 728 137 683 c 257
 191 659 l 257
 207 687 220 703 242 703 c 256
 273 703 294 654 351 654 c 256
101 526 m 257
 101 0 l 257
 184 0 l 257
 184 384 l 257
 211 425 264 472 327 472 c 256
 407 472 417 428 417 320 c 258
 417 0 l 257
 500 0 l 257
 500 382 l 258
 500 480 455 538 352 538 c 256
 290 538 221 507 178 453 c 257
 172 526 l 257
 101 526 l 257
EndSplineSet
PickledDataWithLists: "(dp1
S'com.typemytype.robofont.layerData'
p2
(dp3
s."
EndChar
StartChar: ocircumflex
Encoding: 508 244 508
GlifName: ocircumflex
Width: 600
VWidth: 0
Flags: W
LayerCount: 2
Back
Fore
SplineSet
137 670 m 257
 177 629 l 257
 301 720 l 257
 425 629 l 257
 463 670 l 257
 329 789 l 257
 273 789 l 257
 137 670 l 257
301 538 m 256
 153 538 74 425 74 263 c 256
 74 97 152 -11 300 -11 c 256
 447 -11 526 103 526 264 c 256
 526 430 449 538 301 538 c 256
301 470 m 256
 391 470 437 404 437 264 c 256
 437 123 391 57 300 57 c 256
 209 57 163 123 163 263 c 256
 163 404 210 470 301 470 c 256
EndSplineSet
PickledDataWithLists: "(dp1
S'com.typemytype.robofont.layerData'
p2
(dp3
s."
EndChar
StartChar: otilde
Encoding: 533 245 533
GlifName: otilde
Width: 600
VWidth: 0
Flags: W
LayerCount: 2
Back
Fore
SplineSet
351 652 m 256
 408 652 442 693 462 737 c 257
 408 761 l 257
 392 733 379 717 357 717 c 256
 326 717 307 765 248 765 c 256
 191 765 157 726 137 681 c 257
 191 657 l 257
 207 685 220 701 242 701 c 256
 273 701 294 652 351 652 c 256
301 538 m 256
 153 538 74 425 74 263 c 256
 74 97 152 -11 300 -11 c 256
 447 -11 526 103 526 264 c 256
 526 430 449 538 301 538 c 256
301 470 m 256
 391 470 437 404 437 264 c 256
 437 123 391 57 300 57 c 256
 209 57 163 123 163 263 c 256
 163 404 210 470 301 470 c 256
EndSplineSet
PickledDataWithLists: "(dp1
S'com.typemytype.robofont.layerData'
p2
(dp3
s."
EndChar
StartChar: odieresis
Encoding: 509 246 509
GlifName: odieresis
Width: 600
VWidth: 0
Flags: W
LayerCount: 2
Back
Fore
SplineSet
402 648 m 256
 434 648 457 671 457 701 c 256
 457 732 434 755 402 755 c 256
 372 755 349 732 349 701 c 256
 349 671 372 648 402 648 c 256
196 648 m 256
 226 648 250 671 250 701 c 256
 250 732 226 755 196 755 c 256
 165 755 142 732 142 701 c 256
 142 671 165 648 196 648 c 256
301 538 m 256
 153 538 74 425 74 263 c 256
 74 97 152 -11 300 -11 c 256
 447 -11 526 103 526 264 c 256
 526 430 449 538 301 538 c 256
301 470 m 256
 391 470 437 404 437 264 c 256
 437 123 391 57 300 57 c 256
 209 57 163 123 163 263 c 256
 163 404 210 470 301 470 c 256
EndSplineSet
PickledDataWithLists: "(dp1
S'com.typemytype.robofont.layerData'
p2
(dp3
s."
EndChar
StartChar: divide
Encoding: 286 247 286
GlifName: divide
Width: 600
VWidth: 0
Flags: W
LayerCount: 2
Back
Fore
SplineSet
300 574 m 256
 263 574 233 544 233 508 c 256
 233 470 263 442 300 442 c 256
 337 442 367 470 367 508 c 256
 367 544 337 574 300 574 c 256
484 276 m 257
 484 347 l 257
 116 347 l 257
 116 276 l 257
 484 276 l 257
300 183 m 256
 263 183 233 153 233 116 c 256
 233 79 263 49 300 49 c 256
 337 49 367 79 367 116 c 256
 367 153 337 183 300 183 c 256
EndSplineSet
PickledDataWithLists: "(dp1
S'com.typemytype.robofont.layerData'
p2
(dp3
s."
EndChar
StartChar: oslash
Encoding: 531 248 531
GlifName: oslash
Width: 600
VWidth: 0
Flags: W
LayerCount: 2
Back
Fore
SplineSet
301 469 m 256
 313 469 324 468 334 466 c 257
 216 84 l 257
 181 114 163 171 163 263 c 256
 163 403 210 469 301 469 c 256
300 57 m 256
 288 57 277 58 267 60 c 257
 385 441 l 257
 419 411 437 355 437 264 c 256
 437 123 391 57 300 57 c 256
417 508 m 257
 458 634 l 257
 388 654 l 257
 350 533 l 257
 334 536 318 538 301 538 c 256
 153 538 74 425 74 263 c 256
 74 148 114 62 185 19 c 257
 143 -110 l 257
 213 -130 l 257
 250 -6 l 257
 266 -9 282 -11 300 -11 c 256
 447 -11 526 103 526 264 c 256
 526 378 487 465 417 508 c 257
EndSplineSet
PickledDataWithLists: "(dp1
S'com.typemytype.robofont.layerData'
p2
(dp3
s."
EndChar
StartChar: ugrave
Encoding: 674 249 674
GlifName: ugrave
Width: 600
VWidth: 0
Flags: W
LayerCount: 2
Back
Fore
SplineSet
185 715 m 257
 387 624 l 257
 414 670 l 257
 229 787 l 257
 185 715 l 257
184 153 m 258
 184 526 l 257
 101 526 l 257
 101 143 l 258
 101 46 151 -11 253 -11 c 256
 314 -11 380 18 421 71 c 257
 428 0 l 257
 499 0 l 257
 499 526 l 257
 416 526 l 257
 416 139 l 257
 388 94 331 55 273 55 c 256
 212 55 184 84 184 153 c 258
EndSplineSet
PickledDataWithLists: "(dp1
S'com.typemytype.robofont.layerData'
p2
(dp3
s."
EndChar
StartChar: uacute
Encoding: 670 250 670
GlifName: uacute
Width: 600
VWidth: 0
Flags: W
LayerCount: 2
Back
Fore
SplineSet
370 785 m 257
 185 670 l 257
 213 624 l 257
 414 714 l 257
 370 785 l 257
184 153 m 258
 184 526 l 257
 101 526 l 257
 101 143 l 258
 101 46 151 -11 253 -11 c 256
 314 -11 380 18 421 71 c 257
 428 0 l 257
 499 0 l 257
 499 526 l 257
 416 526 l 257
 416 139 l 257
 388 94 331 55 273 55 c 256
 212 55 184 84 184 153 c 258
EndSplineSet
PickledDataWithLists: "(dp1
S'com.typemytype.robofont.layerData'
p2
(dp3
s."
EndChar
StartChar: udieresis
Encoding: 673 252 673
GlifName: udieresis
Width: 600
VWidth: 0
Flags: W
LayerCount: 2
Back
Fore
SplineSet
402 648 m 256
 434 648 457 671 457 701 c 256
 457 732 434 755 402 755 c 256
 372 755 349 732 349 701 c 256
 349 671 372 648 402 648 c 256
196 648 m 256
 226 648 250 671 250 701 c 256
 250 732 226 755 196 755 c 256
 165 755 142 732 142 701 c 256
 142 671 165 648 196 648 c 256
184 153 m 258
 184 526 l 257
 101 526 l 257
 101 143 l 258
 101 46 151 -11 253 -11 c 256
 314 -11 380 18 421 71 c 257
 428 0 l 257
 499 0 l 257
 499 526 l 257
 416 526 l 257
 416 139 l 257
 388 94 331 55 273 55 c 256
 212 55 184 84 184 153 c 258
EndSplineSet
PickledDataWithLists: "(dp1
S'com.typemytype.robofont.layerData'
p2
(dp3
s."
EndChar
StartChar: yacute
Encoding: 1163 253 1163
GlifName: yacute
Width: 600
VWidth: 0
Flags: W
LayerCount: 2
Back
Fore
SplineSet
370 785 m 257
 185 670 l 257
 213 624 l 257
 414 714 l 257
 370 785 l 257
353 -3 m 258
 538 526 l 257
 452 526 l 257
 303 63 l 257
 151 526 l 257
 62 526 l 257
 246 0 l 257
 274 0 l 257
 246 -82 215 -126 106 -145 c 257
 119 -212 l 257
 258 -197 316 -110 353 -3 c 258
EndSplineSet
PickledDataWithLists: "(dp1
S'com.typemytype.robofont.layerData'
p2
(dp3
s."
EndChar
StartChar: thorn
Encoding: 643 254 643
GlifName: thorn
Width: 600
VWidth: 0
Flags: W
LayerCount: 2
Back
Fore
SplineSet
316 471 m 256
 399 471 437 402 437 264 c 256
 437 123 393 58 305 58 c 256
 255 58 211 83 184 124 c 257
 184 386 l 257
 212 428 257 471 316 471 c 256
184 461 m 257
 184 749 l 257
 101 739 l 257
 101 -212 l 257
 184 -202 l 257
 184 49 l 257
 219 9 266 -11 323 -11 c 256
 460 -11 526 104 526 264 c 256
 526 429 476 538 336 538 c 256
 276 538 222 511 184 461 c 257
EndSplineSet
PickledDataWithLists: "(dp1
S'com.typemytype.robofont.layerData'
p2
(dp3
s."
EndChar
StartChar: ydieresis
Encoding: 1165 255 1165
GlifName: ydieresis
Width: 600
VWidth: 0
Flags: W
LayerCount: 2
Back
Fore
SplineSet
402 648 m 256
 434 648 457 671 457 701 c 256
 457 732 434 755 402 755 c 256
 372 755 349 732 349 701 c 256
 349 671 372 648 402 648 c 256
196 648 m 256
 226 648 250 671 250 701 c 256
 250 732 226 755 196 755 c 256
 165 755 142 732 142 701 c 256
 142 671 165 648 196 648 c 256
353 -3 m 258
 538 526 l 257
 452 526 l 257
 303 63 l 257
 151 526 l 257
 62 526 l 257
 246 0 l 257
 274 0 l 257
 246 -82 215 -126 106 -145 c 257
 119 -212 l 257
 258 -197 316 -110 353 -3 c 258
EndSplineSet
PickledDataWithLists: "(dp1
S'com.typemytype.robofont.layerData'
p2
(dp3
s."
EndChar
StartChar: amacron
Encoding: 186 257 186
GlifName: amacron
Width: 600
VWidth: 0
Flags: W
LayerCount: 2
Back
Fore
SplineSet
157 676 m 257
 426 676 l 257
 426 740 l 257
 157 740 l 257
 157 676 l 257
477 114 m 258
 477 368 l 258
 477 472 411 538 280 538 c 256
 229 538 173 528 109 504 c 257
 131 442 l 257
 185 461 233 468 268 468 c 256
 346 468 393 440 393 364 c 258
 393 320 l 257
 316 320 l 258
 156 320 69 259 69 151 c 256
 69 53 133 -11 239 -11 c 256
 307 -11 366 14 404 63 c 257
 419 16 455 -6 500 -12 c 257
 520 47 l 257
 491 56 477 72 477 114 c 258
260 52 m 256
 191 52 158 86 158 152 c 256
 158 220 200 263 317 263 c 258
 393 263 l 257
 393 127 l 257
 362 79 312 52 260 52 c 256
EndSplineSet
PickledDataWithLists: "(dp1
S'com.typemytype.robofont.layerData'
p2
(dp3
s."
EndChar
StartChar: Aogonek
Encoding: 12 260 12
GlifName: Aogonek_
Width: 600
VWidth: 0
Flags: W
LayerCount: 2
Back
Fore
SplineSet
539 0 m 257
 579 0 l 257
 355 688 l 257
 245 688 l 257
 21 0 l 257
 105 0 l 257
 161 176 l 257
 434 176 l 257
 484 17 l 257
 383 -20 339 -69 339 -131 c 256
 339 -186 384 -229 460 -229 c 256
 487 -229 504 -226 524 -222 c 257
 532 -155 l 257
 507 -161 491 -162 470 -162 c 256
 429 -162 415 -144 415 -115 c 256
 415 -79 436 -46 539 0 c 257
412 247 m 257
 183 247 l 257
 298 616 l 257
 412 247 l 257
EndSplineSet
PickledDataWithLists: "(dp1
S'com.typemytype.robofont.layerData'
p2
(dp3
s."
EndChar
StartChar: aogonek
Encoding: 189 261 189
GlifName: aogonek
Width: 600
VWidth: 0
Flags: W
LayerCount: 2
Back
Fore
SplineSet
500 -12 m 257
 520 47 l 257
 491 56 477 72 477 114 c 258
 477 368 l 258
 477 472 411 538 280 538 c 256
 229 538 173 528 109 504 c 257
 131 442 l 257
 185 461 233 468 268 468 c 256
 346 468 393 440 393 364 c 258
 393 320 l 257
 316 320 l 258
 156 320 69 259 69 151 c 256
 69 53 133 -11 239 -11 c 256
 307 -11 366 14 404 63 c 257
 412 36 428 18 448 6 c 257
 345 -31 300 -80 300 -143 c 256
 300 -198 345 -241 421 -241 c 256
 448 -241 465 -238 485 -234 c 257
 493 -167 l 257
 468 -173 452 -174 431 -174 c 256
 390 -174 376 -156 376 -127 c 256
 376 -91 397 -58 500 -12 c 257
393 263 m 257
 393 127 l 257
 362 79 312 52 260 52 c 256
 191 52 158 86 158 152 c 256
 158 220 200 263 317 263 c 258
 393 263 l 257
EndSplineSet
PickledDataWithLists: "(dp1
S'com.typemytype.robofont.layerData'
p2
(dp3
s."
EndChar
StartChar: Ccircumflex
Encoding: 23 264 23
GlifName: Ccircumflex_
Width: 600
VWidth: 0
Flags: W
LayerCount: 2
Back
Fore
SplineSet
529 803 m 257
 395 910 l 257
 339 910 l 257
 203 803 l 257
 241 760 l 257
 366 841 l 257
 492 760 l 257
 529 803 l 257
358 700 m 256
 199 700 64 577 64 345 c 256
 64 113 194 -11 362 -11 c 256
 460 -11 526 23 567 63 c 257
 523 120 l 257
 486 90 440 62 363 62 c 256
 245 62 153 139 153 345 c 256
 153 556 251 628 364 628 c 256
 417 628 465 613 509 577 c 257
 557 633 l 257
 503 676 448 700 358 700 c 256
EndSplineSet
PickledDataWithLists: "(dp1
S'com.typemytype.robofont.layerData'
p2
(dp3
s."
EndChar
StartChar: ccircumflex
Encoding: 250 265 250
GlifName: ccircumflex
Width: 600
VWidth: 0
Flags: W
LayerCount: 2
Back
Fore
SplineSet
181 662 m 257
 221 621 l 257
 345 712 l 257
 469 621 l 257
 507 662 l 257
 373 781 l 257
 317 781 l 257
 181 662 l 257
338 60 m 256
 248 60 182 120 182 261 c 256
 182 400 247 468 338 468 c 256
 385 468 429 452 473 419 c 257
 515 476 l 257
 465 517 407 538 339 538 c 256
 182 538 92 419 92 261 c 256
 92 96 181 -11 338 -11 c 256
 400 -11 470 13 516 52 c 257
 476 110 l 257
 437 79 392 60 338 60 c 256
EndSplineSet
PickledDataWithLists: "(dp1
S'com.typemytype.robofont.layerData'
p2
(dp3
s."
EndChar
StartChar: Cdotaccent
Encoding: 24 266 24
GlifName: Cdotaccent_
Width: 600
VWidth: 0
Flags: W
LayerCount: 2
Back
Fore
SplineSet
364 892 m 256
 328 892 304 866 304 833 c 256
 304 799 328 774 364 774 c 256
 401 774 425 799 425 833 c 256
 425 866 401 892 364 892 c 256
358 700 m 256
 199 700 64 577 64 345 c 256
 64 113 194 -11 362 -11 c 256
 460 -11 526 23 567 63 c 257
 523 120 l 257
 486 90 440 62 363 62 c 256
 245 62 153 139 153 345 c 256
 153 556 251 628 364 628 c 256
 417 628 465 613 509 577 c 257
 557 633 l 257
 503 676 448 700 358 700 c 256
EndSplineSet
PickledDataWithLists: "(dp1
S'com.typemytype.robofont.layerData'
p2
(dp3
s."
EndChar
StartChar: cdotaccent
Encoding: 251 267 251
GlifName: cdotaccent
Width: 600
VWidth: 0
Flags: W
LayerCount: 2
Back
Fore
SplineSet
343 765 m 256
 307 765 283 739 283 706 c 256
 283 672 307 647 343 647 c 256
 380 647 404 672 404 706 c 256
 404 739 380 765 343 765 c 256
338 60 m 256
 248 60 182 120 182 261 c 256
 182 400 247 468 338 468 c 256
 385 468 429 452 473 419 c 257
 515 476 l 257
 465 517 407 538 339 538 c 256
 182 538 92 419 92 261 c 256
 92 96 181 -11 338 -11 c 256
 400 -11 470 13 516 52 c 257
 476 110 l 257
 437 79 392 60 338 60 c 256
EndSplineSet
PickledDataWithLists: "(dp1
S'com.typemytype.robofont.layerData'
p2
(dp3
s."
EndChar
StartChar: ccaron
Encoding: 248 269 248
GlifName: ccaron
Width: 600
VWidth: 0
Flags: W
LayerCount: 2
Back
Fore
SplineSet
507 740 m 257
 469 781 l 257
 345 690 l 257
 221 781 l 257
 181 740 l 257
 317 621 l 257
 373 621 l 257
 507 740 l 257
338 60 m 256
 248 60 182 120 182 261 c 256
 182 400 247 468 338 468 c 256
 385 468 429 452 473 419 c 257
 515 476 l 257
 465 517 407 538 339 538 c 256
 182 538 92 419 92 261 c 256
 92 96 181 -11 338 -11 c 256
 400 -11 470 13 516 52 c 257
 476 110 l 257
 437 79 392 60 338 60 c 256
EndSplineSet
PickledDataWithLists: "(dp1
S'com.typemytype.robofont.layerData'
p2
(dp3
s."
EndChar
StartChar: Dcaron
Encoding: 27 270 27
GlifName: Dcaron_
Width: 600
VWidth: 0
Flags: W
LayerCount: 2
Back
Fore
SplineSet
447 862 m 257
 410 904 l 257
 284 823 l 257
 159 904 l 257
 121 862 l 257
 257 754 l 257
 313 754 l 257
 447 862 l 257
552 348 m 256
 552 634 391 688 230 688 c 258
 84 688 l 257
 84 0 l 257
 241 0 l 258
 384 0 552 59 552 348 c 256
461 348 m 256
 461 119 351 69 252 69 c 258
 169 69 l 257
 169 618 l 257
 251 618 l 258
 346 618 461 588 461 348 c 256
EndSplineSet
PickledDataWithLists: "(dp1
S'com.typemytype.robofont.layerData'
p2
(dp3
s."
EndChar
StartChar: dcaron
Encoding: 276 271 276
GlifName: dcaron
Width: 600
VWidth: 0
Flags: W
LayerCount: 2
Back
Fore
SplineSet
612 738 m 257
 537 747 l 257
 512 567 l 257
 559 560 l 257
 612 738 l 257
267 471 m 256
 316 471 359 445 388 403 c 257
 388 139 l 257
 359 96 317 56 257 56 c 256
 174 56 130 126 130 263 c 256
 130 402 179 471 267 471 c 256
470 739 m 257
 388 749 l 257
 388 475 l 257
 352 516 307 538 246 538 c 256
 116 538 40 421 40 262 c 256
 40 99 103 -11 240 -11 c 256
 298 -11 350 14 390 69 c 257
 398 0 l 257
 470 0 l 257
 470 739 l 257
EndSplineSet
PickledDataWithLists: "(dp1
S'com.typemytype.robofont.layerData'
p2
(dp3
s."
EndChar
StartChar: dcroat
Encoding: 277 273 277
GlifName: dcroat
Width: 600
VWidth: 0
Flags: W
LayerCount: 2
Back
Fore
SplineSet
419 403 m 257
 419 139 l 257
 390 96 349 56 289 56 c 256
 205 56 161 126 161 263 c 256
 161 402 211 471 299 471 c 256
 348 471 390 445 419 403 c 257
581 598 m 257
 581 664 l 257
 502 664 l 257
 502 739 l 257
 419 749 l 257
 419 664 l 257
 247 664 l 257
 247 598 l 257
 419 598 l 257
 419 475 l 257
 383 516 338 538 277 538 c 256
 147 538 71 421 71 262 c 256
 71 99 134 -11 272 -11 c 256
 329 -11 382 14 421 69 c 257
 429 0 l 257
 502 0 l 257
 502 598 l 257
 581 598 l 257
EndSplineSet
PickledDataWithLists: "(dp1
S'com.typemytype.robofont.layerData'
p2
(dp3
s."
EndChar
StartChar: Ebreve
Encoding: 32 276 32
GlifName: Ebreve_
Width: 600
VWidth: 0
Flags: W
LayerCount: 2
Back
Fore
SplineSet
319 759 m 256
 396 759 461 805 469 878 c 257
 412 890 l 257
 398 851 366 823 319 823 c 256
 272 823 243 851 229 890 c 257
 172 878 l 257
 180 805 243 759 319 759 c 256
212 385 m 257
 212 618 l 257
 506 618 l 257
 516 688 l 257
 126 688 l 257
 126 0 l 257
 525 0 l 257
 525 69 l 257
 212 69 l 257
 212 314 l 257
 467 314 l 257
 467 385 l 257
 212 385 l 257
EndSplineSet
PickledDataWithLists: "(dp1
S'com.typemytype.robofont.layerData'
p2
(dp3
s."
EndChar
StartChar: ebreve
Encoding: 298 277 298
GlifName: ebreve
Width: 600
VWidth: 0
Flags: W
LayerCount: 2
Back
Fore
SplineSet
308 630 m 256
 400 630 450 705 458 765 c 257
 401 778 l 257
 386 728 356 694 308 694 c 256
 261 694 232 728 218 778 c 257
 161 765 l 257
 169 705 217 630 308 630 c 256
166 234 m 257
 520 234 l 257
 521 245 522 261 522 279 c 256
 522 439 441 538 305 538 c 256
 169 538 79 422 79 263 c 256
 79 99 166 -11 320 -11 c 256
 385 -11 451 12 500 50 c 257
 461 107 l 257
 415 70 368 58 320 58 c 256
 239 58 170 111 166 234 c 257
306 469 m 256
 389 469 440 411 442 298 c 257
 166 298 l 257
 173 414 231 469 306 469 c 256
EndSplineSet
PickledDataWithLists: "(dp1
S'com.typemytype.robofont.layerData'
p2
(dp3
s."
EndChar
StartChar: Edotaccent
Encoding: 36 278 36
GlifName: Edotaccent_
Width: 600
VWidth: 0
Flags: W
LayerCount: 2
Back
Fore
SplineSet
320 892 m 256
 284 892 260 866 260 833 c 256
 260 799 284 774 320 774 c 256
 357 774 381 799 381 833 c 256
 381 866 357 892 320 892 c 256
212 385 m 257
 212 618 l 257
 506 618 l 257
 516 688 l 257
 126 688 l 257
 126 0 l 257
 525 0 l 257
 525 69 l 257
 212 69 l 257
 212 314 l 257
 467 314 l 257
 467 385 l 257
 212 385 l 257
EndSplineSet
PickledDataWithLists: "(dp1
S'com.typemytype.robofont.layerData'
p2
(dp3
s."
EndChar
StartChar: Eogonek
Encoding: 40 280 40
GlifName: Eogonek_
Width: 600
VWidth: 0
Flags: W
LayerCount: 2
Back
Fore
SplineSet
525 69 m 257
 212 69 l 257
 212 314 l 257
 467 314 l 257
 467 385 l 257
 212 385 l 257
 212 618 l 257
 506 618 l 257
 516 688 l 257
 126 688 l 257
 126 0 l 257
 373 0 l 257
 300 -34 268 -78 268 -131 c 256
 268 -186 313 -229 389 -229 c 256
 416 -229 433 -226 453 -222 c 257
 461 -155 l 257
 436 -161 420 -162 399 -162 c 256
 358 -162 344 -144 344 -115 c 256
 344 -79 365 -46 468 0 c 257
 525 0 l 257
 525 69 l 257
EndSplineSet
PickledDataWithLists: "(dp1
S'com.typemytype.robofont.layerData'
p2
(dp3
s."
EndChar
StartChar: eogonek
Encoding: 317 281 317
GlifName: eogonek
Width: 600
VWidth: 0
Flags: W
LayerCount: 2
Back
Fore
SplineSet
522 279 m 256
 522 439 441 538 305 538 c 256
 169 538 79 422 79 263 c 256
 79 106 159 -2 301 -10 c 257
 233 -38 199 -80 199 -131 c 256
 199 -186 244 -229 320 -229 c 256
 347 -229 364 -226 384 -222 c 257
 392 -155 l 257
 367 -161 351 -162 330 -162 c 256
 289 -162 275 -144 275 -115 c 256
 275 -79 296 -46 399 0 c 257
 436 10 471 28 500 50 c 257
 461 107 l 257
 415 70 368 58 320 58 c 256
 239 58 170 111 166 234 c 257
 520 234 l 257
 521 245 522 261 522 279 c 256
442 298 m 257
 166 298 l 257
 173 414 231 469 306 469 c 256
 389 469 440 411 442 298 c 257
EndSplineSet
PickledDataWithLists: "(dp1
S'com.typemytype.robofont.layerData'
p2
(dp3
s."
EndChar
StartChar: Ecaron
Encoding: 33 282 33
GlifName: Ecaron_
Width: 600
VWidth: 0
Flags: W
LayerCount: 2
Back
Fore
SplineSet
484 862 m 257
 447 904 l 257
 321 823 l 257
 196 904 l 257
 158 862 l 257
 294 754 l 257
 350 754 l 257
 484 862 l 257
212 385 m 257
 212 618 l 257
 506 618 l 257
 516 688 l 257
 126 688 l 257
 126 0 l 257
 525 0 l 257
 525 69 l 257
 212 69 l 257
 212 314 l 257
 467 314 l 257
 467 385 l 257
 212 385 l 257
EndSplineSet
PickledDataWithLists: "(dp1
S'com.typemytype.robofont.layerData'
p2
(dp3
s."
EndChar
StartChar: ecaron
Encoding: 299 283 299
GlifName: ecaron
Width: 600
VWidth: 0
Flags: W
LayerCount: 2
Back
Fore
SplineSet
473 748 m 257
 435 789 l 257
 311 698 l 257
 187 789 l 257
 147 748 l 257
 283 629 l 257
 339 629 l 257
 473 748 l 257
166 234 m 257
 520 234 l 257
 521 245 522 261 522 279 c 256
 522 439 441 538 305 538 c 256
 169 538 79 422 79 263 c 256
 79 99 166 -11 320 -11 c 256
 385 -11 451 12 500 50 c 257
 461 107 l 257
 415 70 368 58 320 58 c 256
 239 58 170 111 166 234 c 257
306 469 m 256
 389 469 440 411 442 298 c 257
 166 298 l 257
 173 414 231 469 306 469 c 256
EndSplineSet
PickledDataWithLists: "(dp1
S'com.typemytype.robofont.layerData'
p2
(dp3
s."
EndChar
StartChar: Gbreve
Encoding: 51 286 51
GlifName: Gbreve_
Width: 600
VWidth: 0
Flags: W
LayerCount: 2
Back
Fore
SplineSet
328 759 m 256
 405 759 470 805 478 878 c 257
 421 890 l 257
 407 851 375 823 328 823 c 256
 281 823 252 851 238 890 c 257
 181 878 l 257
 189 805 252 759 328 759 c 256
314 -11 m 256
 411 -11 476 15 538 48 c 257
 538 376 l 257
 307 376 l 257
 317 305 l 257
 453 305 l 257
 453 94 l 257
 413 72 369 61 321 61 c 256
 201 61 137 144 137 345 c 256
 137 557 234 627 334 627 c 256
 391 627 436 609 478 570 c 257
 530 624 l 257
 476 674 423 700 334 700 c 256
 186 700 46 582 46 345 c 256
 46 107 151 -11 314 -11 c 256
EndSplineSet
PickledDataWithLists: "(dp1
S'com.typemytype.robofont.layerData'
p2
(dp3
s."
EndChar
StartChar: gbreve
Encoding: 371 287 371
GlifName: gbreve
Width: 600
VWidth: 0
Flags: W
LayerCount: 2
Back
Fore
SplineSet
300 630 m 256
 392 630 442 705 450 765 c 257
 393 778 l 257
 378 728 348 694 300 694 c 256
 253 694 224 728 210 778 c 257
 153 765 l 257
 161 705 209 630 300 630 c 256
288 477 m 256
 366 477 405 435 405 356 c 256
 405 278 365 232 290 232 c 256
 204 232 164 283 164 355 c 256
 164 426 203 477 288 477 c 256
554 503 m 257
 528 582 l 257
 467 555 421 538 289 538 c 256
 164 538 79 462 79 355 c 256
 79 287 107 241 167 210 c 257
 129 185 109 151 109 118 c 256
 109 66 150 19 242 19 c 258
 336 19 l 258
 403 19 455 -7 455 -57 c 256
 455 -115 403 -144 287 -144 c 256
 169 -144 141 -115 141 -53 c 257
 66 -53 l 257
 66 -161 120 -212 288 -212 c 256
 448 -212 539 -155 539 -52 c 256
 539 29 459 91 353 91 c 258
 258 91 l 258
 204 91 188 110 188 135 c 256
 188 155 199 175 215 187 c 257
 237 180 258 176 294 176 c 256
 418 176 492 251 492 356 c 256
 492 416 461 460 400 488 c 257
 459 488 509 490 554 503 c 257
EndSplineSet
PickledDataWithLists: "(dp1
S'com.typemytype.robofont.layerData'
p2
(dp3
s."
EndChar
StartChar: Gcommaaccent
Encoding: 53 290 53
GlifName: Gcommaaccent_
Width: 600
VWidth: 0
Flags: W
LayerCount: 2
Back
Fore
SplineSet
314 -11 m 256
 411 -11 476 15 538 48 c 257
 538 376 l 257
 307 376 l 257
 317 305 l 257
 453 305 l 257
 453 94 l 257
 413 72 369 61 321 61 c 256
 201 61 137 144 137 345 c 256
 137 557 234 627 334 627 c 256
 391 627 436 609 478 570 c 257
 530 624 l 257
 476 674 423 700 334 700 c 256
 186 700 46 582 46 345 c 256
 46 107 151 -11 314 -11 c 256
334 -71 m 256
 304 -71 280 -93 280 -124 c 256
 280 -141 289 -158 302 -168 c 257
 273 -286 l 257
 323 -286 l 257
 373 -178 l 258
 384 -155 388 -141 388 -124 c 256
 388 -93 365 -71 334 -71 c 256
EndSplineSet
PickledDataWithLists: "(dp1
S'com.typemytype.robofont.layerData'
p2
(dp3
s."
EndChar
StartChar: Hcircumflex
Encoding: 60 292 60
GlifName: Hcircumflex_
Width: 600
VWidth: 0
Flags: W
LayerCount: 2
Back
Fore
SplineSet
463 803 m 257
 329 910 l 257
 273 910 l 257
 137 803 l 257
 175 760 l 257
 300 841 l 257
 426 760 l 257
 463 803 l 257
431 328 m 257
 431 0 l 257
 516 0 l 257
 516 688 l 257
 431 688 l 257
 431 397 l 257
 169 397 l 257
 169 688 l 257
 84 688 l 257
 84 0 l 257
 169 0 l 257
 169 328 l 257
 431 328 l 257
EndSplineSet
PickledDataWithLists: "(dp1
S'com.typemytype.robofont.layerData'
p2
(dp3
s."
EndChar
StartChar: hcircumflex
Encoding: 396 293 396
GlifName: hcircumflex
Width: 600
VWidth: 0
Flags: W
LayerCount: 2
Back
Fore
SplineSet
463 853 m 257
 329 960 l 257
 273 960 l 257
 137 853 l 257
 175 810 l 257
 300 891 l 257
 426 810 l 257
 463 853 l 257
184 454 m 257
 184 747 l 257
 101 737 l 257
 101 0 l 257
 184 0 l 257
 184 384 l 257
 211 425 265 472 326 472 c 256
 388 472 417 444 417 381 c 258
 417 0 l 257
 500 0 l 257
 500 382 l 258
 500 480 455 538 352 538 c 256
 290 538 225 509 184 454 c 257
EndSplineSet
PickledDataWithLists: "(dp1
S'com.typemytype.robofont.layerData'
p2
(dp3
s."
EndChar
StartChar: Hbar
Encoding: 59 294 59
GlifName: Hbar_
Width: 600
VWidth: 0
Flags: W
LayerCount: 2
Back
Fore
SplineSet
431 509 m 257
 431 398 l 257
 169 398 l 257
 169 509 l 257
 431 509 l 257
598 509 m 257
 598 575 l 257
 517 575 l 257
 517 688 l 257
 431 688 l 257
 431 575 l 257
 169 575 l 257
 169 688 l 257
 83 688 l 257
 83 575 l 257
 2 575 l 257
 2 509 l 257
 83 509 l 257
 83 0 l 257
 169 0 l 257
 169 327 l 257
 431 327 l 257
 431 0 l 257
 517 0 l 257
 517 509 l 257
 598 509 l 257
EndSplineSet
PickledDataWithLists: "(dp1
S'com.typemytype.robofont.layerData'
p2
(dp3
s."
EndChar
StartChar: hbar
Encoding: 395 295 395
GlifName: hbar
Width: 600
VWidth: 0
Flags: W
LayerCount: 2
Back
Fore
SplineSet
352 538 m 256
 290 538 225 509 184 454 c 257
 184 598 l 257
 353 598 l 257
 353 664 l 257
 184 664 l 257
 184 747 l 257
 101 737 l 257
 101 664 l 257
 19 664 l 257
 19 598 l 257
 101 598 l 257
 101 0 l 257
 184 0 l 257
 184 384 l 257
 211 425 265 472 326 472 c 256
 388 472 417 444 417 381 c 258
 417 0 l 257
 500 0 l 257
 500 382 l 258
 500 480 455 538 352 538 c 256
EndSplineSet
PickledDataWithLists: "(dp1
S'com.typemytype.robofont.layerData'
p2
(dp3
s."
EndChar
StartChar: Itilde
Encoding: 74 296 74
GlifName: Itilde_
Width: 600
VWidth: 0
Flags: W
LayerCount: 2
Back
Fore
SplineSet
351 771 m 256
 408 771 442 812 462 856 c 257
 408 880 l 257
 392 852 379 836 357 836 c 256
 326 836 307 884 248 884 c 256
 191 884 157 845 137 800 c 257
 191 776 l 257
 207 804 220 820 242 820 c 256
 273 820 294 771 351 771 c 256
497 620 m 257
 497 688 l 257
 103 688 l 257
 103 620 l 257
 257 620 l 257
 257 69 l 257
 103 69 l 257
 103 0 l 257
 497 0 l 257
 497 69 l 257
 343 69 l 257
 343 620 l 257
 497 620 l 257
EndSplineSet
PickledDataWithLists: "(dp1
S'com.typemytype.robofont.layerData'
p2
(dp3
s."
EndChar
StartChar: itilde
Encoding: 431 297 431
GlifName: itilde
Width: 600
VWidth: 0
Flags: W
LayerCount: 2
Back
Fore
SplineSet
352 652 m 256
 409 652 443 693 463 737 c 257
 409 761 l 257
 393 733 380 717 358 717 c 256
 327 717 308 765 249 765 c 256
 192 765 158 726 138 681 c 257
 192 657 l 257
 208 685 221 701 243 701 c 256
 274 701 295 652 352 652 c 256
367 66 m 257
 367 526 l 257
 126 526 l 257
 126 461 l 257
 284 461 l 257
 284 66 l 257
 121 66 l 257
 121 0 l 257
 515 0 l 257
 515 66 l 257
 367 66 l 257
EndSplineSet
PickledDataWithLists: "(dp1
S'com.typemytype.robofont.layerData'
p2
(dp3
s."
EndChar
StartChar: ibreve
Encoding: 410 301 410
GlifName: ibreve
Width: 600
VWidth: 0
Flags: W
LayerCount: 2
Back
Fore
SplineSet
299 630 m 256
 391 630 441 705 449 765 c 257
 392 778 l 257
 377 728 347 694 299 694 c 256
 252 694 223 728 209 778 c 257
 152 765 l 257
 160 705 208 630 299 630 c 256
367 66 m 257
 367 526 l 257
 126 526 l 257
 126 461 l 257
 284 461 l 257
 284 66 l 257
 121 66 l 257
 121 0 l 257
 515 0 l 257
 515 66 l 257
 367 66 l 257
EndSplineSet
PickledDataWithLists: "(dp1
S'com.typemytype.robofont.layerData'
p2
(dp3
s."
EndChar
StartChar: Iogonek
Encoding: 70 302 70
GlifName: Iogonek_
Width: 600
VWidth: 0
Flags: W
LayerCount: 2
Back
Fore
SplineSet
343 620 m 257
 497 620 l 257
 497 688 l 257
 103 688 l 257
 103 620 l 257
 257 620 l 257
 257 69 l 257
 103 69 l 257
 103 0 l 257
 249 0 l 257
 176 -34 144 -78 144 -131 c 256
 144 -186 189 -229 265 -229 c 256
 292 -229 309 -226 329 -222 c 257
 337 -155 l 257
 312 -161 296 -162 275 -162 c 256
 234 -162 220 -144 220 -115 c 256
 220 -79 241 -46 344 0 c 257
 497 0 l 257
 497 69 l 257
 343 69 l 257
 343 620 l 257
EndSplineSet
PickledDataWithLists: "(dp1
S'com.typemytype.robofont.layerData'
p2
(dp3
s."
EndChar
StartChar: Idotaccent
Encoding: 67 304 67
GlifName: Idotaccent_
Width: 600
VWidth: 0
Flags: W
LayerCount: 2
Back
Fore
SplineSet
299 892 m 256
 263 892 239 866 239 833 c 256
 239 799 263 774 299 774 c 256
 336 774 360 799 360 833 c 256
 360 866 336 892 299 892 c 256
497 620 m 257
 497 688 l 257
 103 688 l 257
 103 620 l 257
 257 620 l 257
 257 69 l 257
 103 69 l 257
 103 0 l 257
 497 0 l 257
 497 69 l 257
 343 69 l 257
 343 620 l 257
 497 620 l 257
EndSplineSet
PickledDataWithLists: "(dp1
S'com.typemytype.robofont.layerData'
p2
(dp3
s."
EndChar
StartChar: dotlessi
Encoding: 295 305 295
GlifName: dotlessi
Width: 600
VWidth: 0
Flags: W
LayerCount: 2
Back
Fore
SplineSet
367 66 m 257
 367 526 l 257
 126 526 l 257
 126 461 l 257
 284 461 l 257
 284 66 l 257
 121 66 l 257
 121 0 l 257
 515 0 l 257
 515 66 l 257
 367 66 l 257
EndSplineSet
PickledDataWithLists: "(dp1
S'com.typemytype.robofont.layerData'
p2
(dp3
s."
EndChar
StartChar: IJ
Encoding: 62 306 62
GlifName: IJ_
Width: 600
VWidth: 0
Flags: W
LayerCount: 2
Back
Fore
SplineSet
195 -71 m 257
 205 -135 l 257
 471 -112 532 33 532 188 c 258
 532 688 l 257
 11 688 l 257
 11 617 l 257
 112 617 l 257
 112 71 l 257
 11 71 l 257
 11 0 l 257
 280 0 l 257
 280 71 l 257
 200 71 l 257
 200 617 l 257
 446 617 l 257
 446 194 l 258
 446 45 398 -51 195 -71 c 257
EndSplineSet
PickledDataWithLists: "(dp1
S'com.typemytype.robofont.layerData'
p2
(dp3
s."
EndChar
StartChar: ij
Encoding: 414 307 414
GlifName: ij
Width: 600
VWidth: 0
Flags: W
LayerCount: 2
Back
Fore
SplineSet
448 773 m 256
 412 773 388 747 388 714 c 256
 388 680 412 655 448 655 c 256
 484 655 509 680 509 714 c 256
 509 747 484 773 448 773 c 256
184 773 m 256
 149 773 124 747 124 714 c 256
 124 680 149 655 184 655 c 256
 220 655 245 680 245 714 c 256
 245 747 220 773 184 773 c 256
500 54 m 258
 500 526 l 257
 54 526 l 257
 54 463 l 257
 143 463 l 257
 143 66 l 257
 49 66 l 257
 49 0 l 257
 319 0 l 257
 319 66 l 257
 222 66 l 257
 222 463 l 257
 419 463 l 257
 419 49 l 258
 419 -62 315 -110 220 -147 c 257
 245 -212 l 257
 385 -166 500 -91 500 54 c 258
EndSplineSet
PickledDataWithLists: "(dp1
S'com.typemytype.robofont.layerData'
p2
(dp3
s."
EndChar
StartChar: Jcircumflex
Encoding: 76 308 76
GlifName: Jcircumflex_
Width: 600
VWidth: 0
Flags: W
LayerCount: 2
Back
Fore
SplineSet
513 803 m 257
 379 910 l 257
 323 910 l 257
 187 803 l 257
 225 760 l 257
 350 841 l 257
 476 760 l 257
 513 803 l 257
496 228 m 258
 496 688 l 257
 207 688 l 257
 207 618 l 257
 411 618 l 257
 411 233 l 258
 411 126 357 60 261 60 c 256
 220 60 171 70 111 108 c 257
 73 51 l 257
 127 10 194 -12 262 -12 c 256
 443 -12 496 114 496 228 c 258
EndSplineSet
PickledDataWithLists: "(dp1
S'com.typemytype.robofont.layerData'
p2
(dp3
s."
EndChar
StartChar: jcircumflex
Encoding: 433 309 433
GlifName: jcircumflex
Width: 600
VWidth: 0
Flags: W
LayerCount: 2
Back
Fore
SplineSet
205 670 m 257
 245 629 l 257
 369 720 l 257
 493 629 l 257
 531 670 l 257
 397 789 l 257
 341 789 l 257
 205 670 l 257
445 83 m 258
 445 526 l 257
 142 526 l 257
 142 461 l 257
 362 461 l 257
 362 78 l 258
 362 -63 252 -122 96 -148 c 257
 110 -212 l 257
 321 -176 445 -92 445 83 c 258
EndSplineSet
PickledDataWithLists: "(dp1
S'com.typemytype.robofont.layerData'
p2
(dp3
s."
EndChar
StartChar: Kcommaaccent
Encoding: 79 310 79
GlifName: Kcommaaccent_
Width: 600
VWidth: 0
Flags: W
LayerCount: 2
Back
Fore
SplineSet
468 688 m 257
 196 368 l 257
 479 0 l 257
 586 0 l 257
 297 373 l 257
 567 688 l 257
 468 688 l 257
106 0 m 257
 191 0 l 257
 191 688 l 257
 106 688 l 257
 106 0 l 257
326 -71 m 256
 296 -71 272 -93 272 -124 c 256
 272 -141 281 -158 294 -168 c 257
 265 -286 l 257
 315 -286 l 257
 365 -178 l 258
 376 -155 380 -141 380 -124 c 256
 380 -93 357 -71 326 -71 c 256
EndSplineSet
PickledDataWithLists: "(dp1
S'com.typemytype.robofont.layerData'
p2
(dp3
s."
EndChar
StartChar: kcommaaccent
Encoding: 437 311 437
GlifName: kcommaaccent
Width: 600
VWidth: 0
Flags: W
LayerCount: 2
Back
Fore
SplineSet
189 0 m 257
 189 749 l 257
 106 739 l 257
 106 0 l 257
 189 0 l 257
303 289 m 257
 541 526 l 257
 433 526 l 257
 199 288 l 257
 459 0 l 257
 569 0 l 257
 303 289 l 257
309 -71 m 256
 279 -71 255 -93 255 -124 c 256
 255 -141 264 -158 277 -168 c 257
 248 -286 l 257
 298 -286 l 257
 348 -178 l 258
 359 -155 363 -141 363 -124 c 256
 363 -93 340 -71 309 -71 c 256
EndSplineSet
PickledDataWithLists: "(dp1
S'com.typemytype.robofont.layerData'
p2
(dp3
s."
EndChar
StartChar: kgreenlandic
Encoding: 438 312 438
GlifName: kgreenlandic
Width: 600
VWidth: 0
Flags: W
LayerCount: 2
Back
Fore
SplineSet
296 288 m 257
 535 526 l 257
 427 526 l 257
 193 283 l 257
 453 0 l 257
 563 0 l 257
 296 288 l 257
184 0 m 257
 184 526 l 257
 101 526 l 257
 101 0 l 257
 184 0 l 257
EndSplineSet
PickledDataWithLists: "(dp1
S'com.typemytype.robofont.layerData'
p2
(dp3
s."
EndChar
StartChar: Lacute
Encoding: 81 313 81
GlifName: Lacute_
Width: 600
VWidth: 0
Flags: W
LayerCount: 2
Back
Fore
SplineSet
299 834 m 257
 262 905 l 257
 64 800 l 257
 86 756 l 257
 299 834 l 257
136 688 m 257
 136 0 l 257
 526 0 l 257
 536 77 l 257
 222 77 l 257
 222 688 l 257
 136 688 l 257
EndSplineSet
PickledDataWithLists: "(dp1
S'com.typemytype.robofont.layerData'
p2
(dp3
s."
EndChar
StartChar: lacute
Encoding: 440 314 440
GlifName: lacute
Width: 600
VWidth: 0
Flags: W
LayerCount: 2
Back
Fore
SplineSet
335 997 m 257
 150 882 l 257
 178 836 l 257
 379 926 l 257
 335 997 l 257
305 129 m 258
 305 739 l 257
 60 739 l 257
 60 673 l 257
 222 673 l 257
 222 134 l 258
 222 43 286 -11 378 -11 c 256
 432 -11 475 1 503 16 c 257
 481 76 l 257
 452 65 424 58 392 58 c 256
 341 58 305 77 305 129 c 258
EndSplineSet
PickledDataWithLists: "(dp1
S'com.typemytype.robofont.layerData'
p2
(dp3
s."
EndChar
StartChar: Lcommaaccent
Encoding: 84 315 84
GlifName: Lcommaaccent_
Width: 600
VWidth: 0
Flags: W
LayerCount: 2
Back
Fore
SplineSet
136 688 m 257
 136 0 l 257
 526 0 l 257
 536 77 l 257
 222 77 l 257
 222 688 l 257
 136 688 l 257
335 -71 m 256
 305 -71 281 -93 281 -124 c 256
 281 -141 290 -158 303 -168 c 257
 274 -286 l 257
 324 -286 l 257
 374 -178 l 258
 385 -155 389 -141 389 -124 c 256
 389 -93 366 -71 335 -71 c 256
EndSplineSet
PickledDataWithLists: "(dp1
S'com.typemytype.robofont.layerData'
p2
(dp3
s."
EndChar
StartChar: lcommaaccent
Encoding: 444 316 444
GlifName: lcommaaccent
Width: 600
VWidth: 0
Flags: W
LayerCount: 2
Back
Fore
SplineSet
305 129 m 258
 305 739 l 257
 60 739 l 257
 60 673 l 257
 222 673 l 257
 222 134 l 258
 222 43 286 -11 378 -11 c 256
 432 -11 475 1 503 16 c 257
 481 76 l 257
 452 65 424 58 392 58 c 256
 341 58 305 77 305 129 c 258
364 -71 m 256
 334 -71 310 -93 310 -124 c 256
 310 -141 319 -158 332 -168 c 257
 303 -286 l 257
 353 -286 l 257
 403 -178 l 258
 414 -155 418 -141 418 -124 c 256
 418 -93 395 -71 364 -71 c 256
EndSplineSet
PickledDataWithLists: "(dp1
S'com.typemytype.robofont.layerData'
p2
(dp3
s."
EndChar
StartChar: Lcaron
Encoding: 83 317 83
GlifName: Lcaron_
Width: 600
VWidth: 0
Flags: W
LayerCount: 2
Back
Fore
SplineSet
382 687 m 257
 307 696 l 257
 282 517 l 257
 329 510 l 257
 382 687 l 257
136 688 m 257
 136 0 l 257
 526 0 l 257
 536 77 l 257
 222 77 l 257
 222 688 l 257
 136 688 l 257
EndSplineSet
PickledDataWithLists: "(dp1
S'com.typemytype.robofont.layerData'
p2
(dp3
s."
EndChar
StartChar: Ldot
Encoding: 85 319 85
GlifName: Ldot_
Width: 600
VWidth: 0
Flags: W
LayerCount: 2
Back
Fore
SplineSet
136 688 m 257
 136 0 l 257
 526 0 l 257
 536 77 l 257
 222 77 l 257
 222 688 l 257
 136 688 l 257
472 437 m 256
 436 437 412 411 412 378 c 256
 412 344 436 319 472 319 c 256
 509 319 533 344 533 378 c 256
 533 411 509 437 472 437 c 256
EndSplineSet
PickledDataWithLists: "(dp1
S'com.typemytype.robofont.layerData'
p2
(dp3
s."
EndChar
StartChar: ldot
Encoding: 445 320 445
GlifName: ldot
Width: 600
VWidth: 0
Flags: W
LayerCount: 2
Back
Fore
SplineSet
305 129 m 258
 305 739 l 257
 60 739 l 257
 60 673 l 257
 222 673 l 257
 222 134 l 258
 222 43 286 -11 378 -11 c 256
 432 -11 475 1 503 16 c 257
 481 76 l 257
 452 65 424 58 392 58 c 256
 341 58 305 77 305 129 c 258
560 441 m 256
 524 441 500 415 500 382 c 256
 500 348 524 323 560 323 c 256
 597 323 621 348 621 382 c 256
 621 415 597 441 560 441 c 256
EndSplineSet
PickledDataWithLists: "(dp1
S'com.typemytype.robofont.layerData'
p2
(dp3
s."
EndChar
StartChar: Lslash
Encoding: 86 321 86
GlifName: Lslash_
Width: 600
VWidth: 0
Flags: W
LayerCount: 2
Back
Fore
SplineSet
534 77 m 257
 220 77 l 257
 220 322 l 257
 422 447 l 257
 385 502 l 257
 220 399 l 257
 220 688 l 257
 134 688 l 257
 134 346 l 257
 41 289 l 257
 77 233 l 257
 134 268 l 257
 134 0 l 257
 524 0 l 257
 534 77 l 257
EndSplineSet
PickledDataWithLists: "(dp1
S'com.typemytype.robofont.layerData'
p2
(dp3
s."
EndChar
StartChar: lslash
Encoding: 465 322 465
GlifName: lslash
Width: 600
VWidth: 0
Flags: W
LayerCount: 2
Back
Fore
SplineSet
503 16 m 257
 481 76 l 257
 452 65 424 58 392 58 c 256
 341 58 305 77 305 129 c 258
 305 357 l 257
 430 435 l 257
 395 489 l 257
 305 433 l 257
 305 739 l 257
 60 739 l 257
 60 673 l 257
 222 673 l 257
 222 381 l 257
 119 319 l 257
 154 265 l 257
 222 306 l 257
 222 134 l 258
 222 43 286 -11 378 -11 c 256
 432 -11 475 1 503 16 c 257
EndSplineSet
PickledDataWithLists: "(dp1
S'com.typemytype.robofont.layerData'
p2
(dp3
s."
EndChar
StartChar: Nacute
Encoding: 90 323 90
GlifName: Nacute_
Width: 600
VWidth: 0
Flags: W
LayerCount: 2
Back
Fore
SplineSet
419 834 m 257
 382 905 l 257
 184 800 l 257
 206 756 l 257
 419 834 l 257
156 589 m 257
 396 0 l 257
 516 0 l 257
 516 688 l 257
 436 688 l 257
 436 343 l 258
 436 219 447 108 448 96 c 257
 444 96 l 257
 200 688 l 257
 84 688 l 257
 84 0 l 257
 164 0 l 257
 164 346 l 258
 164 452 153 576 152 589 c 257
 156 589 l 257
EndSplineSet
PickledDataWithLists: "(dp1
S'com.typemytype.robofont.layerData'
p2
(dp3
s."
EndChar
StartChar: nacute
Encoding: 481 324 481
GlifName: nacute
Width: 600
VWidth: 0
Flags: W
LayerCount: 2
Back
Fore
SplineSet
370 787 m 257
 185 672 l 257
 213 626 l 257
 414 716 l 257
 370 787 l 257
101 526 m 257
 101 0 l 257
 184 0 l 257
 184 384 l 257
 211 425 264 472 327 472 c 256
 407 472 417 428 417 320 c 258
 417 0 l 257
 500 0 l 257
 500 382 l 258
 500 480 455 538 352 538 c 256
 290 538 221 507 178 453 c 257
 172 526 l 257
 101 526 l 257
EndSplineSet
PickledDataWithLists: "(dp1
S'com.typemytype.robofont.layerData'
p2
(dp3
s."
EndChar
StartChar: Ncommaaccent
Encoding: 93 325 93
GlifName: Ncommaaccent_
Width: 600
VWidth: 0
Flags: W
LayerCount: 2
Back
Fore
SplineSet
156 589 m 257
 396 0 l 257
 516 0 l 257
 516 688 l 257
 436 688 l 257
 436 343 l 258
 436 219 447 108 448 96 c 257
 444 96 l 257
 200 688 l 257
 84 688 l 257
 84 0 l 257
 164 0 l 257
 164 346 l 258
 164 452 153 576 152 589 c 257
 156 589 l 257
303 -71 m 256
 273 -71 249 -93 249 -124 c 256
 249 -141 258 -158 271 -168 c 257
 242 -286 l 257
 292 -286 l 257
 342 -178 l 258
 353 -155 357 -141 357 -124 c 256
 357 -93 334 -71 303 -71 c 256
EndSplineSet
PickledDataWithLists: "(dp1
S'com.typemytype.robofont.layerData'
p2
(dp3
s."
EndChar
StartChar: ncommaaccent
Encoding: 485 326 485
GlifName: ncommaaccent
Width: 600
VWidth: 0
Flags: W
LayerCount: 2
Back
Fore
SplineSet
101 526 m 257
 101 0 l 257
 184 0 l 257
 184 384 l 257
 211 425 264 472 327 472 c 256
 407 472 417 428 417 320 c 258
 417 0 l 257
 500 0 l 257
 500 382 l 258
 500 480 455 538 352 538 c 256
 290 538 221 507 178 453 c 257
 172 526 l 257
 101 526 l 257
304 -71 m 256
 274 -71 250 -93 250 -124 c 256
 250 -141 259 -158 272 -168 c 257
 243 -286 l 257
 293 -286 l 257
 343 -178 l 258
 354 -155 358 -141 358 -124 c 256
 358 -93 335 -71 304 -71 c 256
EndSplineSet
PickledDataWithLists: "(dp1
S'com.typemytype.robofont.layerData'
p2
(dp3
s."
EndChar
StartChar: Ncaron
Encoding: 92 327 92
GlifName: Ncaron_
Width: 600
VWidth: 0
Flags: W
LayerCount: 2
Back
Fore
SplineSet
462 862 m 257
 425 904 l 257
 299 823 l 257
 174 904 l 257
 136 862 l 257
 272 754 l 257
 328 754 l 257
 462 862 l 257
156 589 m 257
 396 0 l 257
 516 0 l 257
 516 688 l 257
 436 688 l 257
 436 343 l 258
 436 219 447 108 448 96 c 257
 444 96 l 257
 200 688 l 257
 84 688 l 257
 84 0 l 257
 164 0 l 257
 164 346 l 258
 164 452 153 576 152 589 c 257
 156 589 l 257
EndSplineSet
PickledDataWithLists: "(dp1
S'com.typemytype.robofont.layerData'
p2
(dp3
s."
EndChar
StartChar: napostrophe
Encoding: 483 329 483
GlifName: napostrophe
Width: 600
VWidth: 0
Flags: W
LayerCount: 2
Back
Fore
SplineSet
98 749 m 256
 67 749 42 726 42 696 c 256
 42 678 52 663 65 651 c 257
 35 530 l 257
 84 530 l 257
 126 619 l 258
 148 665 152 679 152 695 c 256
 152 726 128 749 98 749 c 256
109 526 m 257
 109 0 l 257
 192 0 l 257
 192 384 l 257
 220 425 273 472 335 472 c 256
 415 472 426 428 426 320 c 258
 426 0 l 257
 509 0 l 257
 509 382 l 258
 509 480 464 538 361 538 c 256
 299 538 229 507 187 453 c 257
 180 526 l 257
 109 526 l 257
EndSplineSet
PickledDataWithLists: "(dp1
S'com.typemytype.robofont.layerData'
p2
(dp3
s."
EndChar
StartChar: Eng
Encoding: 39 330 39
GlifName: Eng_
Width: 600
VWidth: 0
Flags: W
LayerCount: 2
Back
Fore
SplineSet
516 -6 m 258
 516 688 l 257
 436 688 l 257
 436 343 l 258
 436 219 447 108 448 96 c 257
 444 96 l 257
 200 688 l 257
 84 688 l 257
 84 0 l 257
 164 0 l 257
 164 346 l 258
 164 452 153 576 152 589 c 257
 156 589 l 257
 396 0 l 257
 431 0 l 257
 432 -70 411 -109 320 -144 c 257
 343 -212 l 257
 452 -174 516 -113 516 -6 c 258
EndSplineSet
PickledDataWithLists: "(dp1
S'com.typemytype.robofont.layerData'
p2
(dp3
s."
EndChar
StartChar: eng
Encoding: 316 331 316
GlifName: eng
Width: 600
VWidth: 0
Flags: W
LayerCount: 2
Back
Fore
SplineSet
500 28 m 258
 500 382 l 258
 500 480 455 538 352 538 c 256
 290 538 221 507 178 453 c 257
 172 526 l 257
 101 526 l 257
 101 0 l 257
 184 0 l 257
 184 384 l 257
 211 425 265 472 326 472 c 256
 408 472 417 428 417 320 c 258
 417 23 l 258
 417 -93 384 -118 315 -150 c 257
 346 -211 l 257
 449 -164 500 -121 500 28 c 258
EndSplineSet
PickledDataWithLists: "(dp1
S'com.typemytype.robofont.layerData'
p2
(dp3
s."
EndChar
StartChar: obreve
Encoding: 507 335 507
GlifName: obreve
Width: 600
VWidth: 0
Flags: W
LayerCount: 2
Back
Fore
SplineSet
298 630 m 256
 390 630 440 705 448 765 c 257
 391 778 l 257
 376 728 346 694 298 694 c 256
 251 694 222 728 208 778 c 257
 151 765 l 257
 159 705 207 630 298 630 c 256
301 538 m 256
 153 538 74 425 74 263 c 256
 74 97 152 -11 300 -11 c 256
 447 -11 526 103 526 264 c 256
 526 430 449 538 301 538 c 256
301 470 m 256
 391 470 437 404 437 264 c 256
 437 123 391 57 300 57 c 256
 209 57 163 123 163 263 c 256
 163 404 210 470 301 470 c 256
EndSplineSet
PickledDataWithLists: "(dp1
S'com.typemytype.robofont.layerData'
p2
(dp3
s."
EndChar
StartChar: Ohungarumlaut
Encoding: 104 336 104
GlifName: Ohungarumlaut_
Width: 600
VWidth: 0
Flags: W
LayerCount: 2
Back
Fore
SplineSet
434 954 m 257
 347 781 l 257
 399 753 l 257
 507 916 l 257
 434 954 l 257
260 954 m 257
 183 781 l 257
 237 755 l 257
 334 919 l 257
 260 954 l 257
553 344 m 256
 553 556 467 700 300 700 c 256
 133 700 47 551 47 342 c 256
 47 130 133 -11 300 -11 c 256
 467 -11 553 135 553 344 c 256
464 344 m 256
 464 160 416 61 300 61 c 256
 187 61 136 159 136 342 c 256
 136 526 183 627 300 627 c 256
 417 627 464 527 464 344 c 256
EndSplineSet
PickledDataWithLists: "(dp1
S'com.typemytype.robofont.layerData'
p2
(dp3
s."
EndChar
StartChar: ohungarumlaut
Encoding: 513 337 513
GlifName: ohungarumlaut
Width: 600
VWidth: 0
Flags: W
LayerCount: 2
Back
Fore
SplineSet
428 835 m 257
 341 662 l 257
 393 634 l 257
 501 797 l 257
 428 835 l 257
254 835 m 257
 177 662 l 257
 231 636 l 257
 328 800 l 257
 254 835 l 257
301 538 m 256
 153 538 74 425 74 263 c 256
 74 97 152 -11 300 -11 c 256
 447 -11 526 103 526 264 c 256
 526 430 449 538 301 538 c 256
301 470 m 256
 391 470 437 404 437 264 c 256
 437 123 391 57 300 57 c 256
 209 57 163 123 163 263 c 256
 163 404 210 470 301 470 c 256
EndSplineSet
PickledDataWithLists: "(dp1
S'com.typemytype.robofont.layerData'
p2
(dp3
s."
EndChar
StartChar: OE
Encoding: 97 338 97
GlifName: OE_
Width: 600
VWidth: 0
Flags: W
LayerCount: 2
Back
Fore
SplineSet
211 700 m 256
 70 700 -1 573 -1 342 c 256
 -1 108 69 -11 211 -11 c 256
 236 -11 257 -7 280 0 c 257
 618 0 l 257
 618 70 l 257
 350 70 l 257
 391 117 416 195 419 314 c 257
 573 314 l 257
 573 384 l 257
 419 384 l 257
 414 499 391 574 354 618 c 257
 598 618 l 257
 608 688 l 257
 282 688 l 257
 259 696 236 700 211 700 c 256
211 629 m 256
 297 629 334 548 334 344 c 256
 334 139 295 59 211 59 c 256
 132 59 91 138 91 342 c 256
 91 547 130 629 211 629 c 256
EndSplineSet
PickledDataWithLists: "(dp1
S'com.typemytype.robofont.layerData'
p2
(dp3
s."
EndChar
StartChar: oe
Encoding: 510 339 510
GlifName: oe
Width: 600
VWidth: 0
Flags: W
LayerCount: 2
Back
Fore
SplineSet
449 538 m 256
 374 538 333 493 310 434 c 257
 287 496 250 538 167 538 c 256
 48 538 -2 425 -2 263 c 256
 -2 97 50 -11 167 -11 c 256
 246 -11 284 30 309 90 c 257
 335 26 385 -11 459 -11 c 256
 514 -11 555 9 595 41 c 257
 556 98 l 257
 523 73 498 59 460 59 c 256
 390 59 359 113 350 233 c 257
 613 233 l 257
 614 245 615 261 615 279 c 256
 615 440 566 538 449 538 c 256
177 471 m 256
 242 471 266 404 266 264 c 256
 266 113 243 57 177 57 c 256
 112 57 87 118 87 263 c 256
 87 403 112 471 177 471 c 256
447 468 m 256
 512 468 531 409 534 298 c 257
 350 298 l 257
 358 424 386 468 447 468 c 256
EndSplineSet
PickledDataWithLists: "(dp1
S'com.typemytype.robofont.layerData'
p2
(dp3
s."
EndChar
StartChar: Racute
Encoding: 119 340 119
GlifName: Racute_
Width: 600
VWidth: 0
Flags: W
LayerCount: 2
Back
Fore
SplineSet
420 834 m 257
 383 905 l 257
 185 800 l 257
 207 756 l 257
 420 834 l 257
445 496 m 256
 445 400 388 363 289 363 c 258
 188 363 l 257
 188 620 l 257
 288 620 l 258
 395 620 445 584 445 496 c 256
537 496 m 256
 537 623 448 688 278 688 c 258
 102 688 l 257
 102 0 l 257
 188 0 l 257
 188 296 l 257
 282 296 l 257
 470 0 l 257
 573 0 l 257
 368 306 l 257
 464 329 537 392 537 496 c 256
EndSplineSet
PickledDataWithLists: "(dp1
S'com.typemytype.robofont.layerData'
p2
(dp3
s."
EndChar
StartChar: racute
Encoding: 582 341 582
GlifName: racute
Width: 600
VWidth: 0
Flags: W
LayerCount: 2
Back
Fore
SplineSet
379 785 m 257
 194 670 l 257
 222 624 l 257
 423 714 l 257
 379 785 l 257
94 0 m 257
 448 0 l 257
 448 66 l 257
 300 66 l 257
 300 315 l 257
 318 388 373 457 444 457 c 256
 466 457 482 454 505 448 c 257
 520 530 l 257
 495 536 477 538 451 538 c 256
 388 538 330 500 299 425 c 257
 289 526 l 257
 94 526 l 257
 94 461 l 257
 217 461 l 257
 217 66 l 257
 94 66 l 257
 94 0 l 257
EndSplineSet
PickledDataWithLists: "(dp1
S'com.typemytype.robofont.layerData'
p2
(dp3
s."
EndChar
StartChar: Rcommaaccent
Encoding: 121 342 121
GlifName: Rcommaaccent_
Width: 600
VWidth: 0
Flags: W
LayerCount: 2
Back
Fore
SplineSet
445 496 m 256
 445 400 388 363 289 363 c 258
 188 363 l 257
 188 620 l 257
 288 620 l 258
 395 620 445 584 445 496 c 256
537 496 m 256
 537 623 448 688 278 688 c 258
 102 688 l 257
 102 0 l 257
 188 0 l 257
 188 296 l 257
 282 296 l 257
 470 0 l 257
 573 0 l 257
 368 306 l 257
 464 329 537 392 537 496 c 256
302 -71 m 256
 272 -71 248 -93 248 -124 c 256
 248 -141 257 -158 270 -168 c 257
 241 -286 l 257
 291 -286 l 257
 341 -178 l 258
 352 -155 356 -141 356 -124 c 256
 356 -93 333 -71 302 -71 c 256
EndSplineSet
PickledDataWithLists: "(dp1
S'com.typemytype.robofont.layerData'
p2
(dp3
s."
EndChar
StartChar: Rcaron
Encoding: 120 344 120
GlifName: Rcaron_
Width: 600
VWidth: 0
Flags: W
LayerCount: 2
Back
Fore
SplineSet
463 862 m 257
 426 904 l 257
 300 823 l 257
 175 904 l 257
 137 862 l 257
 273 754 l 257
 329 754 l 257
 463 862 l 257
445 496 m 256
 445 400 388 363 289 363 c 258
 188 363 l 257
 188 620 l 257
 288 620 l 258
 395 620 445 584 445 496 c 256
537 496 m 256
 537 623 448 688 278 688 c 258
 102 688 l 257
 102 0 l 257
 188 0 l 257
 188 296 l 257
 282 296 l 257
 470 0 l 257
 573 0 l 257
 368 306 l 257
 464 329 537 392 537 496 c 256
EndSplineSet
PickledDataWithLists: "(dp1
S'com.typemytype.robofont.layerData'
p2
(dp3
s."
EndChar
StartChar: rcaron
Encoding: 585 345 585
GlifName: rcaron
Width: 600
VWidth: 0
Flags: W
LayerCount: 2
Back
Fore
SplineSet
472 748 m 257
 434 789 l 257
 310 698 l 257
 186 789 l 257
 146 748 l 257
 282 629 l 257
 338 629 l 257
 472 748 l 257
94 0 m 257
 448 0 l 257
 448 66 l 257
 300 66 l 257
 300 315 l 257
 318 388 373 457 444 457 c 256
 466 457 482 454 505 448 c 257
 520 530 l 257
 495 536 477 538 451 538 c 256
 388 538 330 500 299 425 c 257
 289 526 l 257
 94 526 l 257
 94 461 l 257
 217 461 l 257
 217 66 l 257
 94 66 l 257
 94 0 l 257
EndSplineSet
PickledDataWithLists: "(dp1
S'com.typemytype.robofont.layerData'
p2
(dp3
s."
EndChar
StartChar: Sacute
Encoding: 124 346 124
GlifName: Sacute_
Width: 600
VWidth: 0
Flags: W
LayerCount: 2
Back
Fore
SplineSet
425 834 m 257
 388 905 l 257
 190 800 l 257
 212 756 l 257
 425 834 l 257
536 191 m 256
 536 322 442 367 335 398 c 256
 204 436 161 466 161 525 c 256
 161 594 224 628 299 628 c 256
 358 628 416 609 465 565 c 257
 516 621 l 257
 458 671 391 700 297 700 c 256
 165 700 74 626 74 523 c 256
 74 413 160 364 296 324 c 256
 415 289 447 256 447 189 c 256
 447 102 370 61 287 61 c 256
 202 61 143 89 95 134 c 257
 44 76 l 257
 102 20 185 -11 285 -11 c 256
 445 -11 536 72 536 191 c 256
EndSplineSet
PickledDataWithLists: "(dp1
S'com.typemytype.robofont.layerData'
p2
(dp3
s."
EndChar
StartChar: sacute
Encoding: 594 347 594
GlifName: sacute
Width: 600
VWidth: 0
Flags: W
LayerCount: 2
Back
Fore
SplineSet
377 785 m 257
 192 670 l 257
 220 624 l 257
 421 714 l 257
 377 785 l 257
280 57 m 256
 218 57 162 80 121 114 c 257
 74 60 l 257
 119 21 184 -11 279 -11 c 256
 392 -11 501 33 501 145 c 256
 501 244 433 280 330 308 c 256
 223 337 190 353 190 401 c 256
 190 441 221 470 305 470 c 256
 373 470 418 450 457 423 c 257
 494 479 l 257
 450 512 388 538 303 538 c 256
 185 538 104 482 104 394 c 256
 104 302 174 270 284 243 c 256
 395 215 411 189 411 141 c 256
 411 90 361 57 280 57 c 256
EndSplineSet
PickledDataWithLists: "(dp1
S'com.typemytype.robofont.layerData'
p2
(dp3
s."
EndChar
StartChar: Scedilla
Encoding: 127 350 127
GlifName: Scedilla_
Width: 600
VWidth: 0
Flags: W
LayerCount: 2
Back
Fore
SplineSet
536 191 m 256
 536 322 442 367 335 398 c 256
 204 436 161 466 161 525 c 256
 161 594 224 628 299 628 c 256
 358 628 416 609 465 565 c 257
 516 621 l 257
 458 671 391 700 297 700 c 256
 165 700 74 626 74 523 c 256
 74 413 160 364 296 324 c 256
 415 289 447 256 447 189 c 256
 447 102 370 61 287 61 c 256
 202 61 143 89 95 134 c 257
 44 76 l 257
 97 25 170 -5 258 -10 c 257
 251 -97 l 257
 304 -97 338 -104 338 -140 c 256
 338 -170 313 -182 278 -182 c 256
 256 -182 229 -176 210 -166 c 257
 183 -214 l 257
 209 -229 248 -238 288 -238 c 256
 352 -238 409 -206 409 -140 c 256
 409 -101 382 -63 317 -57 c 257
 317 -10 l 257
 457 1 536 80 536 191 c 256
EndSplineSet
PickledDataWithLists: "(dp1
S'com.typemytype.robofont.layerData'
p2
(dp3
s."
EndChar
StartChar: scedilla
Encoding: 597 351 597
GlifName: scedilla
Width: 600
VWidth: 0
Flags: W
LayerCount: 2
Back
Fore
SplineSet
501 145 m 256
 501 244 433 280 330 308 c 256
 223 337 190 353 190 401 c 256
 190 441 221 470 305 470 c 256
 373 470 418 450 457 423 c 257
 494 479 l 257
 450 512 388 538 303 538 c 256
 185 538 104 482 104 394 c 256
 104 302 174 270 284 243 c 256
 395 215 411 189 411 141 c 256
 411 90 361 57 280 57 c 256
 218 57 162 80 121 114 c 257
 74 60 l 257
 115 24 174 -6 257 -10 c 257
 250 -97 l 257
 303 -97 337 -104 337 -140 c 256
 337 -170 312 -182 277 -182 c 256
 255 -182 228 -176 209 -166 c 257
 182 -214 l 257
 208 -229 247 -238 287 -238 c 256
 351 -238 408 -206 408 -140 c 256
 408 -101 381 -63 316 -57 c 257
 316 -9 l 257
 415 0 501 45 501 145 c 256
EndSplineSet
PickledDataWithLists: "(dp1
S'com.typemytype.robofont.layerData'
p2
(dp3
s."
EndChar
StartChar: scaron
Encoding: 596 353 596
GlifName: scaron
Width: 600
VWidth: 0
Flags: W
LayerCount: 2
Back
Fore
SplineSet
470 748 m 257
 432 789 l 257
 308 698 l 257
 184 789 l 257
 144 748 l 257
 280 629 l 257
 336 629 l 257
 470 748 l 257
280 57 m 256
 218 57 162 80 121 114 c 257
 74 60 l 257
 119 21 184 -11 279 -11 c 256
 392 -11 501 33 501 145 c 256
 501 244 433 280 330 308 c 256
 223 337 190 353 190 401 c 256
 190 441 221 470 305 470 c 256
 373 470 418 450 457 423 c 257
 494 479 l 257
 450 512 388 538 303 538 c 256
 185 538 104 482 104 394 c 256
 104 302 174 270 284 243 c 256
 395 215 411 189 411 141 c 256
 411 90 361 57 280 57 c 256
EndSplineSet
PickledDataWithLists: "(dp1
S'com.typemytype.robofont.layerData'
p2
(dp3
s."
EndChar
StartChar: Tcedilla
Encoding: 135 354 135
GlifName: Tcedilla_
Width: 600
VWidth: 0
Flags: W
LayerCount: 2
Back
Fore
SplineSet
328 0 m 257
 341 0 l 257
 341 615 l 257
 550 615 l 257
 559 688 l 257
 40 688 l 257
 40 615 l 257
 256 615 l 257
 256 0 l 257
 270 0 l 257
 262 -97 l 257
 315 -97 349 -104 349 -140 c 256
 349 -170 324 -182 289 -182 c 256
 267 -182 240 -176 221 -166 c 257
 194 -214 l 257
 220 -229 259 -238 299 -238 c 256
 363 -238 420 -206 420 -140 c 256
 420 -101 393 -63 328 -57 c 257
 328 0 l 257
EndSplineSet
PickledDataWithLists: "(dp1
S'com.typemytype.robofont.layerData'
p2
(dp3
s."
EndChar
StartChar: tcedilla
Encoding: 641 355 641
GlifName: tcedilla
Width: 600
VWidth: 0
Flags: W
LayerCount: 2
Back
Fore
SplineSet
391 -57 m 257
 391 -11 l 257
 436 -8 485 5 518 26 c 257
 486 83 l 257
 457 68 424 58 385 58 c 256
 312 58 284 89 284 148 c 258
 284 462 l 257
 456 462 l 257
 466 526 l 257
 284 526 l 257
 284 656 l 257
 201 646 l 257
 201 526 l 257
 80 526 l 257
 80 462 l 257
 201 462 l 257
 201 147 l 258
 201 67 248 8 332 -7 c 257
 325 -97 l 257
 378 -97 412 -104 412 -140 c 256
 412 -170 387 -182 352 -182 c 256
 330 -182 303 -176 284 -166 c 257
 257 -214 l 257
 283 -229 322 -238 362 -238 c 256
 426 -238 483 -206 483 -140 c 256
 483 -101 456 -63 391 -57 c 257
EndSplineSet
PickledDataWithLists: "(dp1
S'com.typemytype.robofont.layerData'
p2
(dp3
s."
EndChar
StartChar: Tcaron
Encoding: 134 356 134
GlifName: Tcaron_
Width: 600
VWidth: 0
Flags: W
LayerCount: 2
Back
Fore
SplineSet
462 862 m 257
 425 904 l 257
 299 823 l 257
 174 904 l 257
 136 862 l 257
 272 754 l 257
 328 754 l 257
 462 862 l 257
341 0 m 257
 341 615 l 257
 550 615 l 257
 559 688 l 257
 40 688 l 257
 40 615 l 257
 256 615 l 257
 256 0 l 257
 341 0 l 257
EndSplineSet
PickledDataWithLists: "(dp1
S'com.typemytype.robofont.layerData'
p2
(dp3
s."
EndChar
StartChar: tcaron
Encoding: 640 357 640
GlifName: tcaron
Width: 600
VWidth: 0
Flags: W
LayerCount: 2
Back
Fore
SplineSet
518 26 m 257
 486 83 l 257
 457 68 424 58 385 58 c 256
 312 58 284 89 284 148 c 258
 284 462 l 257
 456 462 l 257
 466 526 l 257
 284 526 l 257
 284 656 l 257
 201 646 l 257
 201 526 l 257
 80 526 l 257
 80 462 l 257
 201 462 l 257
 201 147 l 258
 201 54 265 -11 377 -11 c 256
 426 -11 482 3 518 26 c 257
EndSplineSet
PickledDataWithLists: "(dp1
S'com.typemytype.robofont.layerData'
p2
(dp3
s."
EndChar
StartChar: Tbar
Encoding: 133 358 133
GlifName: Tbar_
Width: 600
VWidth: 0
Flags: W
LayerCount: 2
Back
Fore
SplineSet
341 615 m 257
 550 615 l 257
 559 688 l 257
 40 688 l 257
 40 615 l 257
 256 615 l 257
 256 417 l 257
 125 417 l 257
 125 350 l 257
 256 350 l 257
 256 0 l 257
 341 0 l 257
 341 350 l 257
 473 350 l 257
 473 417 l 257
 341 417 l 257
 341 615 l 257
EndSplineSet
PickledDataWithLists: "(dp1
S'com.typemytype.robofont.layerData'
p2
(dp3
s."
EndChar
StartChar: tbar
Encoding: 639 359 639
GlifName: tbar
Width: 600
VWidth: 0
Flags: W
LayerCount: 2
Back
Fore
SplineSet
518 26 m 257
 486 83 l 257
 457 68 424 58 385 58 c 256
 312 58 284 89 284 148 c 258
 284 288 l 257
 457 288 l 257
 457 352 l 257
 284 352 l 257
 284 462 l 257
 456 462 l 257
 466 526 l 257
 284 526 l 257
 284 656 l 257
 201 646 l 257
 201 526 l 257
 80 526 l 257
 80 462 l 257
 201 462 l 257
 201 352 l 257
 91 352 l 257
 91 288 l 257
 201 288 l 257
 201 147 l 258
 201 54 265 -11 377 -11 c 256
 426 -11 482 3 518 26 c 257
EndSplineSet
PickledDataWithLists: "(dp1
S'com.typemytype.robofont.layerData'
p2
(dp3
s."
EndChar
StartChar: Utilde
Encoding: 151 360 151
GlifName: Utilde_
Width: 600
VWidth: 0
Flags: W
LayerCount: 2
Back
Fore
SplineSet
351 771 m 256
 408 771 442 812 462 856 c 257
 408 880 l 257
 392 852 379 836 357 836 c 256
 326 836 307 884 248 884 c 256
 191 884 157 845 137 800 c 257
 191 776 l 257
 207 804 220 820 242 820 c 256
 273 820 294 771 351 771 c 256
527 223 m 258
 527 688 l 257
 441 688 l 257
 441 219 l 258
 441 114 389 63 299 63 c 256
 210 63 158 114 158 219 c 258
 158 688 l 257
 73 688 l 257
 73 223 l 258
 73 84 158 -11 299 -11 c 256
 438 -11 527 83 527 223 c 258
EndSplineSet
PickledDataWithLists: "(dp1
S'com.typemytype.robofont.layerData'
p2
(dp3
s."
EndChar
StartChar: utilde
Encoding: 1152 361 1152
GlifName: utilde
Width: 600
VWidth: 0
Flags: W
LayerCount: 2
Back
Fore
SplineSet
351 652 m 256
 408 652 442 693 462 737 c 257
 408 761 l 257
 392 733 379 717 357 717 c 256
 326 717 307 765 248 765 c 256
 191 765 157 726 137 681 c 257
 191 657 l 257
 207 685 220 701 242 701 c 256
 273 701 294 652 351 652 c 256
184 153 m 258
 184 526 l 257
 101 526 l 257
 101 143 l 258
 101 46 151 -11 253 -11 c 256
 314 -11 380 18 421 71 c 257
 428 0 l 257
 499 0 l 257
 499 526 l 257
 416 526 l 257
 416 139 l 257
 388 94 331 55 273 55 c 256
 212 55 184 84 184 153 c 258
EndSplineSet
PickledDataWithLists: "(dp1
S'com.typemytype.robofont.layerData'
p2
(dp3
s."
EndChar
StartChar: Umacron
Encoding: 145 362 145
GlifName: Umacron_
Width: 600
VWidth: 0
Flags: W
LayerCount: 2
Back
Fore
SplineSet
165 795 m 257
 434 795 l 257
 434 859 l 257
 165 859 l 257
 165 795 l 257
527 223 m 258
 527 688 l 257
 441 688 l 257
 441 219 l 258
 441 114 389 63 299 63 c 256
 210 63 158 114 158 219 c 258
 158 688 l 257
 73 688 l 257
 73 223 l 258
 73 84 158 -11 299 -11 c 256
 438 -11 527 83 527 223 c 258
EndSplineSet
PickledDataWithLists: "(dp1
S'com.typemytype.robofont.layerData'
p2
(dp3
s."
EndChar
StartChar: Ubreve
Encoding: 140 364 140
GlifName: Ubreve_
Width: 600
VWidth: 0
Flags: W
LayerCount: 2
Back
Fore
SplineSet
298 759 m 256
 375 759 440 805 448 878 c 257
 391 890 l 257
 377 851 345 823 298 823 c 256
 251 823 222 851 208 890 c 257
 151 878 l 257
 159 805 222 759 298 759 c 256
527 223 m 258
 527 688 l 257
 441 688 l 257
 441 219 l 258
 441 114 389 63 299 63 c 256
 210 63 158 114 158 219 c 258
 158 688 l 257
 73 688 l 257
 73 223 l 258
 73 84 158 -11 299 -11 c 256
 438 -11 527 83 527 223 c 258
EndSplineSet
PickledDataWithLists: "(dp1
S'com.typemytype.robofont.layerData'
p2
(dp3
s."
EndChar
StartChar: Uring
Encoding: 150 366 150
GlifName: Uring_
Width: 600
VWidth: 0
Flags: W
LayerCount: 2
Back
Fore
SplineSet
300 942 m 256
 236 942 189 897 189 839 c 256
 189 783 236 738 300 738 c 256
 364 738 411 783 411 839 c 256
 411 897 364 942 300 942 c 256
300 896 m 256
 334 896 354 875 354 839 c 256
 354 804 334 783 300 783 c 256
 267 783 246 804 246 839 c 256
 246 875 267 896 300 896 c 256
527 223 m 258
 527 688 l 257
 441 688 l 257
 441 219 l 258
 441 114 389 63 299 63 c 256
 210 63 158 114 158 219 c 258
 158 688 l 257
 73 688 l 257
 73 223 l 258
 73 84 158 -11 299 -11 c 256
 438 -11 527 83 527 223 c 258
EndSplineSet
PickledDataWithLists: "(dp1
S'com.typemytype.robofont.layerData'
p2
(dp3
s."
EndChar
StartChar: uring
Encoding: 1151 367 1151
GlifName: uring
Width: 600
VWidth: 0
Flags: W
LayerCount: 2
Back
Fore
SplineSet
300 823 m 256
 236 823 189 778 189 720 c 256
 189 664 236 619 300 619 c 256
 364 619 411 664 411 720 c 256
 411 778 364 823 300 823 c 256
300 777 m 256
 334 777 354 756 354 720 c 256
 354 685 334 664 300 664 c 256
 267 664 246 685 246 720 c 256
 246 756 267 777 300 777 c 256
184 153 m 258
 184 526 l 257
 101 526 l 257
 101 143 l 258
 101 46 151 -11 253 -11 c 256
 314 -11 380 18 421 71 c 257
 428 0 l 257
 499 0 l 257
 499 526 l 257
 416 526 l 257
 416 139 l 257
 388 94 331 55 273 55 c 256
 212 55 184 84 184 153 c 258
EndSplineSet
PickledDataWithLists: "(dp1
S'com.typemytype.robofont.layerData'
p2
(dp3
s."
EndChar
StartChar: Uhungarumlaut
Encoding: 144 368 144
GlifName: Uhungarumlaut_
Width: 600
VWidth: 0
Flags: W
LayerCount: 2
Back
Fore
SplineSet
434 954 m 257
 347 781 l 257
 399 753 l 257
 507 916 l 257
 434 954 l 257
260 954 m 257
 183 781 l 257
 237 755 l 257
 334 919 l 257
 260 954 l 257
527 223 m 258
 527 688 l 257
 441 688 l 257
 441 219 l 258
 441 114 389 63 299 63 c 256
 210 63 158 114 158 219 c 258
 158 688 l 257
 73 688 l 257
 73 223 l 258
 73 84 158 -11 299 -11 c 256
 438 -11 527 83 527 223 c 258
EndSplineSet
PickledDataWithLists: "(dp1
S'com.typemytype.robofont.layerData'
p2
(dp3
s."
EndChar
StartChar: uhungarumlaut
Encoding: 675 369 675
GlifName: uhungarumlaut
Width: 600
VWidth: 0
Flags: W
LayerCount: 2
Back
Fore
SplineSet
428 835 m 257
 341 662 l 257
 393 634 l 257
 501 797 l 257
 428 835 l 257
254 835 m 257
 177 662 l 257
 231 636 l 257
 328 800 l 257
 254 835 l 257
184 153 m 258
 184 526 l 257
 101 526 l 257
 101 143 l 258
 101 46 151 -11 253 -11 c 256
 314 -11 380 18 421 71 c 257
 428 0 l 257
 499 0 l 257
 499 526 l 257
 416 526 l 257
 416 139 l 257
 388 94 331 55 273 55 c 256
 212 55 184 84 184 153 c 258
EndSplineSet
PickledDataWithLists: "(dp1
S'com.typemytype.robofont.layerData'
p2
(dp3
s."
EndChar
StartChar: Uogonek
Encoding: 146 370 146
GlifName: Uogonek_
Width: 600
VWidth: 0
Flags: W
LayerCount: 2
Back
Fore
SplineSet
527 688 m 257
 441 688 l 257
 441 219 l 258
 441 114 389 63 299 63 c 256
 210 63 158 114 158 219 c 258
 158 688 l 257
 73 688 l 257
 73 223 l 258
 73 96 144 6 263 -9 c 257
 203 -42 176 -82 176 -131 c 256
 176 -186 221 -229 297 -229 c 256
 324 -229 341 -226 361 -222 c 257
 369 -155 l 257
 344 -161 328 -162 307 -162 c 256
 266 -162 252 -144 252 -115 c 256
 252 -79 273 -46 375 0 c 257
 470 28 527 111 527 223 c 258
 527 688 l 257
EndSplineSet
PickledDataWithLists: "(dp1
S'com.typemytype.robofont.layerData'
p2
(dp3
s."
EndChar
StartChar: uogonek
Encoding: 1145 371 1145
GlifName: uogonek
Width: 600
VWidth: 0
Flags: W
LayerCount: 2
Back
Fore
SplineSet
499 0 m 257
 499 526 l 257
 416 526 l 257
 416 139 l 257
 388 94 331 55 273 55 c 256
 212 55 184 84 184 153 c 258
 184 526 l 257
 101 526 l 257
 101 143 l 258
 101 46 151 -11 253 -11 c 256
 314 -11 380 18 421 71 c 257
 427 10 l 257
 338 -26 299 -72 299 -131 c 256
 299 -186 344 -229 420 -229 c 256
 447 -229 464 -226 484 -222 c 257
 492 -155 l 257
 467 -161 451 -162 430 -162 c 256
 389 -162 375 -144 375 -115 c 256
 375 -79 396 -46 499 0 c 257
EndSplineSet
PickledDataWithLists: "(dp1
S'com.typemytype.robofont.layerData'
p2
(dp3
s."
EndChar
StartChar: Wcircumflex
Encoding: 155 372 155
GlifName: Wcircumflex_
Width: 600
VWidth: 0
Flags: W
LayerCount: 2
Back
Fore
SplineSet
463 803 m 257
 329 910 l 257
 273 910 l 257
 137 803 l 257
 175 760 l 257
 300 841 l 257
 426 760 l 257
 463 803 l 257
490 0 m 257
 595 688 l 257
 516 688 l 257
 434 107 l 257
 430 107 l 257
 354 608 l 257
 248 608 l 257
 166 103 l 257
 162 103 l 257
 91 688 l 257
 5 688 l 257
 102 0 l 257
 218 0 l 257
 296 505 l 257
 300 505 l 257
 377 0 l 257
 490 0 l 257
EndSplineSet
PickledDataWithLists: "(dp1
S'com.typemytype.robofont.layerData'
p2
(dp3
s."
EndChar
StartChar: wcircumflex
Encoding: 1156 373 1156
GlifName: wcircumflex
Width: 600
VWidth: 0
Flags: W
LayerCount: 2
Back
Fore
SplineSet
137 670 m 257
 177 629 l 257
 301 720 l 257
 425 629 l 257
 463 670 l 257
 329 789 l 257
 273 789 l 257
 137 670 l 257
372 0 m 257
 490 0 l 257
 582 526 l 257
 501 526 l 257
 433 66 l 257
 429 66 l 257
 354 459 l 257
 255 459 l 257
 175 64 l 257
 171 64 l 257
 103 526 l 257
 18 526 l 257
 114 0 l 257
 229 0 l 257
 300 378 l 257
 304 378 l 257
 372 0 l 257
EndSplineSet
PickledDataWithLists: "(dp1
S'com.typemytype.robofont.layerData'
p2
(dp3
s."
EndChar
StartChar: Ycircumflex
Encoding: 162 374 162
GlifName: Ycircumflex_
Width: 600
VWidth: 0
Flags: W
LayerCount: 2
Back
Fore
SplineSet
466 803 m 257
 332 910 l 257
 276 910 l 257
 140 803 l 257
 178 760 l 257
 303 841 l 257
 429 760 l 257
 466 803 l 257
343 0 m 257
 343 266 l 257
 576 688 l 257
 487 688 l 257
 302 343 l 257
 119 688 l 257
 24 688 l 257
 257 265 l 257
 257 0 l 257
 343 0 l 257
EndSplineSet
PickledDataWithLists: "(dp1
S'com.typemytype.robofont.layerData'
p2
(dp3
s."
EndChar
StartChar: ycircumflex
Encoding: 1164 375 1164
GlifName: ycircumflex
Width: 600
VWidth: 0
Flags: W
LayerCount: 2
Back
Fore
SplineSet
137 670 m 257
 177 629 l 257
 301 720 l 257
 425 629 l 257
 463 670 l 257
 329 789 l 257
 273 789 l 257
 137 670 l 257
353 -3 m 258
 538 526 l 257
 452 526 l 257
 303 63 l 257
 151 526 l 257
 62 526 l 257
 246 0 l 257
 274 0 l 257
 246 -82 215 -126 106 -145 c 257
 119 -212 l 257
 258 -197 316 -110 353 -3 c 258
EndSplineSet
PickledDataWithLists: "(dp1
S'com.typemytype.robofont.layerData'
p2
(dp3
s."
EndChar
StartChar: Zacute
Encoding: 166 377 166
GlifName: Zacute_
Width: 600
VWidth: 0
Flags: W
LayerCount: 2
Back
Fore
SplineSet
439 834 m 257
 402 905 l 257
 204 800 l 257
 226 756 l 257
 439 834 l 257
527 74 m 257
 166 74 l 257
 528 618 l 257
 528 688 l 257
 108 688 l 257
 108 615 l 257
 436 615 l 257
 72 70 l 257
 72 0 l 257
 517 0 l 257
 527 74 l 257
EndSplineSet
PickledDataWithLists: "(dp1
S'com.typemytype.robofont.layerData'
p2
(dp3
s."
EndChar
StartChar: zacute
Encoding: 1170 378 1170
GlifName: zacute
Width: 600
VWidth: 0
Flags: W
LayerCount: 2
Back
Fore
SplineSet
380 785 m 257
 195 670 l 257
 223 624 l 257
 424 714 l 257
 380 785 l 257
498 71 m 257
 204 71 l 257
 495 462 l 257
 495 526 l 257
 126 526 l 257
 126 454 l 257
 395 454 l 257
 103 63 l 257
 103 0 l 257
 487 0 l 257
 498 71 l 257
EndSplineSet
PickledDataWithLists: "(dp1
S'com.typemytype.robofont.layerData'
p2
(dp3
s."
EndChar
StartChar: Zdotaccent
Encoding: 169 379 169
GlifName: Zdotaccent_
Width: 600
VWidth: 0
Flags: W
LayerCount: 2
Back
Fore
SplineSet
317 892 m 256
 281 892 257 866 257 833 c 256
 257 799 281 774 317 774 c 256
 354 774 378 799 378 833 c 256
 378 866 354 892 317 892 c 256
527 74 m 257
 166 74 l 257
 528 618 l 257
 528 688 l 257
 108 688 l 257
 108 615 l 257
 436 615 l 257
 72 70 l 257
 72 0 l 257
 517 0 l 257
 527 74 l 257
EndSplineSet
PickledDataWithLists: "(dp1
S'com.typemytype.robofont.layerData'
p2
(dp3
s."
EndChar
StartChar: zdotaccent
Encoding: 1173 380 1173
GlifName: zdotaccent
Width: 600
VWidth: 0
Flags: W
LayerCount: 2
Back
Fore
SplineSet
309 773 m 256
 273 773 249 747 249 714 c 256
 249 680 273 655 309 655 c 256
 346 655 370 680 370 714 c 256
 370 747 346 773 309 773 c 256
498 71 m 257
 204 71 l 257
 495 462 l 257
 495 526 l 257
 126 526 l 257
 126 454 l 257
 395 454 l 257
 103 63 l 257
 103 0 l 257
 487 0 l 257
 498 71 l 257
EndSplineSet
PickledDataWithLists: "(dp1
S'com.typemytype.robofont.layerData'
p2
(dp3
s."
EndChar
StartChar: Zcaron
Encoding: 168 381 168
GlifName: Zcaron_
Width: 600
VWidth: 0
Flags: W
LayerCount: 2
Back
Fore
SplineSet
482 862 m 257
 445 904 l 257
 319 823 l 257
 194 904 l 257
 156 862 l 257
 292 754 l 257
 348 754 l 257
 482 862 l 257
527 74 m 257
 166 74 l 257
 528 618 l 257
 528 688 l 257
 108 688 l 257
 108 615 l 257
 436 615 l 257
 72 70 l 257
 72 0 l 257
 517 0 l 257
 527 74 l 257
EndSplineSet
PickledDataWithLists: "(dp1
S'com.typemytype.robofont.layerData'
p2
(dp3
s."
EndChar
StartChar: zcaron
Encoding: 1172 382 1172
GlifName: zcaron
Width: 600
VWidth: 0
Flags: W
LayerCount: 2
Back
Fore
SplineSet
473 748 m 257
 435 789 l 257
 311 698 l 257
 187 789 l 257
 147 748 l 257
 283 629 l 257
 339 629 l 257
 473 748 l 257
498 71 m 257
 204 71 l 257
 495 462 l 257
 495 526 l 257
 126 526 l 257
 126 454 l 257
 395 454 l 257
 103 63 l 257
 103 0 l 257
 487 0 l 257
 498 71 l 257
EndSplineSet
PickledDataWithLists: "(dp1
S'com.typemytype.robofont.layerData'
p2
(dp3
s."
EndChar
StartChar: florin
Encoding: 361 402 361
GlifName: florin
Width: 600
VWidth: 0
Flags: W
LayerCount: 2
Back
Fore
SplineSet
369 749 m 256
 266 749 209 687 209 601 c 258
 209 526 l 257
 125 526 l 257
 125 461 l 257
 209 461 l 257
 209 23 l 258
 209 -93 177 -118 108 -151 c 257
 138 -211 l 257
 246 -162 291 -118 291 39 c 258
 291 461 l 257
 410 461 l 257
 420 526 l 257
 291 526 l 257
 291 603 l 258
 291 655 313 681 371 681 c 256
 398 681 430 676 463 661 c 257
 491 722 l 257
 449 740 417 749 369 749 c 256
EndSplineSet
PickledDataWithLists: "(dp1
S'com.typemytype.robofont.layerData'
p2
(dp3
s."
EndChar
StartChar: Oslashacute
Encoding: 111 510 111
GlifName: Oslashacute_
Width: 600
VWidth: 0
Flags: W
LayerCount: 2
Back
Fore
SplineSet
207 756 m 257
 420 834 l 257
 383 905 l 257
 185 800 l 257
 207 756 l 257
137 342 m 256
 137 526 184 627 300 627 c 256
 318 627 334 625 348 621 c 257
 197 97 l 257
 156 138 137 215 137 342 c 256
300 61 m 256
 282 61 266 63 251 67 c 257
 402 592 l 257
 445 551 463 472 463 344 c 256
 463 160 416 61 300 61 c 256
433 660 m 257
 472 784 l 257
 397 803 l 257
 365 692 l 257
 345 697 323 700 300 700 c 256
 133 700 47 551 47 342 c 256
 47 197 88 85 167 29 c 257
 130 -91 l 257
 204 -110 l 257
 236 -3 l 257
 256 -8 277 -11 300 -11 c 256
 467 -11 553 135 553 344 c 256
 553 489 512 603 433 660 c 257
EndSplineSet
PickledDataWithLists: "(dp1
S'com.typemytype.robofont.layerData'
p2
(dp3
s."
EndChar
StartChar: Scommaaccent
Encoding: 129 536 129
GlifName: Scommaaccent_
Width: 600
VWidth: 0
Flags: W
LayerCount: 2
Back
Fore
SplineSet
536 191 m 256
 536 322 442 367 335 398 c 256
 204 436 161 466 161 525 c 256
 161 594 224 628 299 628 c 256
 358 628 416 609 465 565 c 257
 516 621 l 257
 458 671 391 700 297 700 c 256
 165 700 74 626 74 523 c 256
 74 413 160 364 296 324 c 256
 415 289 447 256 447 189 c 256
 447 102 370 61 287 61 c 256
 202 61 143 89 95 134 c 257
 44 76 l 257
 102 20 185 -11 285 -11 c 256
 445 -11 536 72 536 191 c 256
300 -71 m 256
 270 -71 246 -93 246 -124 c 256
 246 -141 255 -158 268 -168 c 257
 239 -286 l 257
 289 -286 l 257
 339 -178 l 258
 350 -155 354 -141 354 -124 c 256
 354 -93 331 -71 300 -71 c 256
EndSplineSet
PickledDataWithLists: "(dp1
S'com.typemytype.robofont.layerData'
p2
(dp3
s."
EndChar
StartChar: uni021A
Encoding: 681 538 681
GlifName: uni021A_
Width: 600
VWidth: 0
Flags: W
LayerCount: 2
Back
Fore
SplineSet
341 0 m 257
 341 615 l 257
 550 615 l 257
 559 688 l 257
 40 688 l 257
 40 615 l 257
 256 615 l 257
 256 0 l 257
 341 0 l 257
302 -71 m 256
 272 -71 248 -93 248 -124 c 256
 248 -141 257 -158 270 -168 c 257
 241 -286 l 257
 291 -286 l 257
 341 -178 l 258
 352 -155 356 -141 356 -124 c 256
 356 -93 333 -71 302 -71 c 256
EndSplineSet
PickledDataWithLists: "(dp1
S'com.typemytype.robofont.layerData'
p2
(dp3
s."
EndChar
StartChar: uni021B
Encoding: 682 539 682
GlifName: uni021B_
Width: 600
VWidth: 0
Flags: W
LayerCount: 2
Back
Fore
SplineSet
518 26 m 257
 486 83 l 257
 457 68 424 58 385 58 c 256
 312 58 284 89 284 148 c 258
 284 462 l 257
 456 462 l 257
 466 526 l 257
 284 526 l 257
 284 656 l 257
 201 646 l 257
 201 526 l 257
 80 526 l 257
 80 462 l 257
 201 462 l 257
 201 147 l 258
 201 54 265 -11 377 -11 c 256
 426 -11 482 3 518 26 c 257
374 -71 m 256
 344 -71 320 -93 320 -124 c 256
 320 -141 329 -158 342 -168 c 257
 313 -286 l 257
 363 -286 l 257
 413 -178 l 258
 424 -155 428 -141 428 -124 c 256
 428 -93 405 -71 374 -71 c 256
EndSplineSet
PickledDataWithLists: "(dp1
S'com.typemytype.robofont.layerData'
p2
(dp3
s."
EndChar
StartChar: jdotless
Encoding: 434 567 434
GlifName: jdotless
Width: 600
VWidth: 0
Flags: W
LayerCount: 2
Back
Fore
SplineSet
445 83 m 258
 445 526 l 257
 142 526 l 257
 142 461 l 257
 362 461 l 257
 362 78 l 258
 362 -63 252 -122 96 -148 c 257
 110 -212 l 257
 321 -176 445 -92 445 83 c 258
EndSplineSet
PickledDataWithLists: "(dp1
S'com.typemytype.robofont.layerData'
p2
(dp3
s."
EndChar
StartChar: uni02BC
Encoding: 683 700 683
GlifName: uni02BC_
Width: 600
VWidth: 0
Flags: W
LayerCount: 2
Back
Fore
SplineSet
293 749 m 256
 263 749 238 726 238 696 c 256
 238 678 248 663 261 651 c 257
 231 530 l 257
 280 530 l 257
 322 619 l 258
 343 665 347 679 347 695 c 256
 347 726 324 749 293 749 c 256
EndSplineSet
PickledDataWithLists: "(dp1
S'com.typemytype.robofont.layerData'
p2
(dp3
s."
EndChar
StartChar: circumflex
Encoding: 260 710 260
GlifName: circumflex
Width: 600
VWidth: 0
Flags: W
LayerCount: 2
Back
Fore
SplineSet
137 670 m 257
 177 629 l 257
 301 720 l 257
 425 629 l 257
 463 670 l 257
 329 789 l 257
 273 789 l 257
 137 670 l 257
EndSplineSet
PickledDataWithLists: "(dp1
S'com.typemytype.robofont.layerData'
p2
(dp3
s."
EndChar
StartChar: caron
Encoding: 245 711 245
GlifName: caron
Width: 600
VWidth: 0
Flags: W
LayerCount: 2
Back
Fore
SplineSet
463 748 m 257
 425 789 l 257
 301 698 l 257
 177 789 l 257
 137 748 l 257
 273 629 l 257
 329 629 l 257
 463 748 l 257
EndSplineSet
PickledDataWithLists: "(dp1
S'com.typemytype.robofont.layerData'
p2
(dp3
s."
EndChar
StartChar: firsttonechinese
Encoding: 351 713 351
GlifName: firsttonechinese
Width: 600
VWidth: 0
Flags: W
LayerCount: 2
Back
Fore
SplineSet
165 683 m 257
 434 683 l 257
 434 747 l 257
 165 747 l 257
 165 683 l 257
EndSplineSet
PickledDataWithLists: "(dp1
S'com.typemytype.robofont.layerData'
p2
(dp3
s."
EndChar
StartChar: breve
Encoding: 233 728 233
GlifName: breve
Width: 600
VWidth: 0
Flags: W
LayerCount: 2
Back
Fore
SplineSet
298 630 m 256
 390 630 440 705 448 765 c 257
 391 778 l 257
 376 728 346 694 298 694 c 256
 251 694 222 728 208 778 c 257
 151 765 l 257
 159 705 207 630 298 630 c 256
EndSplineSet
PickledDataWithLists: "(dp1
S'com.typemytype.robofont.layerData'
p2
(dp3
s."
EndChar
StartChar: dotaccent
Encoding: 293 729 293
GlifName: dotaccent
Width: 600
VWidth: 0
Flags: W
LayerCount: 2
Back
Fore
SplineSet
299 773 m 256
 263 773 239 747 239 714 c 256
 239 680 263 655 299 655 c 256
 336 655 360 680 360 714 c 256
 360 747 336 773 299 773 c 256
EndSplineSet
PickledDataWithLists: "(dp1
S'com.typemytype.robofont.layerData'
p2
(dp3
s."
EndChar
StartChar: ring
Encoding: 590 730 590
GlifName: ring
Width: 600
VWidth: 0
Flags: W
LayerCount: 2
Back
Fore
SplineSet
300 823 m 256
 236 823 189 778 189 720 c 256
 189 664 236 619 300 619 c 256
 364 619 411 664 411 720 c 256
 411 778 364 823 300 823 c 256
300 777 m 256
 334 777 354 756 354 720 c 256
 354 685 334 664 300 664 c 256
 267 664 246 685 246 720 c 256
 246 756 267 777 300 777 c 256
EndSplineSet
PickledDataWithLists: "(dp1
S'com.typemytype.robofont.layerData'
p2
(dp3
s."
EndChar
StartChar: ogonek
Encoding: 511 731 511
GlifName: ogonek
Width: 600
VWidth: 0
Flags: W
LayerCount: 2
Back
Fore
SplineSet
402 0 m 257
 388 30 l 257
 258 -8 202 -61 202 -131 c 256
 202 -186 247 -229 323 -229 c 256
 350 -229 367 -226 387 -222 c 257
 395 -155 l 257
 370 -161 354 -162 333 -162 c 256
 292 -162 278 -144 278 -115 c 256
 278 -79 299 -46 402 0 c 257
EndSplineSet
PickledDataWithLists: "(dp1
S'com.typemytype.robofont.layerData'
p2
(dp3
s."
EndChar
StartChar: hungarumlaut
Encoding: 399 733 399
GlifName: hungarumlaut
Width: 600
VWidth: 0
Flags: W
LayerCount: 2
Back
Fore
SplineSet
389 835 m 257
 302 662 l 257
 354 634 l 257
 462 797 l 257
 389 835 l 257
215 835 m 257
 138 662 l 257
 192 636 l 257
 289 800 l 257
 215 835 l 257
EndSplineSet
PickledDataWithLists: "(dp1
S'com.typemytype.robofont.layerData'
p2
(dp3
s."
EndChar
StartChar: gravecomb
Encoding: 378 768 378
GlifName: gravecomb
Width: 0
VWidth: 0
Flags: W
LayerCount: 2
Back
Fore
SplineSet
415 627 m 257
 231 735 l 257
 185 664 l 257
 390 582 l 257
 415 627 l 257
EndSplineSet
PickledDataWithLists: "(dp1
S'com.typemytype.robofont.layerData'
p2
(dp3
s."
EndChar
StartChar: acutecomb
Encoding: 179 769 179
GlifName: acutecomb
Width: 0
VWidth: 0
Flags: W
LayerCount: 2
Back
Fore
SplineSet
418 697 m 257
 380 768 l 257
 182 663 l 257
 205 618 l 257
 418 697 l 257
EndSplineSet
PickledDataWithLists: "(dp1
S'com.typemytype.robofont.layerData'
p2
(dp3
s."
EndChar
StartChar: uni0302
Encoding: 684 770 684
GlifName: uni0302
Width: 0
VWidth: 0
Flags: W
LayerCount: 2
Back
Fore
SplineSet
463 641 m 257
 328 748 l 257
 272 748 l 257
 137 641 l 257
 175 598 l 257
 300 679 l 257
 426 598 l 257
 463 641 l 257
EndSplineSet
PickledDataWithLists: "(dp1
S'com.typemytype.robofont.layerData'
p2
(dp3
s."
EndChar
StartChar: tildecomb
Encoding: 654 771 654
GlifName: tildecomb
Width: 0
VWidth: 0
Flags: W
LayerCount: 2
Back
Fore
SplineSet
353 598 m 256
 409 598 444 639 463 683 c 257
 409 707 l 257
 393 679 380 663 358 663 c 256
 327 663 308 711 249 711 c 256
 192 711 158 672 138 627 c 257
 192 603 l 257
 208 631 221 647 243 647 c 256
 274 647 295 598 353 598 c 256
EndSplineSet
PickledDataWithLists: "(dp1
S'com.typemytype.robofont.layerData'
p2
(dp3
s."
EndChar
StartChar: uni0304
Encoding: 685 772 685
GlifName: uni0304
Width: 0
VWidth: 0
Flags: W
LayerCount: 2
Back
Fore
SplineSet
166 622 m 257
 435 622 l 257
 435 686 l 257
 166 686 l 257
 166 622 l 257
EndSplineSet
PickledDataWithLists: "(dp1
S'com.typemytype.robofont.layerData'
p2
(dp3
s."
EndChar
StartChar: uni0306
Encoding: 686 774 686
GlifName: uni0306
Width: 0
VWidth: 0
Flags: W
LayerCount: 2
Back
Fore
SplineSet
298 586 m 256
 376 586 441 632 449 704 c 257
 392 717 l 257
 378 677 346 650 298 650 c 256
 251 650 222 677 208 717 c 257
 151 704 l 257
 159 632 222 586 298 586 c 256
EndSplineSet
PickledDataWithLists: "(dp1
S'com.typemytype.robofont.layerData'
p2
(dp3
s."
EndChar
StartChar: uni0307
Encoding: 687 775 687
GlifName: uni0307
Width: 0
VWidth: 0
Flags: W
LayerCount: 2
Back
Fore
SplineSet
300 719 m 256
 264 719 240 693 240 660 c 256
 240 626 264 601 300 601 c 256
 337 601 361 626 361 660 c 256
 361 693 337 719 300 719 c 256
EndSplineSet
PickledDataWithLists: "(dp1
S'com.typemytype.robofont.layerData'
p2
(dp3
s."
EndChar
StartChar: uni0308
Encoding: 688 776 688
GlifName: uni0308
Width: 0
VWidth: 0
Flags: W
LayerCount: 2
Back
Fore
SplineSet
404 594 m 256
 435 594 458 617 458 647 c 256
 458 678 435 701 404 701 c 256
 373 701 350 678 350 647 c 256
 350 617 373 594 404 594 c 256
198 594 m 256
 228 594 251 617 251 647 c 256
 251 678 228 701 198 701 c 256
 166 701 143 678 143 647 c 256
 143 617 166 594 198 594 c 256
EndSplineSet
PickledDataWithLists: "(dp1
S'com.typemytype.robofont.layerData'
p2
(dp3
s."
EndChar
StartChar: uni030A
Encoding: 689 778 689
GlifName: uni030A_
Width: 0
VWidth: 0
Flags: W
LayerCount: 2
Back
Fore
SplineSet
300 769 m 256
 236 769 189 724 189 666 c 256
 189 610 236 565 300 565 c 256
 364 565 411 610 411 666 c 256
 411 724 364 769 300 769 c 256
300 723 m 256
 334 723 354 702 354 666 c 256
 354 631 334 610 300 610 c 256
 267 610 246 631 246 666 c 256
 246 702 267 723 300 723 c 256
EndSplineSet
PickledDataWithLists: "(dp1
S'com.typemytype.robofont.layerData'
p2
(dp3
s."
EndChar
StartChar: uni030B
Encoding: 690 779 690
GlifName: uni030B_
Width: 0
VWidth: 0
Flags: W
LayerCount: 2
Back
Fore
SplineSet
389 781 m 257
 302 608 l 257
 354 580 l 257
 462 743 l 257
 389 781 l 257
215 781 m 257
 138 608 l 257
 192 582 l 257
 289 746 l 257
 215 781 l 257
EndSplineSet
PickledDataWithLists: "(dp1
S'com.typemytype.robofont.layerData'
p2
(dp3
s."
EndChar
StartChar: uni030C
Encoding: 691 780 691
GlifName: uni030C_
Width: 0
VWidth: 0
Flags: W
LayerCount: 2
Back
Fore
SplineSet
463 688 m 257
 426 731 l 257
 300 650 l 257
 175 731 l 257
 137 688 l 257
 272 581 l 257
 328 581 l 257
 463 688 l 257
EndSplineSet
PickledDataWithLists: "(dp1
S'com.typemytype.robofont.layerData'
p2
(dp3
s."
EndChar
StartChar: uni0313
Encoding: 692 787 692
GlifName: uni0313
Width: 0
VWidth: 0
Flags: W
LayerCount: 2
Back
Fore
SplineSet
320 762 m 256
 290 762 266 740 266 709 c 256
 266 692 274 675 288 665 c 257
 258 547 l 257
 309 547 l 257
 359 655 l 258
 369 678 374 692 374 709 c 256
 374 740 350 762 320 762 c 256
EndSplineSet
PickledDataWithLists: "(dp1
S'com.typemytype.robofont.layerData'
p2
(dp3
s."
EndChar
StartChar: uni0314
Encoding: 693 788 693
GlifName: uni0314
Width: 0
VWidth: 0
Flags: W
LayerCount: 2
Back
Fore
SplineSet
394 559 m 256
 424 559 448 582 448 612 c 256
 448 630 439 646 426 657 c 257
 455 774 l 257
 405 774 l 257
 355 667 l 258
 344 644 340 629 340 612 c 256
 340 582 363 559 394 559 c 256
EndSplineSet
PickledDataWithLists: "(dp1
S'com.typemytype.robofont.layerData'
p2
(dp3
s."
EndChar
StartChar: uni0326
Encoding: 694 806 694
GlifName: uni0326
Width: 0
VWidth: 0
Flags: W
LayerCount: 2
Back
Fore
SplineSet
303 -71 m 256
 273 -71 249 -93 249 -124 c 256
 249 -141 258 -158 271 -168 c 257
 242 -286 l 257
 292 -286 l 257
 342 -178 l 258
 353 -155 357 -141 357 -124 c 256
 357 -93 334 -71 303 -71 c 256
EndSplineSet
PickledDataWithLists: "(dp1
S'com.typemytype.robofont.layerData'
p2
(dp3
s."
EndChar
StartChar: uni0327
Encoding: 696 807 696
GlifName: uni0327
Width: 0
VWidth: 0
Flags: W
LayerCount: 2
Back
Fore
SplineSet
342 -152 m 256
 342 -182 317 -193 282 -193 c 256
 260 -193 233 -187 214 -177 c 257
 188 -225 l 257
 213 -240 252 -249 292 -249 c 256
 356 -249 414 -217 414 -152 c 256
 414 -112 386 -74 321 -68 c 257
 321 5 l 257
 264 5 l 257
 255 -109 l 257
 308 -109 342 -116 342 -152 c 256
EndSplineSet
PickledDataWithLists: "(dp1
S'com.typemytype.robofont.layerData'
p2
(dp3
s."
EndChar
StartChar: uni0335
Encoding: 697 821 697
GlifName: uni0335
Width: 0
VWidth: 0
Flags: W
LayerCount: 2
Back
Fore
SplineSet
128 277 m 257
 471 277 l 257
 471 344 l 257
 128 344 l 257
 128 277 l 257
EndSplineSet
PickledDataWithLists: "(dp1
S'com.typemytype.robofont.layerData'
p2
(dp3
s."
EndChar
StartChar: uni0336
Encoding: 698 822 698
GlifName: uni0336
Width: 0
VWidth: 0
Flags: W
LayerCount: 2
Back
Fore
SplineSet
-25 277 m 257
 626 277 l 257
 626 344 l 257
 -25 344 l 257
 -25 277 l 257
EndSplineSet
PickledDataWithLists: "(dp1
S'com.typemytype.robofont.layerData'
p2
(dp3
s."
EndChar
StartChar: tonos
Encoding: 655 900 655
GlifName: tonos
Width: 600
VWidth: 0
Flags: W
LayerCount: 2
Back
Fore
SplineSet
273 806 m 257
 235 601 l 257
 298 590 l 257
 365 790 l 257
 273 806 l 257
EndSplineSet
PickledDataWithLists: "(dp1
S'com.typemytype.robofont.layerData'
p2
(dp3
s."
EndChar
StartChar: dieresistonos
Encoding: 285 901 285
GlifName: dieresistonos
Width: 600
VWidth: 0
Flags: W
LayerCount: 2
Back
Fore
SplineSet
392 883 m 257
 296 900 l 257
 267 724 l 257
 332 714 l 257
 392 883 l 257
411 720 m 256
 381 720 357 697 357 666 c 256
 357 635 381 613 411 613 c 256
 443 613 466 635 466 666 c 256
 466 697 443 720 411 720 c 256
187 720 m 256
 156 720 132 697 132 666 c 256
 132 635 156 613 187 613 c 256
 218 613 241 635 241 666 c 256
 241 697 218 720 187 720 c 256
EndSplineSet
PickledDataWithLists: "(dp1
S'com.typemytype.robofont.layerData'
p2
(dp3
s."
EndChar
StartChar: Alphatonos
Encoding: 10 902 10
GlifName: Alphatonos_
Width: 600
VWidth: 0
Flags: W
LayerCount: 2
Back
Fore
SplineSet
97 703 m 257
 50 519 l 257
 114 508 l 257
 188 688 l 257
 97 703 l 257
412 247 m 257
 183 247 l 257
 298 616 l 257
 412 247 l 257
161 176 m 257
 434 176 l 257
 489 0 l 257
 579 0 l 257
 355 688 l 257
 245 688 l 257
 21 0 l 257
 105 0 l 257
 161 176 l 257
EndSplineSet
PickledDataWithLists: "(dp1
S'com.typemytype.robofont.layerData'
p2
(dp3
s."
EndChar
StartChar: Epsilontonos
Encoding: 42 904 42
GlifName: Epsilontonos_
Width: 600
VWidth: 0
Flags: W
LayerCount: 2
Back
Fore
SplineSet
16 703 m 257
 -31 519 l 257
 33 508 l 257
 107 688 l 257
 16 703 l 257
212 385 m 257
 212 618 l 257
 506 618 l 257
 516 688 l 257
 126 688 l 257
 126 0 l 257
 525 0 l 257
 525 69 l 257
 212 69 l 257
 212 314 l 257
 467 314 l 257
 467 385 l 257
 212 385 l 257
EndSplineSet
PickledDataWithLists: "(dp1
S'com.typemytype.robofont.layerData'
p2
(dp3
s."
EndChar
StartChar: Etatonos
Encoding: 44 905 44
GlifName: Etatonos_
Width: 600
VWidth: 0
Flags: W
LayerCount: 2
Back
Fore
SplineSet
-39 703 m 257
 -86 519 l 257
 -22 508 l 257
 52 688 l 257
 -39 703 l 257
431 328 m 257
 431 0 l 257
 516 0 l 257
 516 688 l 257
 431 688 l 257
 431 397 l 257
 169 397 l 257
 169 688 l 257
 84 688 l 257
 84 0 l 257
 169 0 l 257
 169 328 l 257
 431 328 l 257
EndSplineSet
PickledDataWithLists: "(dp1
S'com.typemytype.robofont.layerData'
p2
(dp3
s."
EndChar
StartChar: Iotatonos
Encoding: 73 906 73
GlifName: Iotatonos_
Width: 600
VWidth: 0
Flags: W
LayerCount: 2
Back
Fore
SplineSet
-10 703 m 257
 -57 519 l 257
 7 508 l 257
 81 688 l 257
 -10 703 l 257
497 620 m 257
 497 688 l 257
 103 688 l 257
 103 620 l 257
 257 620 l 257
 257 69 l 257
 103 69 l 257
 103 0 l 257
 497 0 l 257
 497 69 l 257
 343 69 l 257
 343 620 l 257
 497 620 l 257
EndSplineSet
PickledDataWithLists: "(dp1
S'com.typemytype.robofont.layerData'
p2
(dp3
s."
EndChar
StartChar: Upsilontonos
Encoding: 149 910 149
GlifName: Upsilontonos_
Width: 600
VWidth: 0
Flags: W
LayerCount: 2
Back
Fore
SplineSet
576 688 m 257
 487 688 l 257
 302 343 l 257
 119 688 l 257
 26 688 l 257
 -65 703 l 257
 -112 519 l 257
 -48 508 l 257
 25 686 l 257
 257 265 l 257
 257 0 l 257
 343 0 l 257
 343 266 l 257
 576 688 l 257
EndSplineSet
PickledDataWithLists: "(dp1
S'com.typemytype.robofont.layerData'
p2
(dp3
s."
EndChar
StartChar: iotadieresistonos
Encoding: 429 912 429
GlifName: iotadieresistonos
Width: 600
VWidth: 0
Flags: W
LayerCount: 2
Back
Fore
SplineSet
365 883 m 257
 269 900 l 257
 240 724 l 257
 305 714 l 257
 365 883 l 257
384 720 m 256
 354 720 330 697 330 666 c 256
 330 635 354 613 384 613 c 256
 416 613 439 635 439 666 c 256
 439 697 416 720 384 720 c 256
160 720 m 256
 129 720 105 697 105 666 c 256
 105 635 129 613 160 613 c 256
 191 613 214 635 214 666 c 256
 214 697 191 720 160 720 c 256
63 456 m 257
 241 456 l 257
 241 139 l 258
 241 44 303 -11 397 -11 c 256
 445 -11 498 2 522 16 c 257
 500 76 l 257
 471 65 439 58 411 58 c 256
 360 58 324 77 324 130 c 258
 324 526 l 257
 73 526 l 257
 63 456 l 257
EndSplineSet
PickledDataWithLists: "(dp1
S'com.typemytype.robofont.layerData'
p2
(dp3
s."
EndChar
StartChar: Gamma
Encoding: 50 915 50
GlifName: Gamma_
Width: 600
VWidth: 0
Flags: W
LayerCount: 2
Back
Fore
SplineSet
535 613 m 257
 544 688 l 257
 137 688 l 257
 137 0 l 257
 222 0 l 257
 222 613 l 257
 535 613 l 257
EndSplineSet
PickledDataWithLists: "(dp1
S'com.typemytype.robofont.layerData'
p2
(dp3
s."
EndChar
StartChar: Delta
Encoding: 29 916 29
GlifName: Delta_
Width: 600
VWidth: 0
Flags: W
LayerCount: 2
Back
Fore
SplineSet
579 0 m 257
 355 688 l 257
 245 688 l 257
 21 0 l 257
 579 0 l 257
128 70 m 257
 298 614 l 257
 466 70 l 257
 128 70 l 257
EndSplineSet
PickledDataWithLists: "(dp1
S'com.typemytype.robofont.layerData'
p2
(dp3
s."
EndChar
StartChar: Theta
Encoding: 136 920 136
GlifName: Theta_
Width: 600
VWidth: 0
Flags: W
LayerCount: 2
Back
Fore
SplineSet
553 344 m 256
 553 556 467 700 300 700 c 256
 133 700 47 551 47 342 c 256
 47 130 133 -11 300 -11 c 256
 467 -11 553 135 553 344 c 256
463 344 m 256
 463 160 416 61 300 61 c 256
 187 61 137 159 137 342 c 256
 137 526 183 627 300 627 c 256
 417 627 463 527 463 344 c 256
197 316 m 257
 402 316 l 257
 402 388 l 257
 197 388 l 257
 197 316 l 257
EndSplineSet
PickledDataWithLists: "(dp1
S'com.typemytype.robofont.layerData'
p2
(dp3
s."
EndChar
StartChar: Kappa
Encoding: 78 922 78
GlifName: Kappa_
Width: 600
VWidth: 0
Flags: W
LayerCount: 2
Back
Fore
SplineSet
468 688 m 257
 196 368 l 257
 479 0 l 257
 586 0 l 257
 297 373 l 257
 567 688 l 257
 468 688 l 257
106 0 m 257
 191 0 l 257
 191 688 l 257
 106 688 l 257
 106 0 l 257
EndSplineSet
PickledDataWithLists: "(dp1
S'com.typemytype.robofont.layerData'
p2
(dp3
s."
EndChar
StartChar: Lambda
Encoding: 82 923 82
GlifName: Lambda_
Width: 600
VWidth: 0
Flags: W
LayerCount: 2
Back
Fore
SplineSet
574 0 m 257
 355 688 l 257
 245 688 l 257
 25 0 l 257
 110 0 l 257
 298 609 l 257
 484 0 l 257
 574 0 l 257
EndSplineSet
PickledDataWithLists: "(dp1
S'com.typemytype.robofont.layerData'
p2
(dp3
s."
EndChar
StartChar: Nu
Encoding: 95 925 95
GlifName: Nu_
Width: 600
VWidth: 0
Flags: W
LayerCount: 2
Back
Fore
SplineSet
156 589 m 257
 396 0 l 257
 516 0 l 257
 516 688 l 257
 436 688 l 257
 436 343 l 258
 436 219 447 108 448 96 c 257
 444 96 l 257
 200 688 l 257
 84 688 l 257
 84 0 l 257
 164 0 l 257
 164 346 l 258
 164 452 153 576 152 589 c 257
 156 589 l 257
EndSplineSet
PickledDataWithLists: "(dp1
S'com.typemytype.robofont.layerData'
p2
(dp3
s."
EndChar
StartChar: Xi
Encoding: 159 926 159
GlifName: Xi_
Width: 600
VWidth: 0
Flags: W
LayerCount: 2
Back
Fore
SplineSet
501 610 m 257
 513 688 l 257
 77 688 l 257
 77 610 l 257
 501 610 l 257
463 309 m 257
 463 389 l 257
 127 389 l 257
 127 309 l 257
 463 309 l 257
523 0 m 257
 523 80 l 257
 77 80 l 257
 77 0 l 257
 523 0 l 257
EndSplineSet
PickledDataWithLists: "(dp1
S'com.typemytype.robofont.layerData'
p2
(dp3
s."
EndChar
StartChar: Pi
Encoding: 115 928 115
GlifName: Pi_
Width: 600
VWidth: 0
Flags: W
LayerCount: 2
Back
Fore
SplineSet
431 614 m 257
 431 0 l 257
 516 0 l 257
 516 688 l 257
 84 688 l 257
 84 0 l 257
 169 0 l 257
 169 614 l 257
 431 614 l 257
EndSplineSet
PickledDataWithLists: "(dp1
S'com.typemytype.robofont.layerData'
p2
(dp3
s."
EndChar
StartChar: Sigma
Encoding: 130 931 130
GlifName: Sigma_
Width: 600
VWidth: 0
Flags: W
LayerCount: 2
Back
Fore
SplineSet
174 72 m 257
 404 316 l 257
 404 377 l 257
 172 616 l 257
 527 616 l 257
 527 688 l 257
 73 688 l 257
 73 615 l 257
 328 344 l 257
 73 72 l 257
 73 0 l 257
 527 0 l 257
 527 72 l 257
 174 72 l 257
EndSplineSet
PickledDataWithLists: "(dp1
S'com.typemytype.robofont.layerData'
p2
(dp3
s."
EndChar
StartChar: Phi
Encoding: 114 934 114
GlifName: Phi_
Width: 600
VWidth: 0
Flags: W
LayerCount: 2
Back
Fore
SplineSet
342 609 m 257
 342 688 l 257
 258 688 l 257
 258 609 l 257
 89 601 11 511 11 347 c 256
 11 176 99 86 258 81 c 257
 258 0 l 257
 342 0 l 257
 342 81 l 257
 502 86 589 176 589 347 c 256
 589 512 511 601 342 609 c 257
341 145 m 257
 341 545 l 257
 449 544 502 496 502 347 c 256
 502 210 454 151 341 145 c 257
259 545 m 257
 259 145 l 257
 146 151 98 209 98 347 c 256
 98 495 150 543 259 545 c 257
EndSplineSet
PickledDataWithLists: "(dp1
S'com.typemytype.robofont.layerData'
p2
(dp3
s."
EndChar
StartChar: Psi
Encoding: 116 936 116
GlifName: Psi_
Width: 600
VWidth: 0
Flags: W
LayerCount: 2
Back
Fore
SplineSet
256 192 m 257
 256 0 l 257
 345 0 l 257
 345 193 l 257
 510 207 587 301 587 430 c 258
 587 688 l 257
 499 688 l 257
 499 435 l 258
 499 335 458 277 344 266 c 257
 344 688 l 257
 257 688 l 257
 257 265 l 257
 140 276 101 335 101 435 c 258
 101 688 l 257
 13 688 l 257
 13 430 l 258
 13 301 88 205 256 192 c 257
EndSplineSet
PickledDataWithLists: "(dp1
S'com.typemytype.robofont.layerData'
p2
(dp3
s."
EndChar
StartChar: Omega
Encoding: 106 937 106
GlifName: Omega_
Width: 600
VWidth: 0
Flags: W
LayerCount: 2
Back
Fore
SplineSet
300 628 m 256
 406 628 464 549 464 349 c 256
 464 190 418 105 335 64 c 257
 335 0 l 257
 542 0 l 257
 542 69 l 257
 428 69 l 257
 428 73 l 257
 505 115 553 201 553 349 c 256
 553 574 454 700 300 700 c 256
 146 700 47 574 47 349 c 256
 47 201 93 113 170 73 c 257
 170 69 l 257
 58 69 l 257
 58 0 l 257
 266 0 l 257
 266 64 l 257
 183 105 136 190 136 349 c 256
 136 549 193 628 300 628 c 256
EndSplineSet
PickledDataWithLists: "(dp1
S'com.typemytype.robofont.layerData'
p2
(dp3
s."
EndChar
StartChar: Iotadieresis
Encoding: 72 938 72
GlifName: Iotadieresis_
Width: 600
VWidth: 0
Flags: W
LayerCount: 2
Back
Fore
SplineSet
402 767 m 256
 434 767 457 790 457 820 c 256
 457 851 434 874 402 874 c 256
 372 874 349 851 349 820 c 256
 349 790 372 767 402 767 c 256
196 767 m 256
 226 767 250 790 250 820 c 256
 250 851 226 874 196 874 c 256
 165 874 142 851 142 820 c 256
 142 790 165 767 196 767 c 256
497 620 m 257
 497 688 l 257
 103 688 l 257
 103 620 l 257
 257 620 l 257
 257 69 l 257
 103 69 l 257
 103 0 l 257
 497 0 l 257
 497 69 l 257
 343 69 l 257
 343 620 l 257
 497 620 l 257
EndSplineSet
PickledDataWithLists: "(dp1
S'com.typemytype.robofont.layerData'
p2
(dp3
s."
EndChar
StartChar: Upsilondieresis
Encoding: 148 939 148
GlifName: Upsilondieresis_
Width: 600
VWidth: 0
Flags: W
LayerCount: 2
Back
Fore
SplineSet
405 767 m 256
 437 767 460 790 460 820 c 256
 460 851 437 874 405 874 c 256
 375 874 352 851 352 820 c 256
 352 790 375 767 405 767 c 256
199 767 m 256
 229 767 253 790 253 820 c 256
 253 851 229 874 199 874 c 256
 168 874 145 851 145 820 c 256
 145 790 168 767 199 767 c 256
343 0 m 257
 343 266 l 257
 576 688 l 257
 487 688 l 257
 302 343 l 257
 119 688 l 257
 24 688 l 257
 257 265 l 257
 257 0 l 257
 343 0 l 257
EndSplineSet
PickledDataWithLists: "(dp1
S'com.typemytype.robofont.layerData'
p2
(dp3
s."
EndChar
StartChar: alphatonos
Encoding: 185 940 185
GlifName: alphatonos
Width: 600
VWidth: 0
Flags: W
LayerCount: 2
Back
Fore
SplineSet
279 806 m 257
 241 601 l 257
 304 590 l 257
 371 790 l 257
 279 806 l 257
255 538 m 256
 125 538 59 421 59 258 c 256
 59 77 130 -11 250 -11 c 256
 339 -11 386 58 414 139 c 257
 422 83 l 258
 431 27 472 -6 514 -12 c 257
 544 58 l 257
 514 69 503 85 499 109 c 258
 473 245 l 257
 524 526 l 257
 448 526 l 257
 421 372 l 257
 399 497 344 538 255 538 c 256
261 471 m 256
 328 471 372 429 400 267 c 257
 365 89 307 56 257 56 c 256
 185 56 148 119 148 258 c 256
 148 396 189 471 261 471 c 256
EndSplineSet
PickledDataWithLists: "(dp1
S'com.typemytype.robofont.layerData'
p2
(dp3
s."
EndChar
StartChar: etatonos
Encoding: 336 942 336
GlifName: etatonos
Width: 600
VWidth: 0
Flags: W
LayerCount: 2
Back
Fore
SplineSet
300 806 m 257
 262 601 l 257
 325 590 l 257
 392 790 l 257
 300 806 l 257
351 538 m 256
 289 538 220 507 175 450 c 257
 172 475 161 520 151 538 c 257
 73 527 l 257
 86 484 100 425 100 354 c 258
 100 0 l 257
 183 0 l 257
 183 384 l 257
 211 425 265 472 325 472 c 256
 407 472 417 428 417 320 c 258
 417 -212 l 257
 500 -202 l 257
 500 382 l 258
 500 480 454 538 351 538 c 256
EndSplineSet
PickledDataWithLists: "(dp1
S'com.typemytype.robofont.layerData'
p2
(dp3
s."
EndChar
StartChar: upsilondieresistonos
Encoding: 1149 944 1149
GlifName: upsilondieresistonos
Width: 600
VWidth: 0
Flags: W
LayerCount: 2
Back
Fore
SplineSet
395 883 m 257
 299 900 l 257
 270 724 l 257
 335 714 l 257
 395 883 l 257
414 720 m 256
 384 720 360 697 360 666 c 256
 360 635 384 613 414 613 c 256
 446 613 469 635 469 666 c 256
 469 697 446 720 414 720 c 256
190 720 m 256
 159 720 135 697 135 666 c 256
 135 635 159 613 190 613 c 256
 221 613 244 635 244 666 c 256
 244 697 221 720 190 720 c 256
499 526 m 257
 415 526 l 257
 434 425 441 336 441 263 c 256
 441 101 361 57 291 57 c 256
 225 57 187 93 187 168 c 258
 187 526 l 257
 104 526 l 257
 104 161 l 258
 104 46 181 -11 288 -11 c 256
 407 -11 525 68 525 255 c 256
 525 357 515 438 499 526 c 257
EndSplineSet
PickledDataWithLists: "(dp1
S'com.typemytype.robofont.layerData'
p2
(dp3
s."
EndChar
StartChar: beta
Encoding: 217 946 217
GlifName: beta
Width: 600
VWidth: 0
Flags: W
LayerCount: 2
Back
Fore
SplineSet
317 57 m 256
 255 57 210 73 174 109 c 257
 174 539 l 258
 174 636 215 682 293 682 c 256
 363 682 416 646 416 563 c 256
 416 469 359 430 290 430 c 258
 237 430 l 257
 227 366 l 257
 281 366 l 258
 398 366 462 310 462 202 c 256
 462 107 397 57 317 57 c 256
341 404 m 257
 423 414 492 466 492 572 c 256
 492 683 400 748 292 748 c 256
 167 748 92 670 92 540 c 258
 92 -212 l 257
 174 -201 l 257
 174 41 l 257
 218 6 270 -11 325 -11 c 256
 440 -11 547 70 547 202 c 256
 547 353 437 393 341 404 c 257
EndSplineSet
PickledDataWithLists: "(dp1
S'com.typemytype.robofont.layerData'
p2
(dp3
s."
EndChar
StartChar: gamma
Encoding: 370 947 370
GlifName: gamma
Width: 600
VWidth: 0
Flags: W
LayerCount: 2
Back
Fore
SplineSet
557 519 m 257
 472 538 l 257
 304 107 l 257
 264 295 196 457 128 537 c 257
 43 507 l 257
 125 430 213 206 257 20 c 257
 228 -56 229 -148 261 -212 c 257
 328 -201 l 257
 312 -115 311 -52 340 17 c 258
 557 519 l 257
EndSplineSet
PickledDataWithLists: "(dp1
S'com.typemytype.robofont.layerData'
p2
(dp3
s."
EndChar
StartChar: delta
Encoding: 281 948 281
GlifName: delta
Width: 600
VWidth: 0
Flags: W
LayerCount: 2
Back
Fore
SplineSet
318 749 m 256
 212 749 131 700 131 611 c 256
 131 557 156 519 228 482 c 257
 139 447 68 364 68 243 c 256
 68 104 155 -11 303 -11 c 256
 451 -11 538 110 538 243 c 256
 538 395 472 461 336 517 c 256
 249 553 217 568 217 614 c 256
 217 659 254 685 313 685 c 256
 358 685 395 675 441 640 c 257
 483 689 l 257
 437 727 389 749 318 749 c 256
291 454 m 257
 411 404 448 363 448 243 c 256
 448 122 395 57 303 57 c 256
 212 57 158 127 158 242 c 256
 158 343 195 411 291 454 c 257
EndSplineSet
PickledDataWithLists: "(dp1
S'com.typemytype.robofont.layerData'
p2
(dp3
s."
EndChar
StartChar: zeta
Encoding: 1183 950 1183
GlifName: zeta
Width: 600
VWidth: 0
Flags: W
LayerCount: 2
Back
Fore
SplineSet
530 682 m 257
 518 739 l 257
 163 739 l 257
 153 670 l 257
 304 670 l 258
 343 670 422 672 449 683 c 257
 216 510 111 390 111 252 c 256
 111 118 181 71 319 24 c 256
 404 -6 433 -16 433 -54 c 256
 433 -105 390 -133 332 -163 c 257
 366 -223 l 257
 472 -175 523 -120 523 -45 c 256
 523 34 461 56 359 89 c 256
 248 126 202 156 202 254 c 256
 202 385 315 497 530 682 c 257
EndSplineSet
PickledDataWithLists: "(dp1
S'com.typemytype.robofont.layerData'
p2
(dp3
s."
EndChar
StartChar: theta
Encoding: 642 952 642
GlifName: theta
Width: 600
VWidth: 0
Flags: W
LayerCount: 2
Back
Fore
SplineSet
301 749 m 256
 153 749 74 602 74 371 c 256
 74 135 152 -11 300 -11 c 256
 447 -11 526 141 526 372 c 256
 526 608 449 749 301 749 c 256
301 679 m 256
 392 679 435 598 439 406 c 257
 161 406 l 257
 165 598 209 679 301 679 c 256
161 339 m 257
 438 339 l 257
 433 141 390 57 300 57 c 256
 210 57 166 141 161 339 c 257
EndSplineSet
PickledDataWithLists: "(dp1
S'com.typemytype.robofont.layerData'
p2
(dp3
s."
EndChar
StartChar: kappa
Encoding: 436 954 436
GlifName: kappa
Width: 600
VWidth: 0
Flags: W
LayerCount: 2
Back
Fore
SplineSet
527 489 m 257
 457 538 l 257
 200 283 l 257
 398 67 l 258
 438 25 474 -3 531 -11 c 257
 560 57 l 257
 519 66 492 84 449 129 c 258
 301 285 l 257
 527 489 l 257
169 526 m 257
 87 526 l 257
 103 467 113 409 113 340 c 258
 113 0 l 257
 196 0 l 257
 196 325 l 258
 196 384 192 462 169 526 c 257
EndSplineSet
PickledDataWithLists: "(dp1
S'com.typemytype.robofont.layerData'
p2
(dp3
s."
EndChar
StartChar: lambda
Encoding: 441 955 441
GlifName: lambda
Width: 600
VWidth: 0
Flags: W
LayerCount: 2
Back
Fore
SplineSet
277 526 m 257
 243 526 l 257
 49 5 l 257
 128 -12 l 257
 297 462 l 257
 343 235 399 80 473 -11 c 257
 558 21 l 257
 477 101 428 263 371 499 c 256
 333 660 269 728 114 751 c 257
 101 685 l 257
 210 668 249 621 277 526 c 257
EndSplineSet
PickledDataWithLists: "(dp1
S'com.typemytype.robofont.layerData'
p2
(dp3
s."
EndChar
StartChar: nu
Encoding: 496 957 496
GlifName: nu
Width: 600
VWidth: 0
Flags: W
LayerCount: 2
Back
Fore
SplineSet
237 0 m 257
 339 0 l 257
 547 519 l 257
 463 538 l 257
 294 74 l 257
 253 261 194 447 116 537 c 257
 32 506 l 257
 116 431 193 188 237 0 c 257
EndSplineSet
PickledDataWithLists: "(dp1
S'com.typemytype.robofont.layerData'
p2
(dp3
s."
EndChar
StartChar: xi
Encoding: 1161 958 1161
GlifName: xi
Width: 600
VWidth: 0
Flags: W
LayerCount: 2
Back
Fore
SplineSet
357 749 m 256
 237 749 137 686 137 580 c 256
 137 502 196 467 257 444 c 257
 197 434 99 384 99 265 c 256
 99 114 212 66 362 19 c 256
 437 -5 456 -16 456 -51 c 256
 456 -101 419 -132 355 -163 c 257
 389 -223 l 257
 494 -175 546 -120 546 -45 c 256
 546 31 499 58 380 95 c 256
 245 136 189 161 189 268 c 256
 189 341 244 403 334 403 c 258
 454 403 l 257
 464 479 l 257
 343 479 l 258
 269 479 223 516 223 582 c 256
 223 649 272 684 357 684 c 256
 408 684 464 670 511 640 c 257
 551 690 l 257
 496 730 429 749 357 749 c 256
EndSplineSet
PickledDataWithLists: "(dp1
S'com.typemytype.robofont.layerData'
p2
(dp3
s."
EndChar
StartChar: pi
Encoding: 557 960 557
GlifName: pi
Width: 600
VWidth: 0
Flags: W
LayerCount: 2
Back
Fore
SplineSet
474 457 m 257
 558 457 l 257
 558 526 l 257
 137 526 l 258
 79 526 40 525 6 509 c 257
 25 445 l 257
 57 454 66 456 114 457 c 257
 114 0 l 257
 198 0 l 257
 198 457 l 257
 390 457 l 257
 390 126 l 258
 390 45 418 8 494 -11 c 257
 524 57 l 257
 487 65 474 83 474 136 c 258
 474 457 l 257
EndSplineSet
PickledDataWithLists: "(dp1
S'com.typemytype.robofont.layerData'
p2
(dp3
s."
EndChar
StartChar: rho
Encoding: 589 961 589
GlifName: rho
Width: 600
VWidth: 0
Flags: W
LayerCount: 2
Back
Fore
SplineSet
304 472 m 256
 392 472 434 403 434 264 c 256
 434 131 387 58 299 58 c 256
 249 58 205 82 177 124 c 257
 177 257 l 258
 177 394 209 472 304 472 c 256
306 538 m 256
 168 538 94 445 94 270 c 258
 94 -212 l 257
 177 -202 l 257
 177 49 l 257
 213 9 260 -11 318 -11 c 256
 457 -11 524 116 524 264 c 256
 524 438 459 538 306 538 c 256
EndSplineSet
PickledDataWithLists: "(dp1
S'com.typemytype.robofont.layerData'
p2
(dp3
s."
EndChar
StartChar: sigmafinal
Encoding: 613 962 613
GlifName: sigmafinal
Width: 600
VWidth: 0
Flags: W
LayerCount: 2
Back
Fore
SplineSet
348 538 m 256
 207 538 102 441 102 271 c 256
 102 137 167 78 294 32 c 256
 397 -5 419 -15 419 -56 c 256
 419 -106 377 -131 318 -154 c 257
 354 -214 l 257
 460 -167 509 -121 509 -47 c 256
 509 31 449 60 349 97 c 256
 220 144 191 172 191 271 c 256
 191 401 265 468 351 468 c 256
 410 468 442 455 485 427 c 257
 527 482 l 257
 470 523 422 538 348 538 c 256
EndSplineSet
PickledDataWithLists: "(dp1
S'com.typemytype.robofont.layerData'
p2
(dp3
s."
EndChar
StartChar: sigma
Encoding: 612 963 612
GlifName: sigma
Width: 600
VWidth: 0
Flags: W
LayerCount: 2
Back
Fore
SplineSet
300 57 m 256
 210 57 163 123 163 263 c 256
 163 434 245 469 363 468 c 257
 405 434 435 372 435 264 c 256
 435 123 389 57 300 57 c 256
559 457 m 257
 559 527 l 257
 493 529 399 532 322 532 c 256
 165 532 74 425 74 263 c 256
 74 97 155 -11 300 -11 c 256
 444 -11 527 102 524 265 c 256
 522 369 485 435 435 466 c 257
 559 457 l 257
EndSplineSet
PickledDataWithLists: "(dp1
S'com.typemytype.robofont.layerData'
p2
(dp3
s."
EndChar
StartChar: tau
Encoding: 638 964 638
GlifName: tau
Width: 600
VWidth: 0
Flags: W
LayerCount: 2
Back
Fore
SplineSet
508 16 m 257
 486 76 l 257
 457 65 425 58 397 58 c 256
 346 58 311 77 311 130 c 258
 311 457 l 257
 506 457 l 257
 506 526 l 257
 195 526 l 258
 135 526 86 521 39 505 c 257
 53 439 l 257
 108 454 134 457 183 457 c 258
 228 457 l 257
 228 139 l 258
 228 44 289 -11 383 -11 c 256
 431 -11 484 2 508 16 c 257
EndSplineSet
PickledDataWithLists: "(dp1
S'com.typemytype.robofont.layerData'
p2
(dp3
s."
EndChar
StartChar: upsilon
Encoding: 1147 965 1147
GlifName: upsilon
Width: 600
VWidth: 0
Flags: W
LayerCount: 2
Back
Fore
SplineSet
499 526 m 257
 415 526 l 257
 434 425 441 336 441 263 c 256
 441 101 361 57 291 57 c 256
 225 57 187 93 187 168 c 258
 187 526 l 257
 104 526 l 257
 104 161 l 258
 104 46 181 -11 288 -11 c 256
 407 -11 525 68 525 255 c 256
 525 357 515 438 499 526 c 257
EndSplineSet
PickledDataWithLists: "(dp1
S'com.typemytype.robofont.layerData'
p2
(dp3
s."
EndChar
StartChar: phi
Encoding: 556 966 556
GlifName: phi
Width: 600
VWidth: 0
Flags: W
LayerCount: 2
Back
Fore
SplineSet
402 538 m 256
 290 538 252 455 252 318 c 258
 252 56 l 257
 146 69 117 138 117 260 c 256
 117 334 135 415 173 526 c 257
 89 526 l 257
 62 455 34 361 34 239 c 256
 34 89 103 3 252 -10 c 257
 252 -212 l 257
 331 -201 l 257
 331 -10 l 257
 474 3 566 82 566 268 c 256
 566 448 516 538 402 538 c 256
401 472 m 256
 463 472 481 411 481 268 c 256
 481 135 445 67 331 54 c 257
 331 301 l 258
 331 392 332 472 401 472 c 256
EndSplineSet
PickledDataWithLists: "(dp1
S'com.typemytype.robofont.layerData'
p2
(dp3
s."
EndChar
StartChar: chi
Encoding: 256 967 256
GlifName: chi
Width: 600
VWidth: 0
Flags: W
LayerCount: 2
Back
Fore
SplineSet
552 -203 m 257
 357 188 l 257
 533 529 l 257
 446 533 l 257
 308 238 l 257
 246 398 199 473 136 537 c 257
 55 506 l 257
 127 431 170 377 257 183 c 257
 59 -202 l 257
 145 -208 l 257
 307 124 l 257
 466 -210 l 257
 552 -203 l 257
EndSplineSet
PickledDataWithLists: "(dp1
S'com.typemytype.robofont.layerData'
p2
(dp3
s."
EndChar
StartChar: psi
Encoding: 568 968 568
GlifName: psi
Width: 600
VWidth: 0
Flags: W
LayerCount: 2
Back
Fore
SplineSet
340 63 m 257
 340 526 l 257
 262 526 l 257
 262 63 l 257
 159 74 125 117 125 200 c 258
 125 526 l 257
 42 526 l 257
 42 193 l 258
 42 92 107 5 262 -6 c 257
 262 -212 l 257
 340 -202 l 257
 340 -6 l 257
 500 7 569 105 569 254 c 256
 569 358 559 439 543 526 c 257
 458 526 l 257
 476 429 485 335 485 262 c 256
 485 144 462 76 340 63 c 257
EndSplineSet
PickledDataWithLists: "(dp1
S'com.typemytype.robofont.layerData'
p2
(dp3
s."
EndChar
StartChar: iotadieresis
Encoding: 428 970 428
GlifName: iotadieresis
Width: 600
VWidth: 0
Flags: W
LayerCount: 2
Back
Fore
SplineSet
386 648 m 256
 418 648 441 671 441 701 c 256
 441 732 418 755 386 755 c 256
 356 755 333 732 333 701 c 256
 333 671 356 648 386 648 c 256
180 648 m 256
 210 648 234 671 234 701 c 256
 234 732 210 755 180 755 c 256
 149 755 126 732 126 701 c 256
 126 671 149 648 180 648 c 256
63 456 m 257
 241 456 l 257
 241 139 l 258
 241 44 303 -11 397 -11 c 256
 445 -11 498 2 522 16 c 257
 500 76 l 257
 471 65 439 58 411 58 c 256
 360 58 324 77 324 130 c 258
 324 526 l 257
 73 526 l 257
 63 456 l 257
EndSplineSet
PickledDataWithLists: "(dp1
S'com.typemytype.robofont.layerData'
p2
(dp3
s."
EndChar
StartChar: upsilondieresis
Encoding: 1148 971 1148
GlifName: upsilondieresis
Width: 600
VWidth: 0
Flags: W
LayerCount: 2
Back
Fore
SplineSet
402 648 m 256
 434 648 457 671 457 701 c 256
 457 732 434 755 402 755 c 256
 372 755 349 732 349 701 c 256
 349 671 372 648 402 648 c 256
196 648 m 256
 226 648 250 671 250 701 c 256
 250 732 226 755 196 755 c 256
 165 755 142 732 142 701 c 256
 142 671 165 648 196 648 c 256
499 526 m 257
 415 526 l 257
 434 425 441 336 441 263 c 256
 441 101 361 57 291 57 c 256
 225 57 187 93 187 168 c 258
 187 526 l 257
 104 526 l 257
 104 161 l 258
 104 46 181 -11 288 -11 c 256
 407 -11 525 68 525 255 c 256
 525 357 515 438 499 526 c 257
EndSplineSet
PickledDataWithLists: "(dp1
S'com.typemytype.robofont.layerData'
p2
(dp3
s."
EndChar
StartChar: omicrontonos
Encoding: 518 972 518
GlifName: omicrontonos
Width: 600
VWidth: 0
Flags: W
LayerCount: 2
Back
Fore
SplineSet
302 806 m 257
 264 601 l 257
 327 590 l 257
 394 790 l 257
 302 806 l 257
301 538 m 256
 153 538 74 425 74 263 c 256
 74 97 152 -11 300 -11 c 256
 447 -11 526 103 526 264 c 256
 526 430 449 538 301 538 c 256
301 470 m 256
 391 470 437 404 437 264 c 256
 437 123 391 57 300 57 c 256
 209 57 163 123 163 263 c 256
 163 404 210 470 301 470 c 256
EndSplineSet
PickledDataWithLists: "(dp1
S'com.typemytype.robofont.layerData'
p2
(dp3
s."
EndChar
StartChar: upsilontonos
Encoding: 1150 973 1150
GlifName: upsilontonos
Width: 600
VWidth: 0
Flags: W
LayerCount: 2
Back
Fore
SplineSet
302 806 m 257
 264 601 l 257
 327 590 l 257
 394 790 l 257
 302 806 l 257
499 526 m 257
 415 526 l 257
 434 425 441 336 441 263 c 256
 441 101 361 57 291 57 c 256
 225 57 187 93 187 168 c 258
 187 526 l 257
 104 526 l 257
 104 161 l 258
 104 46 181 -11 288 -11 c 256
 407 -11 525 68 525 255 c 256
 525 357 515 438 499 526 c 257
EndSplineSet
PickledDataWithLists: "(dp1
S'com.typemytype.robofont.layerData'
p2
(dp3
s."
EndChar
StartChar: uni0402
Encoding: 701 1026 701
GlifName: uni0402
Width: 600
VWidth: 0
Flags: W
LayerCount: 2
Back
Fore
SplineSet
243 390 m 257
 243 617 l 257
 404 617 l 257
 413 688 l 257
 -5 688 l 257
 -5 617 l 257
 157 617 l 257
 157 0 l 257
 243 0 l 257
 243 321 l 257
 269 345 307 375 369 375 c 256
 450 375 480 336 480 240 c 258
 480 95 l 258
 480 6 460 -31 372 -66 c 257
 394 -135 l 257
 503 -98 566 -43 566 96 c 258
 566 246 l 258
 566 379 509 449 388 449 c 256
 328 449 280 422 243 390 c 257
EndSplineSet
PickledDataWithLists: "(dp1
S'com.typemytype.robofont.layerData'
p2
(dp3
s."
EndChar
StartChar: uni0403
Encoding: 702 1027 702
GlifName: uni0403
Width: 600
VWidth: 0
Flags: W
LayerCount: 2
Back
Fore
SplineSet
469 834 m 257
 432 905 l 257
 234 800 l 257
 256 756 l 257
 469 834 l 257
535 613 m 257
 544 688 l 257
 137 688 l 257
 137 0 l 257
 222 0 l 257
 222 613 l 257
 535 613 l 257
EndSplineSet
PickledDataWithLists: "(dp1
S'com.typemytype.robofont.layerData'
p2
(dp3
s."
EndChar
StartChar: uni0404
Encoding: 703 1028 703
GlifName: uni0404
Width: 600
VWidth: 0
Flags: W
LayerCount: 2
Back
Fore
SplineSet
352 700 m 256
 194 700 58 577 58 345 c 256
 58 113 182 -11 354 -11 c 256
 453 -11 520 25 562 64 c 257
 516 120 l 257
 483 90 434 60 357 60 c 256
 244 60 154 135 146 318 c 257
 454 318 l 257
 454 390 l 257
 149 390 l 257
 162 566 253 630 358 630 c 256
 411 630 461 614 503 578 c 257
 552 633 l 257
 498 675 441 700 352 700 c 256
EndSplineSet
PickledDataWithLists: "(dp1
S'com.typemytype.robofont.layerData'
p2
(dp3
s."
EndChar
StartChar: uni0406
Encoding: 705 1030 705
GlifName: uni0406
Width: 600
VWidth: 0
Flags: W
LayerCount: 2
Back
Fore
SplineSet
497 620 m 257
 497 688 l 257
 103 688 l 257
 103 620 l 257
 257 620 l 257
 257 69 l 257
 103 69 l 257
 103 0 l 257
 497 0 l 257
 497 69 l 257
 343 69 l 257
 343 620 l 257
 497 620 l 257
EndSplineSet
PickledDataWithLists: "(dp1
S'com.typemytype.robofont.layerData'
p2
(dp3
s."
EndChar
StartChar: uni0409
Encoding: 708 1033 708
GlifName: uni0409
Width: 600
VWidth: 0
Flags: W
LayerCount: 2
Back
Fore
SplineSet
355 433 m 257
 355 688 l 257
 100 688 l 257
 69 313 l 258
 54 117 32 80 2 46 c 257
 46 -11 l 257
 105 34 133 65 152 311 c 258
 175 617 l 257
 270 617 l 257
 270 0 l 257
 363 0 l 258
 509 0 600 63 600 221 c 256
 600 368 519 433 355 433 c 257
355 366 m 257
 371 366 l 258
 462 366 510 328 510 220 c 256
 510 98 459 70 370 70 c 258
 355 70 l 257
 355 366 l 257
EndSplineSet
PickledDataWithLists: "(dp1
S'com.typemytype.robofont.layerData'
p2
(dp3
s."
EndChar
StartChar: uni040A
Encoding: 709 1034 709
GlifName: uni040A_
Width: 600
VWidth: 0
Flags: W
LayerCount: 2
Back
Fore
SplineSet
354 349 m 257
 370 349 l 258
 462 349 510 315 510 211 c 256
 510 91 459 67 370 68 c 258
 354 68 l 257
 354 349 l 257
354 413 m 257
 354 688 l 257
 269 688 l 257
 269 413 l 257
 126 413 l 257
 126 688 l 257
 42 688 l 257
 42 0 l 257
 126 0 l 257
 126 349 l 257
 269 349 l 257
 269 0 l 257
 363 0 l 258
 508 0 600 56 600 212 c 256
 600 352 519 414 354 413 c 257
EndSplineSet
PickledDataWithLists: "(dp1
S'com.typemytype.robofont.layerData'
p2
(dp3
s."
EndChar
StartChar: uni040B
Encoding: 710 1035 710
GlifName: uni040B_
Width: 600
VWidth: 0
Flags: W
LayerCount: 2
Back
Fore
SplineSet
404 617 m 257
 413 688 l 257
 -5 688 l 257
 -5 617 l 257
 157 617 l 257
 157 0 l 257
 243 0 l 257
 243 321 l 257
 269 345 307 375 369 375 c 256
 450 375 480 336 480 240 c 258
 480 0 l 257
 566 0 l 257
 566 246 l 258
 566 379 509 449 388 449 c 256
 326 449 280 425 243 390 c 257
 243 617 l 257
 404 617 l 257
EndSplineSet
PickledDataWithLists: "(dp1
S'com.typemytype.robofont.layerData'
p2
(dp3
s."
EndChar
StartChar: uni040C
Encoding: 711 1036 711
GlifName: uni040C_
Width: 600
VWidth: 0
Flags: W
LayerCount: 2
Back
Fore
SplineSet
439 834 m 257
 402 905 l 257
 204 800 l 257
 226 756 l 257
 439 834 l 257
181 326 m 257
 261 326 l 257
 482 0 l 257
 586 0 l 257
 335 364 l 257
 567 688 l 257
 474 688 l 257
 262 398 l 257
 181 398 l 257
 181 688 l 257
 95 688 l 257
 95 0 l 257
 181 0 l 257
 181 326 l 257
EndSplineSet
PickledDataWithLists: "(dp1
S'com.typemytype.robofont.layerData'
p2
(dp3
s."
EndChar
StartChar: uni040E
Encoding: 713 1038 713
GlifName: uni040E_
Width: 600
VWidth: 0
Flags: W
LayerCount: 2
Back
Fore
SplineSet
308 759 m 256
 385 759 450 805 458 878 c 257
 401 890 l 257
 387 851 355 823 308 823 c 256
 261 823 232 851 218 890 c 257
 161 878 l 257
 169 805 232 759 308 759 c 256
368 179 m 258
 580 688 l 257
 493 688 l 257
 313 245 l 257
 116 688 l 257
 27 688 l 257
 254 190 l 257
 291 190 l 257
 264 113 232 75 109 57 c 257
 122 -11 l 257
 267 7 321 66 368 179 c 258
EndSplineSet
PickledDataWithLists: "(dp1
S'com.typemytype.robofont.layerData'
p2
(dp3
s."
EndChar
StartChar: uni040F
Encoding: 714 1039 714
GlifName: uni040F_
Width: 600
VWidth: 0
Flags: W
LayerCount: 2
Back
Fore
SplineSet
516 0 m 257
 516 688 l 257
 431 688 l 257
 431 71 l 257
 342 71 l 257
 342 72 l 257
 243 72 l 257
 243 71 l 257
 169 71 l 257
 169 688 l 257
 84 688 l 257
 84 0 l 257
 259 0 l 257
 274 -147 l 257
 342 -147 l 257
 342 0 l 257
 516 0 l 257
EndSplineSet
PickledDataWithLists: "(dp1
S'com.typemytype.robofont.layerData'
p2
(dp3
s."
EndChar
StartChar: uni0411
Encoding: 716 1041 716
GlifName: uni0411
Width: 600
VWidth: 0
Flags: W
LayerCount: 2
Back
Fore
SplineSet
477 617 m 257
 485 688 l 257
 101 688 l 257
 101 0 l 257
 275 0 l 258
 431 0 542 57 542 214 c 256
 542 359 440 420 274 420 c 258
 187 420 l 257
 187 617 l 257
 477 617 l 257
187 352 m 257
 287 352 l 258
 383 352 452 316 452 213 c 256
 452 96 382 70 287 70 c 258
 187 70 l 257
 187 352 l 257
EndSplineSet
PickledDataWithLists: "(dp1
S'com.typemytype.robofont.layerData'
p2
(dp3
s."
EndChar
StartChar: uni0413
Encoding: 718 1043 718
GlifName: uni0413
Width: 600
VWidth: 0
Flags: W
LayerCount: 2
Back
Fore
SplineSet
535 613 m 257
 544 688 l 257
 137 688 l 257
 137 0 l 257
 222 0 l 257
 222 613 l 257
 535 613 l 257
EndSplineSet
PickledDataWithLists: "(dp1
S'com.typemytype.robofont.layerData'
p2
(dp3
s."
EndChar
StartChar: uni0414
Encoding: 719 1044 719
GlifName: uni0414
Width: 600
VWidth: 0
Flags: W
LayerCount: 2
Back
Fore
SplineSet
426 616 m 257
 426 72 l 257
 126 72 l 257
 187 127 197 207 229 484 c 258
 244 616 l 257
 426 616 l 257
565 72 m 257
 514 72 l 257
 514 688 l 257
 169 688 l 257
 143 491 l 258
 104 196 98 126 43 72 c 257
 0 72 l 257
 0 -147 l 257
 68 -147 l 257
 83 0 l 257
 482 0 l 257
 496 -147 l 257
 565 -147 l 257
 565 72 l 257
EndSplineSet
PickledDataWithLists: "(dp1
S'com.typemytype.robofont.layerData'
p2
(dp3
s."
EndChar
StartChar: uni0415
Encoding: 720 1045 720
GlifName: uni0415
Width: 600
VWidth: 0
Flags: W
LayerCount: 2
Back
Fore
SplineSet
212 385 m 257
 212 618 l 257
 506 618 l 257
 516 688 l 257
 126 688 l 257
 126 0 l 257
 525 0 l 257
 525 69 l 257
 212 69 l 257
 212 314 l 257
 467 314 l 257
 467 385 l 257
 212 385 l 257
EndSplineSet
PickledDataWithLists: "(dp1
S'com.typemytype.robofont.layerData'
p2
(dp3
s."
EndChar
StartChar: uni0417
Encoding: 722 1047 722
GlifName: uni0417
Width: 600
VWidth: 0
Flags: W
LayerCount: 2
Back
Fore
SplineSet
280 700 m 256
 190 700 113 671 49 614 c 257
 98 561 l 257
 146 604 203 630 280 630 c 256
 364 630 429 593 429 519 c 256
 429 439 357 406 280 406 c 258
 175 406 l 257
 165 333 l 257
 287 333 l 258
 379 333 448 294 448 202 c 256
 448 115 387 61 278 61 c 256
 205 61 135 87 91 134 c 257
 35 87 l 257
 92 22 181 -11 280 -11 c 256
 440 -11 540 81 540 205 c 256
 540 311 460 367 375 375 c 257
 452 386 517 435 517 520 c 256
 517 626 426 700 280 700 c 256
EndSplineSet
PickledDataWithLists: "(dp1
S'com.typemytype.robofont.layerData'
p2
(dp3
s."
EndChar
StartChar: uni0418
Encoding: 723 1048 723
GlifName: uni0418
Width: 600
VWidth: 0
Flags: W
LayerCount: 2
Back
Fore
SplineSet
84 688 m 257
 84 0 l 257
 196 0 l 257
 439 593 l 257
 443 593 l 257
 438 545 431 455 431 351 c 258
 431 0 l 257
 516 0 l 257
 516 688 l 257
 406 688 l 257
 161 93 l 257
 157 93 l 257
 163 151 169 217 169 339 c 258
 169 688 l 257
 84 688 l 257
EndSplineSet
PickledDataWithLists: "(dp1
S'com.typemytype.robofont.layerData'
p2
(dp3
s."
EndChar
StartChar: uni0419
Encoding: 724 1049 724
GlifName: uni0419
Width: 600
VWidth: 0
Flags: W
LayerCount: 2
Back
Fore
SplineSet
298 773 m 256
 375 773 440 812 448 885 c 257
 391 898 l 257
 376 854 345 838 298 838 c 256
 251 838 223 854 208 898 c 257
 151 885 l 257
 159 812 222 773 298 773 c 256
84 688 m 257
 84 0 l 257
 196 0 l 257
 439 593 l 257
 443 593 l 257
 438 545 431 455 431 351 c 258
 431 0 l 257
 516 0 l 257
 516 688 l 257
 406 688 l 257
 161 93 l 257
 157 93 l 257
 163 151 169 217 169 339 c 258
 169 688 l 257
 84 688 l 257
EndSplineSet
PickledDataWithLists: "(dp1
S'com.typemytype.robofont.layerData'
p2
(dp3
s."
EndChar
StartChar: uni041A
Encoding: 725 1050 725
GlifName: uni041A_
Width: 600
VWidth: 0
Flags: W
LayerCount: 2
Back
Fore
SplineSet
181 326 m 257
 261 326 l 257
 482 0 l 257
 586 0 l 257
 335 364 l 257
 567 688 l 257
 474 688 l 257
 262 398 l 257
 181 398 l 257
 181 688 l 257
 95 688 l 257
 95 0 l 257
 181 0 l 257
 181 326 l 257
EndSplineSet
PickledDataWithLists: "(dp1
S'com.typemytype.robofont.layerData'
p2
(dp3
s."
EndChar
StartChar: uni041B
Encoding: 726 1051 726
GlifName: uni041B_
Width: 600
VWidth: 0
Flags: W
LayerCount: 2
Back
Fore
SplineSet
516 0 m 257
 516 688 l 257
 170 688 l 257
 130 384 l 258
 95 119 60 90 15 53 c 257
 53 -11 l 257
 142 51 181 91 220 409 c 258
 244 615 l 257
 431 615 l 257
 431 0 l 257
 516 0 l 257
EndSplineSet
PickledDataWithLists: "(dp1
S'com.typemytype.robofont.layerData'
p2
(dp3
s."
EndChar
StartChar: uni041F
Encoding: 730 1055 730
GlifName: uni041F_
Width: 600
VWidth: 0
Flags: W
LayerCount: 2
Back
Fore
SplineSet
431 614 m 257
 431 0 l 257
 516 0 l 257
 516 688 l 257
 84 688 l 257
 84 0 l 257
 169 0 l 257
 169 614 l 257
 431 614 l 257
EndSplineSet
PickledDataWithLists: "(dp1
S'com.typemytype.robofont.layerData'
p2
(dp3
s."
EndChar
StartChar: uni0423
Encoding: 734 1059 734
GlifName: uni0423
Width: 600
VWidth: 0
Flags: W
LayerCount: 2
Back
Fore
SplineSet
368 179 m 258
 580 688 l 257
 493 688 l 257
 313 245 l 257
 116 688 l 257
 27 688 l 257
 254 190 l 257
 291 190 l 257
 264 113 232 75 109 57 c 257
 122 -11 l 257
 267 7 321 66 368 179 c 258
EndSplineSet
PickledDataWithLists: "(dp1
S'com.typemytype.robofont.layerData'
p2
(dp3
s."
EndChar
StartChar: uni0424
Encoding: 735 1060 735
GlifName: uni0424
Width: 600
VWidth: 0
Flags: W
LayerCount: 2
Back
Fore
SplineSet
342 659 m 257
 342 718 l 257
 258 718 l 257
 258 659 l 257
 91 647 13 544 13 347 c 256
 13 141 100 38 258 31 c 257
 258 -29 l 257
 342 -29 l 257
 342 31 l 257
 499 39 587 142 587 347 c 256
 587 544 509 647 342 659 c 257
341 95 m 257
 341 595 l 257
 449 592 500 526 500 347 c 256
 500 177 453 104 341 95 c 257
259 595 m 257
 259 95 l 257
 147 104 100 177 100 347 c 256
 100 526 151 592 259 595 c 257
EndSplineSet
PickledDataWithLists: "(dp1
S'com.typemytype.robofont.layerData'
p2
(dp3
s."
EndChar
StartChar: uni0426
Encoding: 737 1062 737
GlifName: uni0426
Width: 600
VWidth: 0
Flags: W
LayerCount: 2
Back
Fore
SplineSet
578 72 m 257
 516 72 l 257
 516 688 l 257
 431 688 l 257
 431 71 l 257
 169 71 l 257
 169 688 l 257
 84 688 l 257
 84 0 l 257
 495 0 l 257
 510 -147 l 257
 578 -147 l 257
 578 72 l 257
EndSplineSet
PickledDataWithLists: "(dp1
S'com.typemytype.robofont.layerData'
p2
(dp3
s."
EndChar
StartChar: uni0427
Encoding: 738 1063 738
GlifName: uni0427
Width: 600
VWidth: 0
Flags: W
LayerCount: 2
Back
Fore
SplineSet
516 688 m 257
 431 688 l 257
 431 356 l 257
 396 322 345 295 272 295 c 256
 186 295 137 337 137 430 c 258
 137 688 l 257
 51 688 l 257
 51 423 l 258
 51 300 131 220 251 220 c 256
 324 220 371 239 431 282 c 257
 431 0 l 257
 516 0 l 257
 516 688 l 257
EndSplineSet
PickledDataWithLists: "(dp1
S'com.typemytype.robofont.layerData'
p2
(dp3
s."
EndChar
StartChar: uni0428
Encoding: 739 1064 739
GlifName: uni0428
Width: 600
VWidth: 0
Flags: W
LayerCount: 2
Back
Fore
SplineSet
554 0 m 257
 554 688 l 257
 473 688 l 257
 473 72 l 257
 339 72 l 257
 339 688 l 257
 261 688 l 257
 261 72 l 257
 127 72 l 257
 127 688 l 257
 46 688 l 257
 46 0 l 257
 554 0 l 257
EndSplineSet
PickledDataWithLists: "(dp1
S'com.typemytype.robofont.layerData'
p2
(dp3
s."
EndChar
StartChar: uni0429
Encoding: 740 1065 740
GlifName: uni0429
Width: 600
VWidth: 0
Flags: W
LayerCount: 2
Back
Fore
SplineSet
616 72 m 257
 554 72 l 257
 554 688 l 257
 473 688 l 257
 473 72 l 257
 339 72 l 257
 339 688 l 257
 261 688 l 257
 261 72 l 257
 127 72 l 257
 127 688 l 257
 46 688 l 257
 46 0 l 257
 533 0 l 257
 548 -147 l 257
 616 -147 l 257
 616 72 l 257
EndSplineSet
PickledDataWithLists: "(dp1
S'com.typemytype.robofont.layerData'
p2
(dp3
s."
EndChar
StartChar: uni042A
Encoding: 741 1066 741
GlifName: uni042A_
Width: 600
VWidth: 0
Flags: W
LayerCount: 2
Back
Fore
SplineSet
209 433 m 257
 209 688 l 257
 0 688 l 257
 0 613 l 257
 122 613 l 257
 122 0 l 257
 316 0 l 258
 471 0 581 61 581 221 c 256
 581 370 480 433 315 433 c 258
 209 433 l 257
209 364 m 257
 330 364 l 258
 422 364 492 327 492 220 c 256
 492 99 423 70 331 70 c 258
 209 70 l 257
 209 364 l 257
EndSplineSet
PickledDataWithLists: "(dp1
S'com.typemytype.robofont.layerData'
p2
(dp3
s."
EndChar
StartChar: uni042B
Encoding: 742 1067 742
GlifName: uni042B_
Width: 600
VWidth: 0
Flags: W
LayerCount: 2
Back
Fore
SplineSet
569 0 m 257
 569 688 l 257
 481 688 l 257
 481 0 l 257
 569 0 l 257
119 432 m 257
 119 688 l 257
 31 688 l 257
 31 0 l 257
 184 0 l 258
 341 0 430 72 430 221 c 256
 430 357 350 432 182 432 c 258
 119 432 l 257
119 367 m 257
 192 367 l 258
 289 367 339 317 339 220 c 256
 339 110 287 69 193 69 c 258
 119 69 l 257
 119 367 l 257
EndSplineSet
PickledDataWithLists: "(dp1
S'com.typemytype.robofont.layerData'
p2
(dp3
s."
EndChar
StartChar: uni042C
Encoding: 743 1068 743
GlifName: uni042C_
Width: 600
VWidth: 0
Flags: W
LayerCount: 2
Back
Fore
SplineSet
180 433 m 257
 180 688 l 257
 95 688 l 257
 95 0 l 257
 286 0 l 258
 440 0 551 61 551 221 c 256
 551 370 450 433 285 433 c 258
 180 433 l 257
180 365 m 257
 297 365 l 258
 390 365 459 327 459 220 c 256
 459 98 389 70 296 70 c 258
 180 70 l 257
 180 365 l 257
EndSplineSet
PickledDataWithLists: "(dp1
S'com.typemytype.robofont.layerData'
p2
(dp3
s."
EndChar
StartChar: uni042D
Encoding: 744 1069 744
GlifName: uni042D_
Width: 600
VWidth: 0
Flags: W
LayerCount: 2
Back
Fore
SplineSet
269 700 m 256
 172 700 102 660 50 615 c 257
 98 565 l 257
 140 598 188 630 265 630 c 256
 375 630 440 565 450 390 c 257
 146 390 l 257
 146 318 l 257
 450 318 l 257
 441 141 377 60 256 60 c 256
 192 60 142 83 94 126 c 257
 42 77 l 257
 94 24 171 -11 261 -11 c 256
 431 -11 538 113 538 353 c 256
 538 586 434 700 269 700 c 256
EndSplineSet
PickledDataWithLists: "(dp1
S'com.typemytype.robofont.layerData'
p2
(dp3
s."
EndChar
StartChar: uni042E
Encoding: 745 1070 745
GlifName: uni042E_
Width: 600
VWidth: 0
Flags: W
LayerCount: 2
Back
Fore
SplineSet
388 700 m 256
 257 700 206 591 198 392 c 257
 130 392 l 257
 130 688 l 257
 47 688 l 257
 47 0 l 257
 130 0 l 257
 130 321 l 257
 197 321 l 257
 200 122 245 -11 388 -11 c 256
 524 -11 579 115 579 344 c 256
 579 578 532 700 388 700 c 256
388 629 m 256
 458 629 491 557 491 344 c 256
 491 130 458 59 388 59 c 256
 314 59 286 131 286 345 c 256
 286 558 314 629 388 629 c 256
EndSplineSet
PickledDataWithLists: "(dp1
S'com.typemytype.robofont.layerData'
p2
(dp3
s."
EndChar
StartChar: uni042F
Encoding: 746 1071 746
GlifName: uni042F_
Width: 600
VWidth: 0
Flags: W
LayerCount: 2
Back
Fore
SplineSet
325 620 m 258
 431 620 l 257
 431 347 l 257
 306 347 l 258
 216 347 167 391 167 485 c 256
 167 579 219 620 325 620 c 258
516 0 m 257
 516 688 l 257
 336 688 l 258
 166 688 76 613 76 484 c 256
 76 401 116 333 196 297 c 257
 34 0 l 257
 130 0 l 257
 276 277 l 257
 431 277 l 257
 431 0 l 257
 516 0 l 257
EndSplineSet
PickledDataWithLists: "(dp1
S'com.typemytype.robofont.layerData'
p2
(dp3
s."
EndChar
StartChar: uni0431
Encoding: 748 1073 748
GlifName: uni0431
Width: 600
VWidth: 0
Flags: W
LayerCount: 2
Back
Fore
SplineSet
332 492 m 256
 257 492 199 453 164 394 c 257
 178 541 224 578 309 609 c 256
 387 638 434 663 469 685 c 257
 432 750 l 257
 384 716 346 700 268 673 c 256
 115 620 76 508 76 289 c 256
 76 79 174 -11 299 -11 c 256
 431 -11 523 82 523 252 c 256
 523 401 447 492 332 492 c 256
299 57 m 256
 218 57 167 128 167 255 c 258
 167 320 l 257
 205 395 263 423 319 423 c 256
 386 423 432 377 432 249 c 256
 432 95 372 57 299 57 c 256
EndSplineSet
PickledDataWithLists: "(dp1
S'com.typemytype.robofont.layerData'
p2
(dp3
s."
EndChar
StartChar: uni0432
Encoding: 749 1074 749
GlifName: uni0432
Width: 600
VWidth: 0
Flags: W
LayerCount: 2
Back
Fore
SplineSet
398 285 m 257
 480 306 504 346 504 400 c 256
 504 489 421 538 290 538 c 256
 227 538 166 530 112 519 c 257
 112 0 l 257
 307 0 l 258
 425 0 532 46 532 155 c 256
 532 235 488 277 398 285 c 257
291 471 m 256
 377 471 418 450 418 393 c 256
 418 330 373 312 304 312 c 258
 195 312 l 257
 195 465 l 257
 227 469 251 471 291 471 c 256
291 68 m 258
 195 68 l 257
 195 246 l 257
 310 246 l 258
 373 246 443 232 443 155 c 256
 443 72 361 68 291 68 c 258
EndSplineSet
PickledDataWithLists: "(dp1
S'com.typemytype.robofont.layerData'
p2
(dp3
s."
EndChar
StartChar: uni0433
Encoding: 750 1075 750
GlifName: uni0433
Width: 600
VWidth: 0
Flags: W
LayerCount: 2
Back
Fore
SplineSet
158 0 m 257
 241 0 l 257
 241 457 l 257
 514 457 l 257
 524 526 l 257
 158 526 l 257
 158 0 l 257
EndSplineSet
PickledDataWithLists: "(dp1
S'com.typemytype.robofont.layerData'
p2
(dp3
s."
EndChar
StartChar: uni0434
Encoding: 751 1076 751
GlifName: uni0434
Width: 600
VWidth: 0
Flags: W
LayerCount: 2
Back
Fore
SplineSet
411 459 m 257
 411 68 l 257
 133 68 l 257
 194 112 212 168 226 362 c 258
 232 459 l 257
 411 459 l 257
534 68 m 257
 496 68 l 257
 496 526 l 257
 157 526 l 257
 145 356 l 258
 131 166 109 109 62 68 c 257
 27 68 l 257
 27 -147 l 257
 96 -147 l 257
 110 0 l 257
 451 0 l 257
 465 -147 l 257
 534 -147 l 257
 534 68 l 257
EndSplineSet
PickledDataWithLists: "(dp1
S'com.typemytype.robofont.layerData'
p2
(dp3
s."
EndChar
StartChar: uni0436
Encoding: 753 1078 753
GlifName: uni0436
Width: 600
VWidth: 0
Flags: W
LayerCount: 2
Back
Fore
SplineSet
263 247 m 257
 263 0 l 257
 337 0 l 257
 337 247 l 257
 391 247 l 257
 495 0 l 257
 580 0 l 257
 458 283 l 257
 570 526 l 257
 488 526 l 257
 393 312 l 257
 337 312 l 257
 337 526 l 257
 263 526 l 257
 263 312 l 257
 207 312 l 257
 114 526 l 257
 30 526 l 257
 142 283 l 257
 20 0 l 257
 102 0 l 257
 206 247 l 257
 263 247 l 257
EndSplineSet
PickledDataWithLists: "(dp1
S'com.typemytype.robofont.layerData'
p2
(dp3
s."
EndChar
StartChar: uni0437
Encoding: 754 1079 754
GlifName: uni0437
Width: 600
VWidth: 0
Flags: W
LayerCount: 2
Back
Fore
SplineSet
287 309 m 258
 192 309 l 257
 186 241 l 257
 292 241 l 258
 380 241 427 214 427 155 c 256
 427 96 377 57 285 57 c 256
 201 57 143 80 96 117 c 257
 54 62 l 257
 104 22 174 -11 282 -11 c 256
 415 -11 517 47 517 152 c 256
 517 236 453 269 381 281 c 257
 442 299 487 340 487 396 c 256
 487 496 394 538 278 538 c 256
 201 538 124 513 74 474 c 257
 115 422 l 257
 159 454 219 471 276 471 c 256
 356 471 401 445 401 389 c 256
 401 341 357 309 287 309 c 258
EndSplineSet
PickledDataWithLists: "(dp1
S'com.typemytype.robofont.layerData'
p2
(dp3
s."
EndChar
StartChar: uni0438
Encoding: 755 1080 755
GlifName: uni0438
Width: 600
VWidth: 0
Flags: W
LayerCount: 2
Back
Fore
SplineSet
499 0 m 257
 499 526 l 257
 397 526 l 257
 177 95 l 257
 173 95 l 257
 175 115 181 197 181 279 c 258
 181 526 l 257
 101 526 l 257
 101 0 l 257
 201 0 l 257
 424 435 l 257
 428 435 l 257
 425 416 419 341 419 247 c 258
 419 0 l 257
 499 0 l 257
EndSplineSet
PickledDataWithLists: "(dp1
S'com.typemytype.robofont.layerData'
p2
(dp3
s."
EndChar
StartChar: uni0439
Encoding: 756 1081 756
GlifName: uni0439
Width: 600
VWidth: 0
Flags: W
LayerCount: 2
Back
Fore
SplineSet
298 647 m 256
 375 647 440 686 448 759 c 257
 391 772 l 257
 376 728 345 712 298 712 c 256
 251 712 223 728 208 772 c 257
 151 759 l 257
 159 686 222 647 298 647 c 256
499 0 m 257
 499 526 l 257
 397 526 l 257
 177 95 l 257
 173 95 l 257
 175 115 181 197 181 279 c 258
 181 526 l 257
 101 526 l 257
 101 0 l 257
 201 0 l 257
 424 435 l 257
 428 435 l 257
 425 416 419 341 419 247 c 258
 419 0 l 257
 499 0 l 257
EndSplineSet
PickledDataWithLists: "(dp1
S'com.typemytype.robofont.layerData'
p2
(dp3
s."
EndChar
StartChar: uni043A
Encoding: 757 1082 757
GlifName: uni043A_
Width: 600
VWidth: 0
Flags: W
LayerCount: 2
Back
Fore
SplineSet
106 526 m 257
 106 0 l 257
 189 0 l 257
 189 246 l 257
 293 246 l 257
 468 0 l 257
 569 0 l 257
 364 283 l 257
 541 526 l 257
 447 526 l 257
 295 313 l 257
 189 313 l 257
 189 526 l 257
 106 526 l 257
EndSplineSet
PickledDataWithLists: "(dp1
S'com.typemytype.robofont.layerData'
p2
(dp3
s."
EndChar
StartChar: uni043B
Encoding: 758 1083 758
GlifName: uni043B_
Width: 600
VWidth: 0
Flags: W
LayerCount: 2
Back
Fore
SplineSet
510 0 m 257
 510 526 l 257
 153 526 l 257
 137 313 l 258
 121 101 91 73 42 42 c 257
 78 -11 l 257
 170 41 198 83 217 317 c 258
 228 457 l 257
 427 457 l 257
 427 0 l 257
 510 0 l 257
EndSplineSet
PickledDataWithLists: "(dp1
S'com.typemytype.robofont.layerData'
p2
(dp3
s."
EndChar
StartChar: uni043C
Encoding: 759 1084 759
GlifName: uni043C_
Width: 600
VWidth: 0
Flags: W
LayerCount: 2
Back
Fore
SplineSet
557 0 m 257
 519 526 l 257
 408 526 l 257
 303 166 l 257
 190 526 l 257
 80 526 l 257
 43 0 l 257
 122 0 l 257
 137 260 l 258
 140 316 142 386 139 444 c 257
 143 444 l 257
 260 89 l 257
 343 89 l 257
 448 444 l 257
 452 444 l 257
 451 373 453 315 457 258 c 258
 478 0 l 257
 557 0 l 257
EndSplineSet
PickledDataWithLists: "(dp1
S'com.typemytype.robofont.layerData'
p2
(dp3
s."
EndChar
StartChar: uni043F
Encoding: 762 1087 762
GlifName: uni043F_
Width: 600
VWidth: 0
Flags: W
LayerCount: 2
Back
Fore
SplineSet
416 458 m 257
 416 0 l 257
 499 0 l 257
 499 526 l 257
 101 526 l 257
 101 0 l 257
 184 0 l 257
 184 458 l 257
 416 458 l 257
EndSplineSet
PickledDataWithLists: "(dp1
S'com.typemytype.robofont.layerData'
p2
(dp3
s."
EndChar
StartChar: uni0440
Encoding: 763 1088 763
GlifName: uni0440
Width: 600
VWidth: 0
Flags: W
LayerCount: 2
Back
Fore
SplineSet
316 471 m 256
 399 471 437 402 437 264 c 256
 437 123 393 58 305 58 c 256
 255 58 211 83 184 124 c 257
 184 386 l 257
 212 428 257 471 316 471 c 256
336 538 m 256
 272 538 217 507 178 453 c 257
 171 526 l 257
 101 526 l 257
 101 -212 l 257
 184 -202 l 257
 184 49 l 257
 219 9 266 -11 323 -11 c 256
 460 -11 526 104 526 264 c 256
 526 429 476 538 336 538 c 256
EndSplineSet
PickledDataWithLists: "(dp1
S'com.typemytype.robofont.layerData'
p2
(dp3
s."
EndChar
StartChar: uni0442
Encoding: 765 1090 765
GlifName: uni0442
Width: 600
VWidth: 0
Flags: W
LayerCount: 2
Back
Fore
SplineSet
530 457 m 257
 540 526 l 257
 66 526 l 257
 66 457 l 257
 259 457 l 257
 259 0 l 257
 341 0 l 257
 341 457 l 257
 530 457 l 257
EndSplineSet
PickledDataWithLists: "(dp1
S'com.typemytype.robofont.layerData'
p2
(dp3
s."
EndChar
StartChar: uni0444
Encoding: 767 1092 767
GlifName: uni0444
Width: 600
VWidth: 0
Flags: W
LayerCount: 2
Back
Fore
SplineSet
417 472 m 256
 466 472 486 413 486 264 c 256
 486 115 459 55 410 55 c 256
 381 55 362 73 338 106 c 257
 338 423 l 257
 364 456 385 472 417 472 c 256
187 472 m 256
 219 472 236 456 262 425 c 257
 262 106 l 257
 235 73 217 55 187 55 c 256
 139 55 115 114 115 264 c 256
 115 413 139 472 187 472 c 256
338 738 m 257
 262 749 l 257
 262 486 l 257
 234 523 203 538 169 538 c 256
 64 538 29 429 29 264 c 256
 29 99 78 -11 171 -11 c 256
 201 -11 236 7 262 45 c 257
 262 -212 l 257
 338 -201 l 257
 338 45 l 257
 364 7 396 -11 427 -11 c 256
 520 -11 571 99 571 264 c 256
 571 429 540 538 436 538 c 256
 400 538 367 521 338 484 c 257
 338 738 l 257
EndSplineSet
PickledDataWithLists: "(dp1
S'com.typemytype.robofont.layerData'
p2
(dp3
s."
EndChar
StartChar: uni0446
Encoding: 769 1094 769
GlifName: uni0446
Width: 600
VWidth: 0
Flags: W
LayerCount: 2
Back
Fore
SplineSet
575 68 m 257
 493 68 l 257
 493 526 l 257
 410 526 l 257
 410 69 l 257
 178 69 l 257
 178 526 l 257
 95 526 l 257
 95 0 l 257
 491 0 l 257
 506 -147 l 257
 575 -147 l 257
 575 68 l 257
EndSplineSet
PickledDataWithLists: "(dp1
S'com.typemytype.robofont.layerData'
p2
(dp3
s."
EndChar
StartChar: uni0447
Encoding: 770 1095 770
GlifName: uni0447
Width: 600
VWidth: 0
Flags: W
LayerCount: 2
Back
Fore
SplineSet
488 0 m 257
 488 526 l 257
 406 526 l 257
 406 290 l 257
 373 253 311 230 260 230 c 256
 198 230 168 258 168 328 c 258
 168 526 l 257
 86 526 l 257
 86 319 l 258
 86 221 138 164 240 164 c 256
 305 164 366 187 406 223 c 257
 406 0 l 257
 488 0 l 257
EndSplineSet
PickledDataWithLists: "(dp1
S'com.typemytype.robofont.layerData'
p2
(dp3
s."
EndChar
StartChar: uni0448
Encoding: 771 1096 771
GlifName: uni0448
Width: 600
VWidth: 0
Flags: W
LayerCount: 2
Back
Fore
SplineSet
551 0 m 257
 551 526 l 257
 473 526 l 257
 473 69 l 257
 339 69 l 257
 339 526 l 257
 261 526 l 257
 261 69 l 257
 127 69 l 257
 127 526 l 257
 49 526 l 257
 49 0 l 257
 551 0 l 257
EndSplineSet
PickledDataWithLists: "(dp1
S'com.typemytype.robofont.layerData'
p2
(dp3
s."
EndChar
StartChar: uni0449
Encoding: 772 1097 772
GlifName: uni0449
Width: 600
VWidth: 0
Flags: W
LayerCount: 2
Back
Fore
SplineSet
623 68 m 257
 551 68 l 257
 551 526 l 257
 473 526 l 257
 473 69 l 257
 339 69 l 257
 339 526 l 257
 261 526 l 257
 261 69 l 257
 127 69 l 257
 127 526 l 257
 49 526 l 257
 49 0 l 257
 539 0 l 257
 554 -147 l 257
 623 -147 l 257
 623 68 l 257
EndSplineSet
PickledDataWithLists: "(dp1
S'com.typemytype.robofont.layerData'
p2
(dp3
s."
EndChar
StartChar: uni044A
Encoding: 773 1098 773
GlifName: uni044A_
Width: 600
VWidth: 0
Flags: W
LayerCount: 2
Back
Fore
SplineSet
242 361 m 257
 242 526 l 257
 33 526 l 257
 33 462 l 257
 159 462 l 257
 159 0 l 257
 304 0 l 258
 443 0 545 47 545 184 c 256
 545 311 452 361 305 361 c 258
 242 361 l 257
242 295 m 257
 315 295 l 258
 403 295 456 266 456 183 c 256
 456 88 394 67 314 67 c 258
 242 67 l 257
 242 295 l 257
EndSplineSet
PickledDataWithLists: "(dp1
S'com.typemytype.robofont.layerData'
p2
(dp3
s."
EndChar
StartChar: uni044B
Encoding: 774 1099 774
GlifName: uni044B_
Width: 600
VWidth: 0
Flags: W
LayerCount: 2
Back
Fore
SplineSet
538 0 m 257
 538 526 l 257
 457 526 l 257
 457 0 l 257
 538 0 l 257
142 355 m 257
 142 526 l 257
 62 526 l 257
 62 0 l 257
 178 0 l 258
 313 0 402 54 402 182 c 256
 402 304 317 355 178 355 c 258
 142 355 l 257
142 293 m 257
 181 293 l 258
 273 293 315 263 315 182 c 256
 315 90 265 65 181 65 c 258
 142 65 l 257
 142 293 l 257
EndSplineSet
PickledDataWithLists: "(dp1
S'com.typemytype.robofont.layerData'
p2
(dp3
s."
EndChar
StartChar: uni044C
Encoding: 775 1100 775
GlifName: uni044C_
Width: 600
VWidth: 0
Flags: W
LayerCount: 2
Back
Fore
SplineSet
210 361 m 257
 210 526 l 257
 127 526 l 257
 127 0 l 257
 332 0 l 258
 434 0 533 56 533 181 c 256
 533 289 478 361 313 361 c 258
 210 361 l 257
210 295 m 257
 312 295 l 258
 414 295 444 256 444 181 c 256
 444 94 394 67 323 67 c 258
 210 67 l 257
 210 295 l 257
EndSplineSet
PickledDataWithLists: "(dp1
S'com.typemytype.robofont.layerData'
p2
(dp3
s."
EndChar
StartChar: uni044D
Encoding: 776 1101 776
GlifName: uni044D_
Width: 600
VWidth: 0
Flags: W
LayerCount: 2
Back
Fore
SplineSet
278 538 m 256
 213 538 145 517 97 477 c 257
 136 423 l 257
 180 456 227 470 278 470 c 256
 364 470 419 417 429 303 c 257
 181 303 l 257
 181 237 l 257
 430 237 l 257
 422 112 362 58 273 58 c 256
 221 58 176 74 132 106 c 257
 92 52 l 257
 140 11 208 -11 273 -11 c 256
 432 -11 516 101 516 266 c 256
 516 431 439 538 278 538 c 256
EndSplineSet
PickledDataWithLists: "(dp1
S'com.typemytype.robofont.layerData'
p2
(dp3
s."
EndChar
StartChar: uni044E
Encoding: 777 1102 777
GlifName: uni044E_
Width: 600
VWidth: 0
Flags: W
LayerCount: 2
Back
Fore
SplineSet
384 538 m 256
 269 538 213 448 205 304 c 257
 138 304 l 257
 138 526 l 257
 56 526 l 257
 56 0 l 257
 138 0 l 257
 138 234 l 257
 205 234 l 257
 211 94 264 -11 384 -11 c 256
 512 -11 568 100 568 264 c 256
 568 435 509 538 384 538 c 256
384 469 m 256
 456 469 479 402 479 264 c 256
 479 135 461 57 384 57 c 256
 310 57 291 135 291 263 c 256
 291 402 312 469 384 469 c 256
EndSplineSet
PickledDataWithLists: "(dp1
S'com.typemytype.robofont.layerData'
p2
(dp3
s."
EndChar
StartChar: uni044F
Encoding: 778 1103 778
GlifName: uni044F_
Width: 600
VWidth: 0
Flags: W
LayerCount: 2
Back
Fore
SplineSet
308 471 m 256
 346 471 369 469 402 465 c 257
 402 271 l 257
 299 271 l 258
 218 271 178 303 178 370 c 256
 178 435 206 471 308 471 c 256
310 538 m 256
 156 538 90 473 90 370 c 256
 90 304 118 253 181 223 c 257
 55 0 l 257
 149 0 l 257
 262 204 l 257
 402 204 l 257
 402 0 l 257
 485 0 l 257
 485 519 l 257
 435 530 379 538 310 538 c 256
EndSplineSet
PickledDataWithLists: "(dp1
S'com.typemytype.robofont.layerData'
p2
(dp3
s."
EndChar
StartChar: uni0452
Encoding: 781 1106 781
GlifName: uni0452
Width: 600
VWidth: 0
Flags: W
LayerCount: 2
Back
Fore
SplineSet
184 664 m 257
 184 747 l 257
 101 737 l 257
 101 664 l 257
 19 664 l 257
 19 598 l 257
 101 598 l 257
 101 0 l 257
 184 0 l 257
 184 384 l 257
 211 425 265 472 326 472 c 256
 389 472 417 443 417 378 c 258
 417 24 l 258
 417 -92 385 -118 315 -150 c 257
 346 -211 l 257
 448 -165 500 -121 500 25 c 258
 500 382 l 258
 500 480 455 538 352 538 c 256
 290 538 225 508 184 458 c 257
 184 598 l 257
 353 598 l 257
 353 664 l 257
 184 664 l 257
EndSplineSet
PickledDataWithLists: "(dp1
S'com.typemytype.robofont.layerData'
p2
(dp3
s."
EndChar
StartChar: uni0453
Encoding: 782 1107 782
GlifName: uni0453
Width: 600
VWidth: 0
Flags: W
LayerCount: 2
Back
Fore
SplineSet
410 785 m 257
 225 670 l 257
 253 624 l 257
 454 714 l 257
 410 785 l 257
158 0 m 257
 241 0 l 257
 241 457 l 257
 514 457 l 257
 524 526 l 257
 158 526 l 257
 158 0 l 257
EndSplineSet
PickledDataWithLists: "(dp1
S'com.typemytype.robofont.layerData'
p2
(dp3
s."
EndChar
